<svg width="24" height="24" viewBox="0 0 24 24" fill="none" xmlns="http://www.w3.org/2000/svg">
<path d="M11.999 2.00055C7.59902 2.00055 3.99902 5.60055 3.99902 10.0005C3.99902 15.4005 10.999 21.5005 11.299 21.8005C11.499 21.9005 11.799 22.0005 11.999 22.0005C12.199 22.0005 12.499 21.9005 12.699 21.8005C12.999 21.5005 19.999 15.4005 19.999 10.0005C19.999 5.60055 16.399 2.00055 11.999 2.00055ZM11.999 19.7005C9.89902 17.7005 5.99902 13.4005 5.99902 10.0005C5.99902 6.70055 8.69902 4.00055 11.999 4.00055C15.299 4.00055 17.999 6.70055 17.999 10.0005C17.999 13.3005 14.099 17.7005 11.999 19.7005ZM11.999 6.00055C9.79902 6.00055 7.99902 7.80055 7.99902 10.0005C7.99902 12.2005 9.79902 14.0005 11.999 14.0005C14.199 14.0005 15.999 12.2005 15.999 10.0005C15.999 7.80055 14.199 6.00055 11.999 6.00055ZM11.999 12.0005C10.899 12.0005 9.99902 11.1005 9.99902 10.0005C9.99902 8.90055 10.899 8.00055 11.999 8.00055C13.099 8.00055 13.999 8.90055 13.999 10.0005C13.999 11.1005 13.099 12.0005 11.999 12.0005Z" fill="#333333"/>
</svg>
