<svg width="34" height="24" viewBox="0 0 34 24" fill="none" xmlns="http://www.w3.org/2000/svg">
<path fill-rule="evenodd" clip-rule="evenodd" d="M32.462 22.7131H32.237C32.1383 22.7133 32.0405 22.694 31.9493 22.6563C31.8581 22.6187 31.7751 22.5634 31.7053 22.4937C31.6354 22.4241 31.5799 22.3413 31.542 22.2502C31.5041 22.159 31.4845 22.0613 31.4844 21.9626V12.2706H33.2125V21.9626C33.2125 22.0613 33.1932 22.1589 33.1554 22.25C33.1177 22.3412 33.0624 22.4239 32.9926 22.4937C32.9229 22.5634 32.84 22.6186 32.7489 22.6563C32.6577 22.6939 32.5606 22.7133 32.462 22.7131Z" fill="white"/>
<path fill-rule="evenodd" clip-rule="evenodd" d="M31.8699 12.6545V21.9625C31.8699 22.1639 32.0338 22.3278 32.2363 22.3278H32.4618C32.5588 22.3278 32.6518 22.2893 32.7205 22.2208C32.7892 22.1524 32.8279 22.0594 32.8282 21.9625V12.6545H31.8699ZM32.4618 23.097H32.2368C32.0877 23.0972 31.94 23.0679 31.8021 23.011C31.6643 22.954 31.539 22.8705 31.4335 22.7652C31.3279 22.6598 31.2442 22.5347 31.187 22.397C31.1298 22.2592 31.1002 22.1116 31.1001 21.9625V12.2705C31.1001 12.1682 31.1407 12.0701 31.2131 11.9977C31.2854 11.9254 31.3835 11.8848 31.4858 11.8848H33.2128C33.3151 11.8848 33.4132 11.9254 33.4855 11.9977C33.5579 12.0701 33.5985 12.1682 33.5985 12.2705V21.9625C33.5978 22.2635 33.4777 22.552 33.2646 22.7647C33.0516 22.9774 32.7628 23.0969 32.4618 23.097Z" fill="#333333"/>
<path fill-rule="evenodd" clip-rule="evenodd" d="M1.3614 22.7131H1.13588C0.936647 22.7133 0.745511 22.6343 0.604482 22.4936C0.463453 22.3528 0.384073 22.1619 0.383789 21.9626V12.2706H2.11242V21.9626C2.11242 22.3772 1.77601 22.7131 1.3614 22.7131Z" fill="white"/>
<path fill-rule="evenodd" clip-rule="evenodd" d="M0.769767 12.6545V21.9625C0.769767 22.1639 0.933148 22.3278 1.13617 22.3278H1.36169C1.45868 22.3278 1.55171 22.2893 1.6204 22.2208C1.68908 22.1524 1.72781 22.0594 1.72809 21.9625V12.6545H0.769767ZM1.36169 23.097H1.13617C0.835073 23.0972 0.546245 22.9777 0.333187 22.765C0.12013 22.5522 0.000284019 22.2636 0 21.9625L0 12.2705C0 12.0573 0.171952 11.8848 0.38408 11.8848H2.11271C2.2149 11.8849 2.31287 11.9256 2.38508 11.9979C2.4573 12.0702 2.49786 12.1683 2.49786 12.2705V21.9625C2.49715 22.2633 2.37724 22.5517 2.16439 22.7643C1.95154 22.977 1.66256 23.0966 1.36169 23.097Z" fill="#333333"/>
<path fill-rule="evenodd" clip-rule="evenodd" d="M0.383789 12.2445H33.2132V8.78943H0.383789V12.2445Z" fill="white"/>
<path fill-rule="evenodd" clip-rule="evenodd" d="M0.769767 11.8592H32.8278V9.17336H0.769767V11.8592ZM33.2135 12.6285H0.38408C0.282346 12.6281 0.184899 12.5875 0.112962 12.5155C0.0410243 12.4436 0.000423016 12.3461 0 12.2444L0 8.79035C-8.85516e-07 8.68834 0.0404132 8.59048 0.112396 8.5182C0.184379 8.44591 0.282068 8.40509 0.38408 8.40466H33.2135C33.3155 8.40509 33.4132 8.44591 33.4852 8.5182C33.5572 8.59048 33.5976 8.68834 33.5976 8.79035V12.2444C33.5972 12.3461 33.5566 12.4436 33.4846 12.5155C33.4127 12.5875 33.3153 12.6281 33.2135 12.6285Z" fill="#333333"/>
<path fill-rule="evenodd" clip-rule="evenodd" d="M18.0814 2.18113H15.5171V1.5185C15.517 1.35269 15.5496 1.1885 15.613 1.03528C15.6764 0.882073 15.7693 0.742846 15.8865 0.625554C16.0037 0.508262 16.1429 0.415201 16.296 0.351685C16.4492 0.288169 16.6133 0.255441 16.7791 0.255371H16.8182C17.1532 0.255655 17.4743 0.388825 17.7111 0.625646C17.9479 0.862466 18.0811 1.18358 18.0814 1.5185V2.18113Z" fill="#FFCC3F"/>
<path fill-rule="evenodd" clip-rule="evenodd" d="M15.7729 1.92415H17.8246V1.51811C17.8243 1.25139 17.7182 0.995672 17.5296 0.807071C17.341 0.618471 17.0853 0.512391 16.8186 0.512107C16.2245 0.512107 15.7729 0.962611 15.7729 1.51811V1.92415ZM18.3383 2.43787H15.2598V1.51811C15.2606 1.11556 15.421 0.729751 15.7057 0.445204C15.9905 0.160657 16.3764 0.000566078 16.7789 0C17.6558 0 18.3378 0.68031 18.3378 1.51811L18.3383 2.43787Z" fill="#333333"/>
<path fill-rule="evenodd" clip-rule="evenodd" d="M17.1191 7.34335V2.18103H16.479V7.34335" fill="#333333"/>
<path fill-rule="evenodd" clip-rule="evenodd" d="M17.1193 7.34424C17.0152 7.31509 16.9076 7.29978 16.7995 7.29871C16.6881 7.29871 16.582 7.31638 16.4792 7.3437C16.2043 7.41424 15.9606 7.5741 15.7865 7.79819C15.6123 8.02227 15.5176 8.29786 15.5171 8.58165H18.0814C18.0808 8.29795 17.986 8.02248 17.8118 7.79851C17.6377 7.57454 17.3941 7.41475 17.1193 7.34424Z" fill="#632DB8"/>
<path fill-rule="evenodd" clip-rule="evenodd" d="M15.8056 8.32458H17.7924C17.7456 8.14785 17.6526 7.98679 17.5228 7.85799C17.3931 7.72918 17.2313 7.63729 17.0543 7.59177C16.8877 7.5397 16.7093 7.5397 16.5427 7.59177C16.3658 7.63746 16.2043 7.72942 16.0748 7.85822C15.9452 7.98701 15.8523 8.14798 15.8056 8.32458ZM18.3383 8.83776H15.2598V8.58063C15.2605 8.24023 15.3742 7.9097 15.583 7.64087C15.7918 7.37205 16.084 7.18012 16.4136 7.0952C16.7002 7.02181 16.8979 7.02181 17.1834 7.0952C17.5132 7.17992 17.8056 7.37176 18.0146 7.6406C18.2236 7.90945 18.3375 8.24009 18.3383 8.58063V8.83776Z" fill="#333333"/>
<path fill-rule="evenodd" clip-rule="evenodd" d="M12.6794 16.4138H4.04053V9.43929C4.0406 8.9838 4.13038 8.53278 4.30476 8.11199C4.47913 7.69119 4.73468 7.30887 5.05681 6.98684C5.37894 6.66481 5.76134 6.40938 6.18219 6.23513C6.60303 6.06089 7.05408 5.97124 7.50957 5.97131H9.21141C9.6669 5.97124 10.1179 6.06089 10.5388 6.23513C10.9596 6.40938 11.342 6.66481 11.6642 6.98684C11.9863 7.30887 12.2418 7.69119 12.4162 8.11199C12.5906 8.53278 12.6804 8.9838 12.6804 9.43929L12.6794 16.4138Z" fill="#FFCC3F"/>
<path fill-rule="evenodd" clip-rule="evenodd" d="M4.42499 16.029H12.2941V9.43855C12.2928 8.62129 11.9675 7.83787 11.3895 7.26008C10.8115 6.68228 10.028 6.35726 9.21072 6.35627H7.50888C6.6913 6.35655 5.90725 6.68131 5.32893 7.25923C4.75062 7.83715 4.42531 8.62097 4.42446 9.43855L4.42499 16.029ZM13.0638 16.7988H3.65576V9.43855C3.65576 7.31459 5.38492 5.58704 7.50888 5.58704H9.21072C11.3357 5.58704 13.0638 7.31459 13.0638 9.43855V16.7988Z" fill="#333333"/>
<path fill-rule="evenodd" clip-rule="evenodd" d="M3.65576 22.713H4.42499V16.4135H3.65576V22.713Z" fill="#333333"/>
<path fill-rule="evenodd" clip-rule="evenodd" d="M12.2944 22.713H13.0637V16.4135H12.2944V22.713Z" fill="#333333"/>
<path fill-rule="evenodd" clip-rule="evenodd" d="M29.5574 16.4138H20.9175V9.43929C20.9176 8.9838 21.0073 8.53278 21.1817 8.11199C21.3561 7.69119 21.6116 7.30887 21.9338 6.98684C22.2559 6.66481 22.6383 6.40938 23.0591 6.23513C23.48 6.06089 23.931 5.97124 24.3865 5.97131H26.0894C27.0092 5.97131 27.8913 6.33669 28.5417 6.98706C29.192 7.63743 29.5574 8.51952 29.5574 9.43929V16.4138Z" fill="#FFCC3F"/>
<path fill-rule="evenodd" clip-rule="evenodd" d="M21.3035 16.029H29.1725V9.43855C29.1717 8.62106 28.8465 7.83732 28.2683 7.25942C27.6901 6.68152 26.9061 6.35669 26.0887 6.35627H24.3868C23.5695 6.35726 22.786 6.68228 22.208 7.26008C21.63 7.83787 21.3047 8.62129 21.3035 9.43855V16.029ZM29.9423 16.7988H20.5337V9.43855C20.5337 7.31459 22.2629 5.58704 24.3868 5.58704H26.0887C28.2142 5.58704 29.9423 7.31459 29.9423 9.43855V16.7988Z" fill="#333333"/>
<path fill-rule="evenodd" clip-rule="evenodd" d="M20.5337 22.713H21.3029V16.4135H20.5337V22.713Z" fill="#333333"/>
<path fill-rule="evenodd" clip-rule="evenodd" d="M29.1724 22.713H29.9416V16.4135H29.1724V22.713Z" fill="#333333"/>
</svg>
