<svg width="17" height="16" viewBox="0 0 17 16" fill="none" xmlns="http://www.w3.org/2000/svg">
<path fill-rule="evenodd" clip-rule="evenodd" d="M0.199707 7.57453H16.1637V5.57861H0.199707V7.57453Z" fill="#FFCC3F"/>
<path fill-rule="evenodd" clip-rule="evenodd" d="M0 7.77365H16.3636V5.37866H0V7.77365ZM0.399351 7.37486H15.9643V5.77829H0.399351V7.37486Z" fill="#333333"/>
<path fill-rule="evenodd" clip-rule="evenodd" d="M2.19629 12.626H14.169V7.57471H2.19629V12.626Z" fill="#632DB8"/>
<path fill-rule="evenodd" clip-rule="evenodd" d="M2.39475 12.4264H13.9695V7.77416H2.39475V12.4264ZM1.99512 12.8257H14.368V7.37481H1.99512V12.8257ZM5.22193 5.64884L4.84734 5.50858L6.34456 1.51758L6.71887 1.65756L5.22193 5.64884Z" fill="#333333"/>
<path fill-rule="evenodd" clip-rule="evenodd" d="M6.35094 2.11497C6.28889 2.0938 6.23163 2.06059 6.18245 2.01724C6.13326 1.97389 6.09312 1.92126 6.06432 1.86236C6.03551 1.80346 6.01862 1.73946 6.01461 1.67402C6.01059 1.60858 6.01953 1.543 6.04092 1.48102L6.36374 0.537328C6.38408 0.474196 6.4168 0.415748 6.45998 0.3654C6.50316 0.315053 6.55594 0.273813 6.61523 0.244092C6.67453 0.21437 6.73915 0.196762 6.80533 0.192295C6.87151 0.187829 6.93791 0.196594 7.00066 0.218079C7.06342 0.239563 7.12126 0.273336 7.17081 0.317425C7.22037 0.361514 7.26064 0.415036 7.28927 0.474863C7.31791 0.53469 7.33434 0.599625 7.3376 0.665873C7.34086 0.732121 7.33089 0.798354 7.30827 0.860705L6.98489 1.80412C6.96377 1.86622 6.9306 1.92353 6.88728 1.97278C6.84395 2.02203 6.79133 2.06223 6.73243 2.09109C6.67352 2.11994 6.6095 2.13688 6.54404 2.14093C6.47857 2.14499 6.41295 2.13635 6.35094 2.11497Z" fill="white"/>
<path fill-rule="evenodd" clip-rule="evenodd" d="M6.41516 1.92579C6.4903 1.95135 6.57251 1.94615 6.64383 1.91133C6.71516 1.8765 6.76981 1.81487 6.79586 1.73989L7.11924 0.795642C7.1454 0.720503 7.14011 0.639241 7.10532 0.567442C7.07924 0.514217 7.03796 0.469922 6.9867 0.440156C6.93545 0.41039 6.87651 0.39649 6.81736 0.400213C6.7582 0.403936 6.70148 0.425116 6.65436 0.461074C6.60724 0.497032 6.57184 0.546153 6.55263 0.602228L6.22926 1.54564C6.20378 1.62075 6.20902 1.70289 6.24385 1.77415C6.27867 1.84541 6.34024 1.89974 6.41516 1.92579ZM6.51172 2.341C6.43506 2.34117 6.35889 2.32866 6.28631 2.30399L6.28575 2.30343C6.11061 2.24333 5.9665 2.11615 5.88509 1.94984C5.80369 1.78353 5.79164 1.5917 5.85161 1.41651L6.17582 0.472265C6.20539 0.385497 6.25181 0.305425 6.31241 0.236653C6.37302 0.16788 6.44662 0.111762 6.52898 0.0715236C6.61127 0.0310975 6.70074 0.00733585 6.79225 0.00160473C6.88376 -0.0041264 6.97549 0.00828583 7.06219 0.0381281C7.14912 0.0676548 7.22934 0.114093 7.29824 0.174768C7.36713 0.235442 7.42334 0.309152 7.46362 0.391649C7.5039 0.474146 7.52745 0.5638 7.53292 0.655442C7.53839 0.747084 7.52567 0.838902 7.49549 0.925605L7.17295 1.86902C7.12569 2.00686 7.03651 2.12647 6.9179 2.2111C6.79928 2.29574 6.65744 2.34116 6.51172 2.341ZM11.1417 5.6488L9.64475 1.65779L10.0191 1.51753L11.5163 5.50854L11.1417 5.6488Z" fill="#333333"/>
<path fill-rule="evenodd" clip-rule="evenodd" d="M10.0131 2.11524C10.0752 2.09407 10.1324 2.06086 10.1816 2.01751C10.2308 1.97416 10.271 1.92153 10.2998 1.86263C10.3286 1.80373 10.3455 1.73973 10.3495 1.67429C10.3535 1.60885 10.3445 1.54327 10.3232 1.48129L10.0003 0.537598C9.95467 0.416011 9.86343 0.317004 9.74596 0.26159C9.6285 0.206176 9.49407 0.198718 9.37119 0.240798C9.24832 0.282878 9.14668 0.371184 9.08785 0.486974C9.02902 0.602764 9.01762 0.736922 9.05609 0.860975L9.37946 1.80439C9.40058 1.86649 9.43375 1.9238 9.47708 1.97305C9.5204 2.0223 9.57303 2.0625 9.63193 2.09136C9.69083 2.12021 9.75485 2.13715 9.82032 2.1412C9.88578 2.14525 9.9514 2.13634 10.0134 2.11496" fill="white"/>
<path fill-rule="evenodd" clip-rule="evenodd" d="M9.5282 0.399609C9.49554 0.399609 9.46317 0.404897 9.43107 0.415472C9.35593 0.441632 9.29415 0.49562 9.25937 0.567698C9.22439 0.638775 9.21889 0.720787 9.24406 0.795898L9.56799 1.74043C9.62143 1.89627 9.79258 1.97864 9.9487 1.92577C10.1054 1.87234 10.1886 1.70146 10.1346 1.54618L9.81178 0.601928C9.79154 0.542772 9.75327 0.491444 9.70236 0.455155C9.65145 0.418867 9.59072 0.399441 9.5282 0.399609ZM9.85269 2.34154C9.70697 2.34169 9.56486 2.29627 9.44624 2.21164C9.32762 2.127 9.23844 2.00739 9.19119 1.86955L8.86753 0.925305C8.83765 0.83857 8.82522 0.746783 8.83095 0.655226C8.83668 0.563668 8.86046 0.474148 8.90093 0.391817C8.94108 0.309299 8.99715 0.23554 9.06593 0.174787C9.13471 0.114034 9.21483 0.0674876 9.30167 0.0378281C9.38832 0.00802378 9.48001 -0.00436897 9.57146 0.00136197C9.66292 0.00709292 9.75234 0.0308343 9.8346 0.0712229C9.9172 0.111469 9.99101 0.167677 10.0518 0.236602C10.1125 0.305528 10.159 0.385805 10.1886 0.4728L10.5128 1.41621C10.5728 1.59151 10.5608 1.78346 10.4794 1.9499C10.398 2.11634 10.2539 2.24369 10.0787 2.30397H10.0781C10.0056 2.32883 9.92938 2.34153 9.85269 2.34154Z" fill="#333333"/>
<path fill-rule="evenodd" clip-rule="evenodd" d="M15.582 10.861C10.6381 7.87691 5.69367 14.1597 0.749512 11.1349V11.1452C1.10026 11.8265 1.47224 12.4967 1.86491 13.1547C1.49283 13.5032 1.12103 13.8071 0.749512 14.0586V14.1098C5.70424 17.1404 10.6595 10.8246 15.6143 13.8552C15.2516 13.1648 14.8661 12.4866 14.4585 11.8217C14.8331 11.4535 15.2071 11.131 15.582 10.861Z" fill="white"/>
<path fill-rule="evenodd" clip-rule="evenodd" d="M1.1178 14.1178C5.81344 16.5632 10.5102 11.0263 15.2067 13.4268C14.9187 12.9077 14.617 12.3963 14.3019 11.8932C14.2463 11.8047 14.2457 11.7053 14.3003 11.6499C14.5793 11.3639 14.8735 11.0931 15.1816 10.8387C10.5016 8.47461 5.82235 13.9639 1.14229 11.5553C1.42326 12.0732 1.71714 12.5839 2.02364 13.087C2.07819 13.1761 2.07819 13.2752 2.02198 13.3292C1.73609 13.6095 1.43409 13.8729 1.11752 14.1181M15.6144 14.0547C10.6594 11.0235 5.70435 17.3405 0.749619 14.309C0.639415 14.2417 0.549805 14.0922 0.549805 13.982V13.9308C0.549805 13.8863 0.563998 13.8535 0.591827 13.8362C0.93218 13.6194 1.27253 13.3581 1.61316 13.0575C1.25456 12.4364 0.913422 11.8054 0.590157 11.1652C0.565562 11.1199 0.551752 11.0696 0.549805 11.0182C0.549805 10.908 0.639415 10.8679 0.749619 10.9353C5.69405 13.9598 10.6379 7.67647 15.5826 10.6614C15.6578 10.7074 15.7265 10.7945 15.7607 10.8841C15.7947 10.9734 15.7872 11.0499 15.7413 11.0803C15.3976 11.3143 15.0539 11.5937 14.7105 11.9126C15.0836 12.5416 15.4376 13.1817 15.7719 13.832C15.8189 13.9233 15.827 14.0101 15.7936 14.0569C15.7599 14.1028 15.6912 14.1014 15.6144 14.0547Z" fill="#333333"/>
</svg>
