<svg width="18" height="18" viewBox="0 0 18 18" fill="none" xmlns="http://www.w3.org/2000/svg">
<path fill-rule="evenodd" clip-rule="evenodd" d="M5.09326 12.1156H8.13993V10.4131H5.09326V12.1156Z" fill="white"/>
<mask id="mask0_4973_1283" style="mask-type:luminance" maskUnits="userSpaceOnUse" x="0" y="0" width="18" height="18">
<path d="M0 0H17.4222V17.4222H0V0Z" fill="white"/>
</mask>
<g mask="url(#mask0_4973_1283)">
<path fill-rule="evenodd" clip-rule="evenodd" d="M5.29321 11.9157H7.94043V10.6121H5.29321V11.9157ZM8.14015 12.3146H5.09349C5.04068 12.3144 4.99008 12.2934 4.95272 12.2561C4.91535 12.2188 4.89426 12.1682 4.89404 12.1154V10.4129C4.89404 10.3599 4.91504 10.3092 4.95242 10.2717C4.98981 10.2342 5.04054 10.213 5.09349 10.2129H8.14015C8.19305 10.2131 8.24371 10.2343 8.28104 10.2718C8.31836 10.3092 8.33932 10.36 8.33932 10.4129V12.1154C8.3391 12.1681 8.31805 12.2187 8.28074 12.256C8.24344 12.2933 8.19291 12.3143 8.14015 12.3146Z" fill="#333333"/>
</g>
<mask id="mask1_4973_1283" style="mask-type:luminance" maskUnits="userSpaceOnUse" x="0" y="0" width="18" height="18">
<path d="M0 0H17.4222V17.4222H0V0Z" fill="white"/>
</mask>
<g mask="url(#mask1_4973_1283)">
<path fill-rule="evenodd" clip-rule="evenodd" d="M9.28174 12.1156H12.3284V10.4131H9.28174V12.1156Z" fill="white"/>
</g>
<mask id="mask2_4973_1283" style="mask-type:luminance" maskUnits="userSpaceOnUse" x="0" y="0" width="18" height="18">
<path d="M0 0H17.4222V17.4222H0V0Z" fill="white"/>
</mask>
<g mask="url(#mask2_4973_1283)">
<path fill-rule="evenodd" clip-rule="evenodd" d="M9.48169 11.9157H12.1278V10.6121H9.48169V11.9157ZM12.3281 12.3146H9.28252C9.22962 12.3146 9.17888 12.2936 9.14139 12.2563C9.10391 12.2189 9.08274 12.1683 9.08252 12.1154V10.4129C9.08252 10.3598 9.10359 10.309 9.1411 10.2715C9.1786 10.234 9.22948 10.2129 9.28252 10.2129H12.3281C12.4381 10.2129 12.5281 10.3029 12.5281 10.4129V12.1154C12.5279 12.1683 12.5067 12.2189 12.4692 12.2563C12.4317 12.2936 12.381 12.3146 12.3281 12.3146Z" fill="#333333"/>
</g>
<mask id="mask3_4973_1283" style="mask-type:luminance" maskUnits="userSpaceOnUse" x="0" y="0" width="18" height="18">
<path d="M0 0H17.4222V17.4222H0V0Z" fill="white"/>
</mask>
<g mask="url(#mask3_4973_1283)">
<path fill-rule="evenodd" clip-rule="evenodd" d="M11.6897 14.2436C11.6897 15.8889 10.3564 17.2228 8.71054 17.2228C7.06582 17.2228 5.73193 15.8889 5.73193 14.2436C5.73193 12.598 7.06582 11.2642 8.71054 11.2642C10.3564 11.2642 11.6897 12.598 11.6897 14.2436Z" fill="#FFCC3F"/>
</g>
<mask id="mask4_4973_1283" style="mask-type:luminance" maskUnits="userSpaceOnUse" x="0" y="0" width="18" height="18">
<path d="M0 0H17.4222V17.4222H0V0Z" fill="white"/>
</mask>
<g mask="url(#mask4_4973_1283)">
<path fill-rule="evenodd" clip-rule="evenodd" d="M8.71075 11.4638C7.17852 11.4638 5.93186 12.7105 5.93186 14.2432C5.93186 15.7763 7.17852 17.023 8.71075 17.023C10.2421 17.023 11.4894 15.7763 11.4894 14.2432C11.4894 12.7102 10.2421 11.4638 8.71075 11.4638ZM8.71075 17.4221C6.95797 17.4221 5.53213 15.9963 5.53213 14.2432C5.53213 12.4905 6.95797 11.0646 8.71075 11.0646C10.4635 11.0646 11.8891 12.4905 11.8891 14.2432C11.8891 15.996 10.4635 17.4221 8.71075 17.4221ZM5.30574 8.91046C5.27474 8.91054 5.24417 8.9032 5.21658 8.88907L2.66297 7.61296C2.61593 7.58897 2.58021 7.54744 2.56352 7.49734C2.54684 7.44724 2.55053 7.39258 2.5738 7.34518C2.58555 7.32169 2.6018 7.30074 2.62165 7.28353C2.64149 7.26632 2.66452 7.25319 2.68944 7.24488C2.71436 7.23658 2.74067 7.23326 2.76687 7.23512C2.79307 7.23698 2.81864 7.24399 2.84213 7.25574L5.39491 8.5324C5.49352 8.58157 5.53325 8.70185 5.4838 8.7999C5.46751 8.8332 5.44217 8.86124 5.41067 8.88079C5.37918 8.90034 5.34281 8.91063 5.30574 8.91046Z" fill="#333333"/>
</g>
<mask id="mask5_4973_1283" style="mask-type:luminance" maskUnits="userSpaceOnUse" x="0" y="0" width="18" height="18">
<path d="M0 0H17.4222V17.4222H0V0Z" fill="white"/>
</mask>
<g mask="url(#mask5_4973_1283)">
<path fill-rule="evenodd" clip-rule="evenodd" d="M4.02924 17.4222C3.97635 17.422 3.92569 17.4008 3.88836 17.3633C3.85103 17.3259 3.83008 17.2751 3.83008 17.2222V8.28528C3.83008 8.23234 3.85111 8.18158 3.88853 8.14415C3.92596 8.10672 3.97673 8.08569 4.02966 8.08569C4.08259 8.08569 4.13336 8.10672 4.17079 8.14415C4.20822 8.18158 4.22924 8.23234 4.22924 8.28528V17.2222C4.22924 17.2753 4.20817 17.3261 4.17067 17.3636C4.13316 17.4011 4.08229 17.4222 4.02924 17.4222Z" fill="#333333"/>
</g>
<mask id="mask6_4973_1283" style="mask-type:luminance" maskUnits="userSpaceOnUse" x="0" y="0" width="18" height="18">
<path d="M0 0H17.4222V17.4222H0V0Z" fill="white"/>
</mask>
<g mask="url(#mask6_4973_1283)">
<path fill-rule="evenodd" clip-rule="evenodd" d="M2.75254 17.4222C2.71954 17.4221 2.68708 17.4138 2.65806 17.3981C2.62904 17.3824 2.60435 17.3598 2.5862 17.3323C2.56805 17.3047 2.557 17.2731 2.55403 17.2402C2.55107 17.2073 2.55628 17.1743 2.5692 17.1439L3.84587 14.1647C3.86116 14.1287 3.88673 14.0979 3.9194 14.0764C3.95206 14.0548 3.99037 14.0433 4.02952 14.0433C4.06868 14.0434 4.10695 14.055 4.13955 14.0767C4.17215 14.0984 4.19763 14.1292 4.21281 14.1653L5.4892 17.1439C5.49997 17.1681 5.50584 17.1941 5.50645 17.2205C5.50706 17.247 5.5024 17.2733 5.49275 17.2979C5.48311 17.3225 5.46866 17.345 5.45025 17.364C5.43185 17.383 5.40985 17.3981 5.38554 17.4085C5.36122 17.4189 5.33509 17.4244 5.30864 17.4246C5.2822 17.4248 5.25598 17.4197 5.2315 17.4097C5.20703 17.3997 5.18479 17.3849 5.16608 17.3662C5.14738 17.3475 5.13257 17.3253 5.12253 17.3008L4.02976 14.75L2.93642 17.3014C2.92098 17.3372 2.8954 17.3678 2.86282 17.3892C2.83025 17.4107 2.7921 17.4222 2.75309 17.4222M12.1156 8.91057C12.0786 8.91068 12.0423 8.90038 12.0108 8.88083C11.9794 8.86128 11.9541 8.83327 11.9378 8.80001C11.926 8.77664 11.919 8.75117 11.917 8.72506C11.9151 8.69895 11.9183 8.67272 11.9266 8.64786C11.9348 8.62301 11.9479 8.60003 11.965 8.58023C11.9821 8.56044 12.003 8.54422 12.0264 8.53251L14.5792 7.25585C14.6027 7.24406 14.6283 7.23702 14.6545 7.23513C14.6808 7.23325 14.7071 7.23656 14.7321 7.24486C14.757 7.25317 14.7801 7.26632 14.7999 7.28355C14.8198 7.30078 14.8361 7.32176 14.8478 7.34529C14.8711 7.39273 14.8747 7.44741 14.858 7.49751C14.8412 7.54762 14.8055 7.58913 14.7584 7.61307L12.2053 8.8889C12.1776 8.90308 12.147 8.91042 12.1159 8.91029" fill="#333333"/>
</g>
<mask id="mask7_4973_1283" style="mask-type:luminance" maskUnits="userSpaceOnUse" x="0" y="0" width="18" height="18">
<path d="M0 0H17.4222V17.4222H0V0Z" fill="white"/>
</mask>
<g mask="url(#mask7_4973_1283)">
<path fill-rule="evenodd" clip-rule="evenodd" d="M13.3929 17.4222C13.3398 17.4222 13.289 17.4011 13.2515 17.3636C13.2139 17.3261 13.1929 17.2753 13.1929 17.2222V8.28528C13.1929 8.23234 13.2139 8.18158 13.2513 8.14415C13.2888 8.10672 13.3395 8.08569 13.3925 8.08569C13.4454 8.08569 13.4962 8.10672 13.5336 8.14415C13.571 8.18158 13.592 8.23234 13.592 8.28528V17.2222C13.592 17.3328 13.5029 17.4222 13.3929 17.4222Z" fill="#333333"/>
</g>
<mask id="mask8_4973_1283" style="mask-type:luminance" maskUnits="userSpaceOnUse" x="0" y="0" width="18" height="18">
<path d="M0 0H17.4222V17.4222H0V0Z" fill="white"/>
</mask>
<g mask="url(#mask8_4973_1283)">
<path fill-rule="evenodd" clip-rule="evenodd" d="M14.6688 17.4224C14.6298 17.4223 14.5917 17.4108 14.5591 17.3894C14.5265 17.3679 14.5009 17.3374 14.4855 17.3015L13.3916 14.7501L12.298 17.301C12.2883 17.3259 12.2737 17.3487 12.2551 17.3679C12.2364 17.387 12.2141 17.4023 12.1895 17.4127C12.1648 17.423 12.1383 17.4283 12.1115 17.4282C12.0848 17.4281 12.0583 17.4226 12.0337 17.4121C12.0091 17.4015 11.9869 17.3862 11.9684 17.3668C11.9499 17.3475 11.9355 17.3247 11.926 17.2996C11.9165 17.2746 11.9122 17.2479 11.9132 17.2212C11.9143 17.1945 11.9207 17.1682 11.9322 17.144L13.2083 14.1654C13.2722 14.0182 13.5116 14.0182 13.5752 14.1649L14.8519 17.144C14.8648 17.1744 14.87 17.2075 14.867 17.2403C14.8641 17.2732 14.853 17.3048 14.8349 17.3324C14.8167 17.3599 14.792 17.3826 14.763 17.3983C14.734 17.414 14.7018 17.4222 14.6688 17.4224Z" fill="#333333"/>
</g>
<mask id="mask9_4973_1283" style="mask-type:luminance" maskUnits="userSpaceOnUse" x="0" y="0" width="18" height="18">
<path d="M0 0H17.4222V17.4222H0V0Z" fill="white"/>
</mask>
<g mask="url(#mask9_4973_1283)">
<path fill-rule="evenodd" clip-rule="evenodd" d="M15.9462 17.2223V8.7112C15.9462 4.71481 12.7067 1.47592 8.71116 1.47592C4.71533 1.47592 1.47644 4.71481 1.47644 8.71092V17.2223H0.199219V8.7112C0.199219 4.00953 4.01033 0.198975 8.71116 0.198975C13.412 0.198975 17.2228 4.00981 17.2228 8.71092V17.2223H15.9462Z" fill="#632DB8"/>
</g>
<mask id="mask10_4973_1283" style="mask-type:luminance" maskUnits="userSpaceOnUse" x="0" y="0" width="18" height="18">
<path d="M0 0H17.4222V17.4222H0V0Z" fill="white"/>
</mask>
<g mask="url(#mask10_4973_1283)">
<path fill-rule="evenodd" clip-rule="evenodd" d="M16.145 17.0231H17.0233V8.71111C17.0233 4.1275 13.2942 0.399167 8.71111 0.399167C4.12778 0.399167 0.398611 4.1275 0.398611 8.71111V17.0231H1.27667V8.71111C1.27667 4.61139 4.61139 1.27667 8.71111 1.27667C12.8103 1.27667 16.145 4.61139 16.145 8.71111V17.0231ZM17.2225 17.4222H15.9458C15.8929 17.4221 15.8422 17.4009 15.8048 17.3634C15.7674 17.326 15.7464 17.2752 15.7464 17.2222V8.71111C15.7464 4.83139 12.5903 1.67583 8.71111 1.67583C4.83194 1.67583 1.67583 4.83139 1.67583 8.71111V17.2222C1.67583 17.3331 1.58667 17.4222 1.47667 17.4222H0.199444C0.146497 17.4221 0.0957693 17.4009 0.0583821 17.3634C0.0209949 17.326 -2.0427e-07 17.2752 0 17.2222L0 8.71111C0 3.9075 3.90694 0 8.71111 0C13.5142 0 17.4222 3.9075 17.4222 8.71111V17.2222C17.4222 17.3331 17.3333 17.4222 17.2225 17.4222Z" fill="#333333"/>
</g>
</svg>
