<svg width="17" height="18" viewBox="0 0 17 18" fill="none" xmlns="http://www.w3.org/2000/svg">
<path fill-rule="evenodd" clip-rule="evenodd" d="M7.04982 4.46484L6.49121 17.4226H9.84121L9.28316 4.46484H7.04982Z" fill="white"/>
<path fill-rule="evenodd" clip-rule="evenodd" d="M7.04982 4.46484L6.49121 17.4226H9.84121L9.28288 4.46484H7.04982ZM7.44066 4.87318H8.8926L9.41538 17.0137H6.91816L7.44066 4.87318Z" fill="#333333"/>
<path fill-rule="evenodd" clip-rule="evenodd" d="M7.27513 1.72091C6.00541 0.572852 4.23708 0.326463 2.74902 0.935352L8.49791 6.13424C8.9618 4.60007 8.54458 2.86924 7.27513 1.72091Z" fill="#FFCC3F"/>
<path fill-rule="evenodd" clip-rule="evenodd" d="M4.39451 0.612556C3.83423 0.612556 3.27451 0.720889 2.74951 0.935333L8.49784 6.13478C8.96173 4.60006 8.54451 2.86978 7.27507 1.72089C6.48626 1.00586 5.45916 0.610672 4.39451 0.612556ZM4.39451 1.02089C5.35779 1.01978 6.287 1.37725 7.00118 2.02367C7.9359 2.86922 8.39062 4.12367 8.24451 5.3545L3.55312 1.11117C3.82945 1.05101 4.11172 1.02074 4.39451 1.02089Z" fill="#333333"/>
<path fill-rule="evenodd" clip-rule="evenodd" d="M11.5449 3.67407C9.83101 3.67407 8.35545 4.67629 7.66406 6.12352H15.4255C14.7346 4.67629 13.2593 3.67407 11.5449 3.67407Z" fill="#FFCC3F"/>
<path fill-rule="evenodd" clip-rule="evenodd" d="M11.5449 3.67407C9.83101 3.67407 8.35545 4.67629 7.66406 6.12352H15.4255C14.7346 4.67629 13.2593 3.67407 11.5449 3.67407ZM11.5449 4.0824C12.8068 4.0824 13.9888 4.70629 14.7116 5.71518H8.37823C9.10073 4.70629 10.2827 4.0824 11.5449 4.0824Z" fill="#333333"/>
<mask id="mask0_4973_2415" style="mask-type:luminance" maskUnits="userSpaceOnUse" x="7" y="0" width="7" height="7">
<path d="M7.84082 0H13.1928V6.09056H7.84082V0Z" fill="white"/>
</mask>
<g mask="url(#mask0_4973_2415)">
<path fill-rule="evenodd" clip-rule="evenodd" d="M8.82526 1.54846C7.7322 2.86512 7.56609 4.63735 8.24387 6.09012L13.1928 0.130957C11.6341 -0.261821 9.91942 0.232068 8.82526 1.54846Z" fill="#FFCC3F"/>
</g>
<mask id="mask1_4973_2415" style="mask-type:luminance" maskUnits="userSpaceOnUse" x="7" y="0" width="7" height="7">
<path d="M7.84033 0H13.1928V6.09056H7.84033V0Z" fill="white"/>
</mask>
<g mask="url(#mask1_4973_2415)">
<path fill-rule="evenodd" clip-rule="evenodd" d="M12.1342 2.38975e-08C10.8983 2.38975e-08 9.67473 0.525833 8.82501 1.54889C7.73195 2.86556 7.56529 4.6375 8.24362 6.09056L13.1928 0.131111C12.8468 0.0439996 12.4913 -3.74509e-05 12.1345 2.38975e-08M12.1345 0.408333C12.2308 0.407963 12.3267 0.411574 12.4222 0.419167L8.38251 5.28306C8.06223 4.08472 8.33445 2.77861 9.13918 1.80972C9.50424 1.36982 9.96204 1.01607 10.4798 0.773793C10.9976 0.531522 11.5625 0.406724 12.1342 0.408333" fill="#333333"/>
</g>
<path fill-rule="evenodd" clip-rule="evenodd" d="M10.4877 2.30002C8.92517 3.00279 7.99378 4.52141 7.96045 6.12307L15.036 2.94168C13.8093 1.90641 12.0504 1.59696 10.4877 2.30002Z" fill="#FFCC3F"/>
<path fill-rule="evenodd" clip-rule="evenodd" d="M12.2474 1.9209C11.6585 1.9209 11.0599 2.04312 10.4877 2.29979C8.92462 3.00257 7.9935 4.52118 7.96045 6.1234L15.0354 2.94173C14.2553 2.28376 13.268 1.92224 12.2474 1.9209ZM12.2474 2.32923C12.9416 2.32923 13.6216 2.51534 14.2168 2.86229L8.44239 5.45951C8.68462 4.24284 9.50434 3.19006 10.6549 2.67229C11.1553 2.44598 11.6982 2.32903 12.2474 2.32923Z" fill="#333333"/>
<path fill-rule="evenodd" clip-rule="evenodd" d="M4.78806 3.67407C3.07417 3.67407 1.59862 4.67629 0.907227 6.12352H8.66889C7.97778 4.67629 6.50195 3.67407 4.78806 3.67407Z" fill="#FFCC3F"/>
<path fill-rule="evenodd" clip-rule="evenodd" d="M4.78806 3.67407C3.07417 3.67407 1.59862 4.67629 0.907227 6.12352H8.66889C7.97778 4.67629 6.50195 3.67407 4.78806 3.67407ZM4.78806 4.0824C6.05 4.0824 7.23195 4.70629 7.95473 5.71518H1.62139C2.34445 4.70629 3.52612 4.0824 4.78806 4.0824Z" fill="#333333"/>
<path fill-rule="evenodd" clip-rule="evenodd" d="M8.38358 6.24228C8.38333 6.38866 8.35424 6.53357 8.29798 6.66871C8.24173 6.80386 8.1594 6.9266 8.05571 7.02993C7.95202 7.13326 7.82899 7.21516 7.69365 7.27094C7.55831 7.32673 7.4133 7.35531 7.26691 7.35505C6.97117 7.35564 6.6873 7.23874 6.47774 7.03007C6.26818 6.82139 6.15008 6.53802 6.14941 6.24228C6.14967 6.09575 6.17879 5.95072 6.2351 5.81545C6.29142 5.68019 6.37383 5.55734 6.47763 5.45393C6.58142 5.35052 6.70458 5.26857 6.84005 5.21276C6.97553 5.15695 7.12067 5.12837 7.26719 5.12866C7.88386 5.12866 8.38358 5.62755 8.38358 6.24228Z" fill="#632DB8"/>
<path fill-rule="evenodd" clip-rule="evenodd" d="M7.26712 5.12891C7.12066 5.12865 6.97559 5.15725 6.84018 5.21306C6.70477 5.26887 6.58168 5.35081 6.47793 5.45419C6.37419 5.55757 6.29183 5.68038 6.23554 5.81559C6.17926 5.9508 6.15016 6.09578 6.1499 6.24224C6.1499 6.85696 6.6499 7.35502 7.26712 7.35502C7.88379 7.35502 8.38379 6.85696 8.38379 6.24224C8.38379 5.62752 7.88379 5.12891 7.26712 5.12891ZM7.26712 5.53724C7.45441 5.53724 7.63407 5.61141 7.76682 5.74353C7.89956 5.87564 7.97458 6.05496 7.97546 6.24224C7.97546 6.63113 7.6574 6.94669 7.26712 6.94669C7.07975 6.94713 6.89986 6.87319 6.76695 6.74112C6.63403 6.60904 6.55897 6.42962 6.55824 6.24224C6.55824 5.85335 6.87629 5.53724 7.26712 5.53724Z" fill="#333333"/>
<path fill-rule="evenodd" clip-rule="evenodd" d="M10.1207 5.57793C10.1204 5.72436 10.0913 5.86929 10.0349 6.00446C9.97865 6.13962 9.89627 6.26238 9.79253 6.36571C9.68878 6.46904 9.5657 6.55092 9.43031 6.60669C9.29492 6.66245 9.14988 6.691 9.00345 6.69071C8.85702 6.69104 8.71195 6.66251 8.57655 6.60676C8.44114 6.55101 8.31805 6.46913 8.2143 6.36579C8.11054 6.26245 8.02817 6.13968 7.97188 6.0045C7.91559 5.86932 7.88649 5.72437 7.88623 5.57793C7.88623 4.96321 8.38623 4.4646 9.00345 4.4646C9.29922 4.46416 9.58306 4.58119 9.79256 4.78996C10.0021 4.99874 10.1201 5.28217 10.1207 5.57793Z" fill="#632DB8"/>
<path fill-rule="evenodd" clip-rule="evenodd" d="M9.00387 4.4646C8.85745 4.46438 8.71242 4.49301 8.57705 4.54884C8.44169 4.60467 8.31865 4.68662 8.21496 4.79C8.11127 4.89338 8.02895 5.01617 7.97272 5.15137C7.91648 5.28656 7.88743 5.43151 7.88721 5.57793C7.88721 6.19266 8.38721 6.69071 9.00387 6.69071C9.1503 6.691 9.29535 6.66245 9.43074 6.60669C9.56613 6.55092 9.68921 6.46904 9.79295 6.36571C9.89669 6.26238 9.97907 6.13962 10.0354 6.00446C10.0917 5.86929 10.1208 5.72436 10.1211 5.57793C10.1205 5.28217 10.0025 4.99874 9.79298 4.78996C9.58348 4.58119 9.29964 4.46416 9.00387 4.4646ZM9.00387 4.87293C9.19126 4.87279 9.37106 4.94689 9.50392 5.07902C9.63679 5.21116 9.71188 5.39055 9.71276 5.57793C9.71276 5.96682 9.39498 6.28238 9.00387 6.28238C8.81657 6.28275 8.63678 6.20877 8.50397 6.07669C8.37117 5.94462 8.2962 5.76523 8.29554 5.57793C8.29554 5.18904 8.61304 4.87293 9.00387 4.87293Z" fill="#333333"/>
<path fill-rule="evenodd" clip-rule="evenodd" d="M13.5153 14.5313H2.8175C1.26083 14.5313 0 13.2694 0 11.7138V11.5155C0 9.95966 1.26111 8.698 2.8175 8.698H13.5153C15.0714 8.698 16.3333 9.95966 16.3333 11.5155V11.7138C16.3333 13.2697 15.0714 14.5313 13.5153 14.5313Z" fill="white"/>
<path fill-rule="evenodd" clip-rule="evenodd" d="M13.5153 8.698H2.8175C1.26083 8.698 0 9.95911 0 11.5161V11.7136C0 13.2697 1.26111 14.5311 2.8175 14.5311H13.5153C15.0714 14.5311 16.3333 13.2697 16.3333 11.7136V11.5161C16.3333 9.95939 15.0714 8.698 13.5153 8.698ZM13.5153 9.10633C14.8436 9.10633 15.925 10.1869 15.925 11.5161V11.7136C15.925 13.0419 14.8436 14.1227 13.5153 14.1227H2.8175C1.48917 14.1227 0.408334 13.0422 0.408334 11.7136V11.5161C0.408334 10.1869 1.48889 9.10633 2.8175 9.10633H13.5153Z" fill="#333333"/>
<path fill-rule="evenodd" clip-rule="evenodd" d="M5.8094 12.4526C5.84023 12.429 5.85995 12.4373 5.85995 12.4679V12.8068C5.62023 13.0112 5.31273 13.1076 4.95078 13.1076C4.11884 13.1076 3.62939 12.5065 3.62939 11.6168C3.62939 10.6884 4.20745 10.1223 4.99689 10.1223C5.33189 10.1223 5.60134 10.1876 5.83662 10.3729V10.727C5.83662 10.7615 5.81301 10.769 5.78662 10.7423C5.58606 10.5229 5.33189 10.4109 5.01995 10.4109C4.44217 10.4109 3.98745 10.8304 3.98745 11.597C3.98745 12.3948 4.35356 12.8109 5.00828 12.8109C5.31662 12.8109 5.58606 12.687 5.8094 12.4526ZM7.18967 10.3998L7.11217 10.6693L6.6969 11.9634H7.68217L7.26689 10.669L7.18967 10.3998ZM7.40134 10.1568L8.39856 13.0723H8.04856L7.7869 12.2404H6.59662L6.33106 13.0723H5.98023L6.97384 10.1568H7.40134ZM10.4838 10.157V10.4456H9.10523V11.3548H10.4294V11.6401H9.10523V13.0726H8.76606V10.157H10.4838ZM12.7036 13.0726H10.9011V10.157H12.7036V10.4456H11.2363V11.3395H12.5997V11.6243H11.2363V12.7795H12.7036V13.0726Z" fill="#632DB8"/>
<path fill-rule="evenodd" clip-rule="evenodd" d="M14.8785 6.69023C14.8115 6.85931 14.7106 7.01289 14.5821 7.14154C14.4535 7.27018 14.3 7.37117 14.131 7.43829C14.1116 7.44492 14.0947 7.45746 14.0828 7.47414C14.0709 7.49083 14.0645 7.51083 14.0645 7.53134C14.0645 7.55186 14.0709 7.57186 14.0828 7.58855C14.0947 7.60523 14.1116 7.61777 14.131 7.6244C14.3 7.69155 14.4534 7.79255 14.5819 7.9212C14.7104 8.04984 14.8113 8.20341 14.8782 8.37246C14.8849 8.3919 14.8976 8.40877 14.9143 8.42071C14.9311 8.43265 14.9511 8.43907 14.9717 8.43907C14.9923 8.43907 15.0123 8.43265 15.0291 8.42071C15.0458 8.40877 15.0585 8.3919 15.0652 8.37246C15.1322 8.20333 15.2332 8.04971 15.3618 7.92106C15.4905 7.79241 15.6441 7.69146 15.8132 7.6244C15.8325 7.61764 15.8492 7.60505 15.861 7.58838C15.8729 7.57171 15.8792 7.55178 15.8792 7.53134C15.8792 7.51091 15.8729 7.49098 15.861 7.47431C15.8492 7.45764 15.8325 7.44505 15.8132 7.43829C15.6443 7.37095 15.4908 7.26989 15.3622 7.14128C15.2336 7.01267 15.1325 6.8592 15.0652 6.69023C15.0584 6.67088 15.0458 6.65412 15.0291 6.64226C15.0123 6.6304 14.9923 6.62402 14.9718 6.62402C14.9513 6.62402 14.9313 6.6304 14.9146 6.64226C14.8979 6.65412 14.8853 6.67088 14.8785 6.69023Z" fill="white"/>
<path fill-rule="evenodd" clip-rule="evenodd" d="M14.4059 7.53135C14.6411 7.66716 14.8365 7.8625 14.9723 8.09774C15.1079 7.86246 15.3032 7.66709 15.5384 7.53135C15.3032 7.39569 15.108 7.20043 14.9723 6.96524C14.8361 7.20014 14.6409 7.39531 14.4059 7.53135ZM14.9723 8.6433C14.8473 8.6433 14.7359 8.56635 14.689 8.4483C14.6322 8.30506 14.5467 8.17494 14.4378 8.06593C14.3289 7.95692 14.1988 7.87133 14.0556 7.81441C13.9984 7.79228 13.9492 7.75344 13.9144 7.70296C13.8796 7.65248 13.8607 7.59268 13.8604 7.53135C13.8604 7.40663 13.9373 7.29524 14.0559 7.2483C14.199 7.1913 14.3289 7.10574 14.4378 6.99685C14.5467 6.88796 14.6322 6.75802 14.6892 6.61496C14.7823 6.37885 15.1612 6.37719 15.2559 6.61496C15.3128 6.7581 15.3983 6.88812 15.5072 6.99702C15.6161 7.10593 15.7461 7.19144 15.8892 7.2483C16.0073 7.29524 16.0834 7.40663 16.0834 7.53163C16.0834 7.65608 16.0073 7.76774 15.889 7.81441C15.7458 7.87127 15.6158 7.95677 15.5069 8.06568C15.398 8.17459 15.3125 8.3046 15.2556 8.44774C15.2335 8.50504 15.1947 8.55434 15.1441 8.58922C15.0936 8.6241 15.0337 8.64295 14.9723 8.6433Z" fill="#333333"/>
</svg>
