<svg width="current" height="current" viewBox="0 0 18 18" fill="none" xmlns="http://www.w3.org/2000/svg">
<path d="M17.6392 17.6388H8.91699V4.55545C8.91699 2.13878 10.8614 0.194336 13.2781 0.194336C15.6948 0.194336 17.6392 2.13878 17.6392 4.55545V17.6388Z" fill="white"/>
<path d="M17.8615 17.8611H8.72266V4.55556C8.72266 2.02778 10.7782 0 13.2782 0C15.7782 0 17.8338 2.05556 17.8338 4.55556V17.8611H17.8615ZM9.11155 17.4444H17.4171V4.55556C17.4171 2.25 15.556 0.388889 13.2504 0.388889C10.9449 0.388889 9.08377 2.25 9.08377 4.55556V17.4444H9.11155Z" fill="#333333"/>
<g opacity="0.2">
<path d="M13.1948 14.0833V11.1111H14.7504V13.5833L16.3893 15.25L15.3059 16.3333L13.1948 14.0833Z" fill="white"/>
<path d="M15.306 16.5556C15.2505 16.5556 15.1949 16.5279 15.1672 16.5001L13.056 14.2501C13.0283 14.2223 13.0005 14.1667 13.0005 14.1112V11.1112C13.0005 11.0001 13.0838 10.9167 13.1949 10.9167H14.7505C14.8616 10.9167 14.9449 11.0001 14.9449 11.1112V13.5001L16.5283 15.0834C16.556 15.1112 16.5838 15.1667 16.5838 15.2223C16.5838 15.2779 16.556 15.3334 16.5283 15.3612L15.4172 16.4723C15.3894 16.5279 15.3616 16.5556 15.306 16.5556ZM13.3894 14.0001L15.306 16.0279L16.1116 15.2223L14.6116 13.7223C14.5838 13.6945 14.556 13.639 14.556 13.5834V11.3056H13.4172V14.0001H13.3894Z" fill="#333333"/>
<path d="M13.1898 16.3389H11.6343V11.1167H13.1898V16.3389Z" fill="white"/>
<path d="M13.1943 16.5556H11.6388C11.5277 16.5556 11.4443 16.4723 11.4443 16.3612V11.1112C11.4443 11.0001 11.5277 10.9167 11.6388 10.9167H13.1943C13.3054 10.9167 13.3888 11.0001 13.3888 11.1112V16.3334C13.3888 16.4445 13.3054 16.5556 13.1943 16.5556ZM11.8332 16.139H12.9721V11.3056H11.8332V16.139Z" fill="#333333"/>
<path d="M14.4444 12.1388C14.7052 12.1388 14.9166 11.9274 14.9166 11.6666C14.9166 11.4058 14.7052 11.1943 14.4444 11.1943C14.1836 11.1943 13.9722 11.4058 13.9722 11.6666C13.9722 11.9274 14.1836 12.1388 14.4444 12.1388Z" fill="white"/>
<path d="M14.4444 12.3611C14.0556 12.3611 13.75 12.0555 13.75 11.6666C13.75 11.2777 14.0556 10.9722 14.4444 10.9722C14.8333 10.9722 15.1389 11.2777 15.1389 11.6666C15.1389 12.0555 14.8056 12.3611 14.4444 12.3611ZM14.4444 11.3888C14.2778 11.3888 14.1667 11.5277 14.1667 11.6666C14.1667 11.8055 14.3056 11.9444 14.4444 11.9444C14.5833 11.9444 14.7222 11.8055 14.7222 11.6666C14.7222 11.5277 14.5833 11.3888 14.4444 11.3888Z" fill="#333333"/>
<path d="M9.86138 9.72236C10.1947 10.0001 10.6669 9.97236 10.9447 9.6668L11.528 9.00013V11.2224H14.5836L14.9447 11.5279L16.4725 9.80569C16.7503 9.47236 16.7225 9.00013 16.4169 8.72236L14.8336 7.25014C14.6669 7.05569 14.4169 6.94458 14.1392 6.94458H12.5003C12.1669 6.94458 11.8614 7.11125 11.6947 7.36125L10.3614 8.83347L8.80583 7.44458L8.13916 8.19458L9.86138 9.72236ZM15.6392 9.30569L15.0558 9.94458V8.77791L15.6392 9.30569Z" fill="#632DB8"/>
<path d="M14.9722 11.75C14.9166 11.75 14.8611 11.7222 14.8333 11.6944L14.5277 11.4167H11.5555C11.4444 11.4167 11.3611 11.3333 11.3611 11.2222V9.55555L11.1388 9.80556C10.7777 10.2222 10.1666 10.25 9.74995 9.88889L8.02772 8.36111C7.99995 8.33333 7.97217 8.27778 7.97217 8.22222C7.97217 8.16667 7.99995 8.11111 8.02772 8.08333L8.69439 7.33333C8.77772 7.25 8.88884 7.25 8.97217 7.30556L10.3888 8.55556L11.5555 7.25C11.7499 6.94444 12.1388 6.75 12.4999 6.75H14.1388C14.4722 6.75 14.7777 6.88889 14.9722 7.11111L16.5833 8.55556C16.9999 8.91667 17.0277 9.52778 16.6666 9.94444L15.1388 11.6667C15.0833 11.7222 15.0277 11.75 14.9722 11.75ZM11.7777 11H14.6388C14.6944 11 14.7499 11.0278 14.7777 11.0556L14.9722 11.25L16.3888 9.66667C16.6111 9.44444 16.5833 9.05555 16.3333 8.86111L14.6944 7.38889C14.5555 7.22222 14.3333 7.13889 14.1388 7.13889H12.4999C12.2499 7.13889 11.9999 7.27778 11.8888 7.47222C11.8888 7.47222 11.8888 7.5 11.8611 7.5L10.5277 8.97222C10.4999 9 10.4444 9.02778 10.3888 9.02778C10.3333 9.02778 10.2777 9 10.2499 8.97222L8.83328 7.72222L8.44439 8.16667L10.0277 9.58333C10.2499 9.80556 10.6111 9.77778 10.8333 9.52778L11.4166 8.86111C11.4722 8.80556 11.5555 8.77778 11.6388 8.80555C11.7222 8.83333 11.7777 8.91667 11.7777 9V11ZM15.0555 10.1667H14.9722C14.8888 10.1389 14.8333 10.0556 14.8333 9.97222V8.80555C14.8333 8.72222 14.8888 8.63889 14.9444 8.61111C15.0277 8.58333 15.1111 8.58333 15.1666 8.63889L15.7499 9.16667C15.7777 9.19444 15.8055 9.25 15.8055 9.30556C15.8055 9.36111 15.7777 9.41667 15.7499 9.44444L15.1666 10.0833C15.1666 10.1389 15.1111 10.1667 15.0555 10.1667ZM15.2499 9.25V9.41667L15.3333 9.33333L15.2499 9.25Z" fill="#333333"/>
<path d="M12.0835 4.4165V6.4165C12.0835 7.02762 12.5835 7.52762 13.1946 7.52762H13.5557C14.1668 7.52762 14.6668 7.02762 14.6668 6.4165V4.4165H12.0835Z" fill="white"/>
<path d="M13.5558 7.72211H13.1947C12.4724 7.72211 11.8613 7.13878 11.8613 6.38878V4.38878C11.8613 4.27767 11.9447 4.19434 12.0558 4.19434H14.6669C14.778 4.19434 14.8613 4.27767 14.8613 4.38878V6.38878C14.8891 7.13878 14.3058 7.72211 13.5558 7.72211ZM12.278 4.611V6.38878C12.278 6.88878 12.6947 7.30545 13.1947 7.30545H13.5558C14.0558 7.30545 14.4724 6.88878 14.4724 6.38878V4.611H12.278Z" fill="#333333"/>
<path d="M12.0832 5.25008C12.2498 5.36119 12.4443 5.44453 12.6665 5.44453C13.0276 5.44453 13.3332 5.25008 13.4721 4.9723C13.6109 5.25008 13.8887 5.44453 14.2221 5.44453C14.3887 5.44453 14.5554 5.38897 14.6943 5.30564C14.9165 5.16675 15.0554 4.91675 15.0554 4.63897C15.0554 4.19453 14.6665 3.83341 14.2221 3.83341C14.1387 3.83341 14.0554 3.86119 13.9721 3.86119C13.8887 3.61119 13.6665 3.41675 13.3609 3.41675C13.1665 3.41675 12.9721 3.50008 12.8609 3.63897C12.7776 3.61119 12.6943 3.61119 12.6109 3.61119C12.0832 3.61119 11.6665 4.02786 11.6665 4.52786C11.6943 4.80564 11.8609 5.08341 12.0832 5.25008Z" fill="#FFCC3F"/>
<path d="M14.2222 5.63884C13.9167 5.63884 13.6389 5.52772 13.4444 5.3055C13.0556 5.66661 12.3889 5.72217 11.9444 5.41661C11.6667 5.19439 11.5 4.88884 11.5 4.52772C11.5 3.91661 12.0278 3.41661 12.6389 3.41661C12.6944 3.41661 12.75 3.41661 12.8056 3.44439C12.9722 3.3055 13.1667 3.22217 13.3611 3.22217C13.6667 3.22217 13.9444 3.38883 14.0833 3.63883H14.1944C14.7778 3.63883 15.25 4.08328 15.25 4.63883C15.25 4.97217 15.0833 5.3055 14.7778 5.47217C14.6389 5.58328 14.4167 5.63884 14.2222 5.63884ZM13.4722 4.77772C13.5556 4.77772 13.6111 4.83328 13.6667 4.88883C13.7778 5.11106 14 5.22217 14.25 5.22217C14.3889 5.22217 14.5 5.19439 14.6111 5.11106C14.7778 4.99995 14.8889 4.8055 14.8889 4.61106C14.8889 4.27772 14.6111 3.99995 14.25 3.99995C14.1944 3.99995 14.1389 3.99995 14.0833 4.02772C13.9722 4.0555 13.8611 3.99995 13.8333 3.88884C13.7778 3.72217 13.6111 3.58328 13.4167 3.58328C13.2778 3.58328 13.1667 3.63884 13.0833 3.74995C13.0278 3.8055 12.9444 3.83328 12.8611 3.8055C12.7778 3.77772 12.7222 3.77772 12.6667 3.77772C12.25 3.77772 11.9167 4.08328 11.9167 4.47217C11.9167 4.69439 12.0278 4.88883 12.1944 5.02772C12.3333 5.11106 12.4722 5.16661 12.6389 5.16661C12.8889 5.16661 13.1389 5.02772 13.2778 4.8055C13.3333 4.8055 13.3889 4.77772 13.4722 4.77772Z" fill="#333333"/>
<path d="M13.0001 5.6665C12.889 5.6665 12.8057 5.74984 12.8057 5.86095C12.8057 5.97206 12.889 6.05539 13.0001 6.05539C13.1112 6.05539 13.1946 5.97206 13.1946 5.86095C13.1946 5.74984 13.1112 5.6665 13.0001 5.6665ZM13.7779 5.6665C13.6668 5.6665 13.5834 5.74984 13.5834 5.86095C13.5834 5.97206 13.6668 6.05539 13.7779 6.05539C13.889 6.05539 13.9723 5.97206 13.9723 5.86095C13.9723 5.74984 13.8612 5.6665 13.7779 5.6665Z" fill="#333333"/>
<path d="M13.3894 6.80539C13.1672 6.80539 13.0005 6.63873 13.0005 6.4165H13.7783C13.7783 6.63873 13.5838 6.80539 13.3894 6.80539Z" fill="white"/>
<path d="M13.7783 6.4165H13.0005C13.0005 6.61095 13.1672 6.80539 13.3894 6.80539C13.6116 6.80539 13.7783 6.63873 13.7783 6.4165Z" fill="#333333"/>
<path d="M11.0276 17.2499H13.1665C13.1942 17.2499 13.222 17.2221 13.222 17.1944V16.3888C13.222 16.361 13.1942 16.3333 13.1665 16.3333H11.8609C11.3887 16.3333 10.9998 16.7221 10.9998 17.1944C10.972 17.2221 10.9998 17.2499 11.0276 17.2499Z" fill="#FFCC3F"/>
<path d="M13.1389 17.4445H11C10.8611 17.4445 10.75 17.3334 10.75 17.1945C10.75 16.6111 11.2222 16.1389 11.8056 16.1389H13.1111C13.25 16.1389 13.3611 16.25 13.3611 16.3889V17.1945C13.3889 17.3334 13.2778 17.4445 13.1389 17.4445ZM11.1944 17.0278H13V16.5278H11.8333C11.5278 16.5556 11.25 16.75 11.1944 17.0278Z" fill="#333333"/>
<path d="M15.5003 17.4166L17.0003 15.9166C17.0281 15.8888 17.0281 15.861 17.0003 15.861L16.417 15.2777C16.3892 15.2499 16.3614 15.2499 16.3614 15.2777L15.417 16.2221C15.0837 16.5554 15.0837 17.111 15.417 17.4443C15.4448 17.4166 15.4725 17.4166 15.5003 17.4166Z" fill="#FFCC3F"/>
<path d="M15.4445 17.6389C15.3889 17.6389 15.3056 17.6111 15.2778 17.5555C14.8612 17.1389 14.8612 16.4722 15.2778 16.0555L16.2223 15.1111C16.3056 15.0278 16.4723 15.0278 16.5834 15.1111L17.1667 15.6944C17.2778 15.8055 17.2778 15.9444 17.1667 16.0555L15.6667 17.5555C15.5834 17.6111 15.5278 17.6389 15.4445 17.6389ZM16.3889 15.5278L15.5556 16.3611C15.3334 16.5833 15.3056 16.9166 15.4723 17.1666L16.7501 15.8889L16.3889 15.5278Z" fill="#333333"/>
</g>
<path d="M4.00011 14.0833V11.1111H2.44455V13.5833L0.805664 15.25L1.889 16.3333L4.00011 14.0833Z" fill="white"/>
<path d="M1.88916 16.5554C1.8336 16.5554 1.77805 16.5277 1.75027 16.4999L0.63916 15.3888C0.555827 15.3054 0.555827 15.1666 0.63916 15.111L2.22249 13.5277V11.1388C2.22249 11.0277 2.30583 10.9443 2.41694 10.9443H3.97249C4.0836 10.9443 4.16694 11.0277 4.16694 11.1388V14.111C4.16694 14.1666 4.13916 14.2221 4.11138 14.2499L2.00027 16.4999C2.00027 16.5277 1.97249 16.5554 1.88916 16.5554ZM1.0836 15.2499L1.88916 16.0554L3.80583 14.0277V11.3332H2.66694V13.611C2.66694 13.6666 2.63916 13.7221 2.61138 13.7499L1.0836 15.2499Z" fill="#333333"/>
<path d="M4 11.1111H5.55556V16.3333H4V11.1111Z" fill="white"/>
<path d="M5.55566 16.5556H4.00011C3.889 16.5556 3.80566 16.4723 3.80566 16.3612V11.1112C3.80566 11.0001 3.889 10.9167 4.00011 10.9167H5.55566C5.66678 10.9167 5.75011 11.0001 5.75011 11.1112V16.3334C5.75011 16.4445 5.66678 16.5556 5.55566 16.5556ZM4.22233 16.139H5.36122V11.3056H4.22233V16.139Z" fill="#333333"/>
<path d="M2.75005 12.1388C3.01086 12.1388 3.22228 11.9274 3.22228 11.6666C3.22228 11.4058 3.01086 11.1943 2.75005 11.1943C2.48925 11.1943 2.27783 11.4058 2.27783 11.6666C2.27783 11.9274 2.48925 12.1388 2.75005 12.1388Z" fill="white"/>
<path d="M2.75011 12.3611C2.36122 12.3611 2.05566 12.0555 2.05566 11.6666C2.05566 11.2777 2.36122 10.9722 2.75011 10.9722C3.139 10.9722 3.44455 11.2777 3.44455 11.6666C3.44455 12.0555 3.139 12.3611 2.75011 12.3611ZM2.75011 11.3888C2.58344 11.3888 2.47233 11.5277 2.47233 11.6666C2.47233 11.8055 2.61122 11.9444 2.75011 11.9444C2.889 11.9444 3.02789 11.8055 3.02789 11.6666C3.02789 11.5277 2.91678 11.3888 2.75011 11.3888Z" fill="#333333"/>
<path d="M8.94488 8.02794C9.20568 8.02794 9.4171 7.81652 9.4171 7.55572C9.4171 7.29492 9.20568 7.0835 8.94488 7.0835C8.68408 7.0835 8.47266 7.29492 8.47266 7.55572C8.47266 7.81652 8.68408 8.02794 8.94488 8.02794Z" fill="white"/>
<path d="M8.94444 8.24997C8.55556 8.24997 8.25 7.94442 8.25 7.55553C8.25 7.16664 8.55556 6.86108 8.94444 6.86108C9.33333 6.86108 9.63889 7.16664 9.63889 7.55553C9.63889 7.94442 9.33333 8.24997 8.94444 8.24997ZM8.94444 7.27775C8.77778 7.27775 8.66667 7.41664 8.66667 7.55553C8.66667 7.69442 8.80556 7.83331 8.94444 7.83331C9.08333 7.83331 9.22222 7.69442 9.22222 7.55553C9.22222 7.41664 9.11111 7.27775 8.94444 7.27775Z" fill="#333333"/>
<path d="M9.0556 8.19458L8.38893 7.44458L6.83337 8.83347L5.50004 7.36125C5.33337 7.11125 5.02782 6.94458 4.69449 6.94458H3.0556C2.77782 6.94458 2.52782 7.05569 2.36115 7.25014L0.722262 8.72236C0.388929 9.00013 0.388929 9.50014 0.666707 9.80569L2.19448 11.5279L2.5556 11.2224H5.61115V9.00013L6.19449 9.6668C6.47226 10.0001 6.97226 10.0001 7.27782 9.72236L9.0556 8.19458ZM2.13893 8.77791V9.94458L1.5556 9.30569L2.13893 8.77791Z" fill="#632DB8"/>
<path d="M2.22235 11.75C2.1668 11.75 2.11124 11.7222 2.08346 11.6944L0.555687 9.97222C0.194576 9.55555 0.222354 8.94444 0.639021 8.58333L2.27791 7.11111C2.47235 6.88889 2.77791 6.75 3.11124 6.75H4.75013C5.13902 6.75 5.50013 6.94444 5.69458 7.25L6.86124 8.55556L8.27791 7.30556C8.36124 7.22222 8.50013 7.25 8.55569 7.33333L9.22235 8.08333C9.25013 8.11111 9.27791 8.16667 9.27791 8.22222C9.27791 8.27778 9.25013 8.33333 9.22235 8.36111L7.50013 9.88889C7.30569 10.0556 7.05569 10.1667 6.77791 10.1389C6.52791 10.1111 6.27791 10 6.11124 9.80556L5.88902 9.55555V11.2222C5.88902 11.3333 5.80569 11.4167 5.69458 11.4167H2.63902L2.33346 11.6944C2.30569 11.7222 2.27791 11.75 2.22235 11.75ZM3.05569 7.13889C2.86124 7.13889 2.63902 7.22222 2.52791 7.38889L0.889021 8.86111C0.666799 9.08333 0.639021 9.44444 0.833465 9.66667L2.25013 11.25L2.44458 11.0556C2.47235 11.0278 2.52791 11 2.58347 11H5.44458V9C5.44458 8.91667 5.50013 8.83333 5.58347 8.80555C5.6668 8.77778 5.75013 8.80556 5.80569 8.86111L6.38902 9.52778C6.61124 9.75 6.97235 9.77778 7.19458 9.58333L8.77791 8.16667L8.36124 7.72222L6.94458 8.97222C6.9168 9 6.86124 9.02778 6.80569 9.02778C6.75013 9.02778 6.69458 9 6.6668 8.97222L5.33347 7.5L5.30569 7.47222C5.1668 7.27778 4.94458 7.13889 4.69458 7.13889H3.05569ZM2.13902 10.1667C2.08347 10.1667 2.02791 10.1389 2.00013 10.1111L1.4168 9.44444C1.38902 9.41667 1.36124 9.36111 1.36124 9.30556C1.36124 9.25 1.38902 9.19444 1.4168 9.16667L2.00013 8.63889C2.05569 8.58333 2.13902 8.58333 2.22235 8.61111C2.30569 8.63889 2.33346 8.72222 2.33346 8.80555V9.97222C2.33346 10.0556 2.27791 10.1389 2.19458 10.1667H2.13902ZM1.86124 9.33333L1.94458 9.41667V9.25L1.86124 9.33333Z" fill="#333333"/>
<path d="M5.11116 4.4165V6.4165C5.11116 7.02762 4.61117 7.52762 4.00005 7.52762H3.63894C3.02783 7.52762 2.52783 7.02762 2.52783 6.4165V4.4165H5.11116Z" fill="white"/>
<path d="M4.00011 7.72211H3.639C2.91678 7.72211 2.30566 7.13878 2.30566 6.38878V4.38878C2.30566 4.27767 2.389 4.19434 2.50011 4.19434H5.11122C5.22233 4.19434 5.30566 4.27767 5.30566 4.38878V6.38878C5.33344 7.13878 4.72233 7.72211 4.00011 7.72211ZM2.72233 4.611V6.38878C2.72233 6.88878 3.139 7.30545 3.639 7.30545H4.00011C4.50011 7.30545 4.91677 6.88878 4.91677 6.38878V4.611H2.72233Z" fill="#333333"/>
<path d="M5.11138 5.25008C4.94472 5.36119 4.75027 5.44453 4.52805 5.44453C4.16694 5.44453 3.86138 5.25008 3.72249 4.9723C3.5836 5.25008 3.30583 5.44453 2.97249 5.44453C2.80583 5.44453 2.63916 5.38897 2.50027 5.30564C2.27805 5.16675 2.13916 4.91675 2.13916 4.63897C2.13916 4.19453 2.52805 3.83341 2.97249 3.83341C3.05583 3.83341 3.13916 3.86119 3.22249 3.86119C3.30583 3.61119 3.52805 3.41675 3.8336 3.41675C4.02805 3.41675 4.22249 3.50008 4.3336 3.63897C4.41694 3.61119 4.50027 3.61119 4.58361 3.61119C5.11138 3.61119 5.52805 4.02786 5.52805 4.52786C5.50027 4.80564 5.3336 5.08341 5.11138 5.25008Z" fill="#FFCC3F"/>
<path d="M4.55588 5.63883C4.25033 5.63883 3.97255 5.52772 3.75033 5.3055C3.55588 5.49995 3.2781 5.63883 2.97255 5.63883C2.7781 5.63883 2.55588 5.58328 2.38921 5.47217C2.08366 5.27772 1.91699 4.97217 1.91699 4.63883C1.91699 4.0555 2.44477 3.5555 3.08366 3.63883C3.22255 3.38883 3.50033 3.22217 3.80588 3.22217C4.0281 3.22217 4.22255 3.3055 4.36144 3.44439C4.41699 3.44439 4.47255 3.41661 4.5281 3.41661C5.16699 3.41661 5.66699 3.91661 5.66699 4.52772C5.66699 4.88883 5.50033 5.19439 5.22255 5.41661C5.0281 5.5555 4.80588 5.63883 4.55588 5.63883ZM3.72255 4.77772C3.80588 4.77772 3.86144 4.8055 3.88922 4.88883C4.0281 5.11106 4.2781 5.24995 4.5281 5.24995C4.69477 5.24995 4.83366 5.19439 4.97255 5.11106C5.16699 4.97217 5.25033 4.77772 5.25033 4.5555C5.25033 4.16661 4.91699 3.86106 4.50033 3.86106C4.44477 3.86106 4.38922 3.86106 4.30588 3.88884C4.22255 3.91661 4.13921 3.88883 4.08366 3.83328C4.00033 3.72217 3.88922 3.66661 3.75033 3.66661C3.55588 3.66661 3.38922 3.77772 3.33366 3.97217C3.30588 4.08328 3.19477 4.13883 3.08366 4.11106C3.0281 4.08328 2.94477 4.08328 2.88921 4.08328C2.5281 4.08328 2.25033 4.36106 2.25033 4.69439C2.25033 4.88883 2.36144 5.08328 2.5281 5.19439C2.63921 5.24995 2.75033 5.3055 2.88921 5.3055C3.13921 5.3055 3.36144 5.16661 3.47255 4.97217C3.58366 4.8055 3.63921 4.77772 3.72255 4.77772ZM4.19477 5.66661C4.08366 5.66661 4.00033 5.74995 4.00033 5.86106C4.00033 5.97217 4.08366 6.0555 4.19477 6.0555C4.30588 6.0555 4.38921 5.97217 4.38921 5.86106C4.38921 5.74995 4.30588 5.66661 4.19477 5.66661ZM3.41699 5.66661C3.30588 5.66661 3.22255 5.74995 3.22255 5.86106C3.22255 5.97217 3.30588 6.0555 3.41699 6.0555C3.5281 6.0555 3.61144 5.97217 3.61144 5.86106C3.61144 5.74995 3.5281 5.66661 3.41699 5.66661Z" fill="#333333"/>
<path d="M3.80588 6.80539C4.0281 6.80539 4.19477 6.63873 4.19477 6.4165H3.41699C3.41699 6.63873 3.61144 6.80539 3.80588 6.80539Z" fill="white"/>
<path d="M4.19477 6.4165H3.41699C3.41699 6.61095 3.58366 6.80539 3.80588 6.80539C4.0281 6.80539 4.19477 6.63873 4.19477 6.4165Z" fill="#333333"/>
<path d="M6.16661 17.2499H4.02772C3.99995 17.2499 3.97217 17.2221 3.97217 17.1944V16.3888C3.97217 16.361 3.99995 16.3333 4.02772 16.3333H5.33328C5.8055 16.3333 6.19439 16.7221 6.19439 17.1944C6.22217 17.2221 6.19439 17.2499 6.16661 17.2499Z" fill="#FFCC3F"/>
<path d="M6.16672 17.4445H4.02783C3.88894 17.4445 3.77783 17.3334 3.77783 17.1945V16.3889C3.77783 16.25 3.88894 16.1389 4.02783 16.1389H5.33339C5.91672 16.1389 6.38894 16.6111 6.38894 17.1945C6.4445 17.3334 6.30561 17.4445 6.16672 17.4445ZM4.22228 17.0278H6.02783C5.9445 16.75 5.6945 16.5278 5.38894 16.5278H4.22228V17.0278Z" fill="#333333"/>
<path d="M1.69466 17.4166L0.194661 15.9166C0.166884 15.8888 0.166884 15.861 0.194661 15.861L0.777995 15.2777C0.805773 15.2499 0.83355 15.2499 0.83355 15.2777L1.77799 16.2221C2.11133 16.5554 2.11133 17.111 1.77799 17.4443C1.75022 17.4166 1.72244 17.4166 1.69466 17.4166Z" fill="#FFCC3F"/>
<path d="M1.75 17.6389C1.69444 17.6389 1.61111 17.6112 1.58333 17.5556L0.0833333 16.0556C-0.0277778 15.9445 -0.0277778 15.8056 0.0833333 15.6945L0.666666 15.1112C0.777777 15.0001 0.916666 15.0001 1.02778 15.1112L1.97222 16.0556C2.38889 16.4723 2.38889 17.1389 1.97222 17.5556C1.86111 17.6112 1.80556 17.6389 1.75 17.6389ZM0.472222 15.8612L1.75 17.1389C1.88889 16.8889 1.86111 16.5556 1.66667 16.3334L0.833333 15.5001L0.472222 15.8612Z" fill="#333333"/>
<path opacity="0.6" d="M16.0835 6.13873L11.0557 11.1665C10.9446 11.2776 10.7779 11.2776 10.6668 11.1665C10.5557 11.0554 10.5557 10.8887 10.6668 10.7776L15.6946 5.74984C15.8057 5.63873 15.9724 5.63873 16.0835 5.74984C16.1946 5.86095 16.1946 6.02762 16.0835 6.13873ZM16.0835 9.33317L11.0557 14.3609C10.9446 14.4721 10.7779 14.4721 10.6668 14.3609C10.5557 14.2498 10.5557 14.0832 10.6668 13.9721L15.6946 8.94428C15.8057 8.83317 15.9724 8.83317 16.0835 8.94428C16.1946 9.05539 16.1946 9.24984 16.0835 9.33317Z" fill="white"/>
</svg>
