<svg width="current" height="current" viewBox="0 0 18 18" fill="none" xmlns="http://www.w3.org/2000/svg">
<path d="M3.40869 14.106L3.72798 6.55615H4.63333L4.92637 14.106H3.40869Z" fill="white"/>
<path d="M4.44681 6.75565L4.73985 13.879H3.62128L3.91431 6.75512L4.44681 6.75565ZM4.81967 6.35815H3.54145L3.22217 14.3049H5.16574L4.81967 6.35815Z" fill="#333333"/>
<path d="M1.43799 4.25754C1.61922 4.20181 1.80767 4.17311 1.99727 4.17236C2.55656 4.17236 3.11585 4.39951 3.51549 4.79701C4.07424 5.33594 4.34049 6.15933 4.23442 6.95379L1.43799 4.25754Z" fill="#FFCC3F"/>
<path d="M1.99701 4.39953C2.50326 4.39953 3.00898 4.59774 3.38184 4.96738C3.59379 5.16814 3.76226 5.41028 3.8768 5.67881C3.99134 5.94734 4.04952 6.23652 4.04773 6.52845L1.83737 4.39953H1.99701ZM1.99701 3.97363C1.67773 3.97363 1.35791 4.03042 1.03809 4.17238L4.34023 7.3797C4.60701 6.44328 4.36701 5.36435 3.64809 4.65506C3.20908 4.21914 2.61568 3.97423 1.99701 3.97363Z" fill="#333333"/>
<path d="M4.23438 7.15237C4.66027 6.47147 5.3792 6.07397 6.12491 6.07397C6.89741 6.07397 7.61634 6.49933 8.01598 7.15237H4.23438Z" fill="#FFCC3F"/>
<path d="M6.12484 6.27282C6.68412 6.27282 7.21662 6.52835 7.61627 6.95371H4.63341C5.03305 6.52835 5.56555 6.27282 6.12484 6.27282ZM6.12484 5.84692C5.13912 5.84692 4.28734 6.47103 3.8877 7.35121H8.36145C7.96234 6.47103 7.11002 5.84692 6.12484 5.84692Z" fill="#333333"/>
<path d="M4.2873 6.9254C4.07462 6.15933 4.23373 5.30754 4.71373 4.68344C4.91668 4.40879 5.1816 4.18593 5.48693 4.03299C5.79226 3.88004 6.12938 3.80133 6.47087 3.80326H6.71087L4.2873 6.9254Z" fill="#FFCC3F"/>
<path d="M6.28423 4.03039L4.3937 6.47163C4.34012 5.87538 4.5003 5.27913 4.84638 4.82538C5.21923 4.3711 5.72495 4.08717 6.28423 4.03039ZM6.47066 3.60503C5.75173 3.60503 5.05959 3.91681 4.55334 4.56931C3.91423 5.36431 3.83441 6.4711 4.20727 7.35128L7.05673 3.68967C6.86626 3.63429 6.66902 3.60616 6.47066 3.60503Z" fill="#333333"/>
<path d="M4.2876 7.0396C4.42099 6.2446 4.89992 5.56317 5.5926 5.22246C5.88219 5.07745 6.20089 4.99997 6.52474 4.99585C6.95063 4.99585 7.37653 5.13781 7.74938 5.36442L4.2876 7.0396Z" fill="#FFCC3F"/>
<path d="M6.52451 5.19442C6.79076 5.19442 7.05701 5.25067 7.29647 5.33585L4.5804 6.64139C4.76683 6.10246 5.16647 5.61978 5.67218 5.39317C5.93843 5.27907 6.23147 5.19389 6.52397 5.19389M6.52397 4.79639C6.1779 4.79639 5.83129 4.88157 5.51147 5.02353C4.60611 5.44889 4.07361 6.38585 4.04736 7.37907L8.12147 5.42049C7.69558 4.99514 7.10951 4.79639 6.52397 4.79639Z" fill="#333333"/>
<path d="M0.319824 7.15237C0.745717 6.47147 1.46465 6.07397 2.21036 6.07397C2.98232 6.07397 3.70179 6.49933 4.10143 7.15237H0.319824Z" fill="#FFCC3F"/>
<path d="M2.23714 6.27282C2.79589 6.27282 3.32893 6.52835 3.72804 6.95371H0.745714C0.932677 6.74199 1.16208 6.57196 1.41902 6.45466C1.67596 6.33735 1.9547 6.2754 2.23714 6.27282ZM2.23714 5.84692C1.25143 5.84692 0.399643 6.47103 0 7.35121H4.47375C4.07411 6.47103 3.22232 5.84692 2.23714 5.84692Z" fill="#333333"/>
<path d="M3.64799 7.91917C3.89817 7.91917 4.10067 7.70274 4.10067 7.43649C4.10067 7.17024 3.89817 6.95435 3.64799 6.95435C3.39781 6.95435 3.19531 7.1697 3.19531 7.43649C3.19531 7.70274 3.39781 7.91917 3.64799 7.91917Z" fill="#632DB8"/>
<path d="M3.64838 7.18078C3.78178 7.18078 3.88838 7.29435 3.88838 7.43631C3.88838 7.57828 3.78124 7.69185 3.64838 7.69185C3.51553 7.69185 3.40892 7.57828 3.40892 7.43631C3.40892 7.29435 3.51553 7.18078 3.64838 7.18078ZM3.64838 6.75488C3.30231 6.75488 3.00928 7.0672 3.00928 7.43631C3.00928 7.80542 3.30231 8.1172 3.64838 8.1172C3.99446 8.1172 4.28749 7.80542 4.28749 7.43631C4.28749 7.0672 4.02124 6.75488 3.64838 6.75488Z" fill="#333333"/>
<path d="M4.6602 7.52151C4.91038 7.52151 5.11288 7.30562 5.11288 7.03937C5.11288 6.77258 4.91038 6.55615 4.6602 6.55615C4.41002 6.55615 4.20752 6.77258 4.20752 7.03883C4.20752 7.30562 4.41002 7.52097 4.6602 7.52097" fill="#632DB8"/>
<path d="M4.66069 6.75546C4.79354 6.75546 4.89962 6.86849 4.89962 7.01046C4.89962 7.15242 4.79354 7.26599 4.66015 7.26599C4.52729 7.26599 4.42069 7.15242 4.42069 7.01046C4.42069 6.86849 4.52729 6.75492 4.66015 6.75492M4.66015 6.35742C4.31354 6.35742 4.02051 6.66921 4.02051 7.03831C4.02051 7.40742 4.31354 7.71974 4.65962 7.71974C5.00569 7.71974 5.29872 7.40742 5.29872 7.03831C5.29872 6.66921 5.00622 6.35742 4.66015 6.35742Z" fill="#333333"/>
<path d="M16.9369 16.9159H7.48317L3.83496 9.50806H13.2887L16.9369 16.9159Z" fill="#632DB8"/>
<path d="M16.937 17.1431H7.48322C7.4034 17.1431 7.35036 17.0864 7.29679 17.0296L3.67536 9.59386C3.6621 9.56232 3.65527 9.52844 3.65527 9.49422C3.65527 9.46 3.6621 9.42612 3.67536 9.39458C3.70215 9.33779 3.78197 9.28101 3.83501 9.28101H13.2888C13.3686 9.28101 13.4216 9.33779 13.4752 9.39458L17.1234 16.8308C17.1502 16.8876 17.1502 16.9728 17.1234 17.0296C17.0698 17.0864 17.0163 17.1431 16.937 17.1431ZM7.58983 16.7173H16.5904L13.1827 9.70744H4.15483L7.58983 16.7173Z" fill="#333333"/>
<path d="M3.83481 9.50806L0.213379 16.9159H7.48302L3.83481 9.50806Z" fill="white"/>
<path d="M7.48289 17.1431H0.213248C0.132891 17.1431 0.0798551 17.1147 0.0530694 17.0296C0.0399557 16.9982 0.0332031 16.9645 0.0332031 16.9305C0.0332031 16.8964 0.0399557 16.8627 0.0530694 16.8313L3.70128 9.39456C3.78164 9.25259 3.99432 9.25259 4.04789 9.39456L7.64253 16.8308C7.65572 16.8623 7.66251 16.8961 7.66251 16.9302C7.66251 16.9643 7.65572 16.9981 7.64253 17.0296C7.61575 17.0863 7.53646 17.1431 7.48289 17.1431ZM0.532534 16.7172H7.1636L3.83468 9.96188L0.532534 16.7172Z" fill="#333333"/>
<path d="M3.83438 17.1428C3.72777 17.1428 3.64795 17.0577 3.64795 16.9446V9.5073C3.64795 9.39372 3.72831 9.30908 3.83438 9.30908C3.94099 9.30908 4.02081 9.39372 4.02081 9.5073V16.9446C4.04759 17.0298 3.94045 17.1428 3.83438 17.1428Z" fill="#333333"/>
<path d="M8.60132 11.5805C6.97704 11.5805 5.40579 11.0694 4.04775 10.1046C3.96739 10.0478 3.94061 9.90636 3.99418 9.82065C4.04775 9.73547 4.18061 9.70708 4.26043 9.76386C5.53864 10.6719 7.03007 11.1835 8.57454 11.1835C10.2792 11.1835 11.9035 10.5873 13.2615 9.50833C13.3413 9.45154 13.4747 9.45154 13.5278 9.53672C13.5813 9.62243 13.5813 9.76386 13.501 9.82065C12.1246 10.9636 10.3904 11.5865 8.60132 11.5805Z" fill="#333333"/>
<path d="M4.20789 10.3599C4.39914 10.3599 4.55396 10.1944 4.55396 9.99079C4.55396 9.78722 4.3986 9.62168 4.20789 9.62168C4.01717 9.62168 3.86182 9.78722 3.86182 9.99079C3.86182 10.1944 4.01664 10.3599 4.20789 10.3599ZM5.83217 11.4378C6.02342 11.4378 6.17824 11.2733 6.17824 11.0692C6.17824 10.8651 6.02342 10.7001 5.83217 10.7001C5.64092 10.7001 5.4861 10.8656 5.4861 11.0697C5.4861 11.2738 5.64146 11.4383 5.83217 11.4383M7.80307 11.8642C7.99378 11.8642 8.14914 11.6986 8.14914 11.4945C8.14914 11.2904 7.99378 11.126 7.80307 11.126C7.61235 11.126 7.45646 11.2915 7.45646 11.4951C7.45646 11.6986 7.61182 11.8642 7.80253 11.8642M9.85324 11.8642C10.0445 11.8642 10.1993 11.6986 10.1993 11.4945C10.1993 11.2904 10.0445 11.126 9.85324 11.126C9.66199 11.126 9.50717 11.2915 9.50717 11.4951C9.50717 11.6986 9.66253 11.8642 9.85324 11.8642ZM11.6377 11.2963C11.829 11.2963 11.9838 11.1313 11.9838 10.9272C11.9838 10.7231 11.8284 10.5586 11.6377 10.5586C11.447 10.5586 11.2911 10.7236 11.2911 10.9272C11.2911 11.1308 11.4465 11.2963 11.6377 11.2963ZM13.1822 10.4735C13.3734 10.4735 13.5282 10.3079 13.5282 10.1038C13.5282 9.89972 13.3729 9.73526 13.1822 9.73526C12.9915 9.73526 12.8356 9.90025 12.8356 10.1044C12.8356 10.3085 12.9909 10.4735 13.1822 10.4735ZM14.0731 4.5699C14.882 4.5699 15.5377 3.87079 15.5377 3.00883C15.5377 2.14686 14.882 1.44775 14.0731 1.44775C13.2641 1.44775 12.6084 2.14686 12.6084 3.00883C12.6084 3.87079 13.2641 4.5699 14.0731 4.5699Z" fill="#FFCC3F"/>
<path d="M14.0732 4.76786C13.1411 4.76786 12.3948 3.97339 12.3948 2.98018C12.3948 1.98696 13.1405 1.19196 14.0727 1.19196C15.0048 1.19196 15.7505 1.98696 15.7505 2.98018C15.7505 3.97339 14.978 4.76839 14.0727 4.76839M14.0727 1.64679C13.38 1.64679 12.7939 2.2425 12.7939 3.00911C12.7939 3.74679 13.3532 4.37143 14.0721 4.37143C14.7648 4.37143 15.3504 3.77518 15.3504 3.00911C15.3236 2.24304 14.7654 1.64679 14.0727 1.64679ZM14.0732 0.851786C13.9661 0.851786 13.8863 0.766071 13.8863 0.653036V0.19875C13.8863 0.0851787 13.9666 0 14.0727 0C14.1793 0 14.2591 0.0851785 14.2591 0.198214V0.653036C14.2591 0.766607 14.1788 0.85125 14.0727 0.85125M14.0732 5.98875C13.9661 5.98875 13.8863 5.90304 13.8863 5.79V5.33571C13.8863 5.22214 13.9666 5.1375 14.0727 5.1375C14.1793 5.1375 14.2591 5.22214 14.2591 5.33571V5.79C14.2591 5.90357 14.1788 5.98821 14.0727 5.98821M15.6171 1.56107C15.5673 1.55953 15.5198 1.53926 15.4843 1.50429C15.4039 1.41911 15.4039 1.27714 15.4843 1.22036L15.7768 0.908036C15.8571 0.822857 15.99 0.822857 16.0436 0.908036C16.1234 0.99375 16.1234 1.13518 16.0436 1.19196L15.7505 1.47589C15.739 1.50152 15.7202 1.52322 15.6965 1.53834C15.6728 1.55347 15.6452 1.56137 15.6171 1.56107ZM12.2089 5.16536C12.1588 5.16423 12.1109 5.14413 12.075 5.10911C11.9957 5.02339 11.9957 4.88196 12.075 4.82518L12.3686 4.51286C12.4484 4.42768 12.5812 4.42768 12.6348 4.51286C12.7146 4.59804 12.7146 4.74 12.6348 4.79679L12.3418 5.10857C12.315 5.16536 12.2614 5.16536 12.2089 5.16536ZM16.6821 3.20732H16.2563C16.1496 3.20732 16.0698 3.12161 16.0698 3.00857C16.0698 2.895 16.1502 2.80982 16.2563 2.80982H16.6827C16.7893 2.80982 16.8691 2.895 16.8691 3.00804C16.8691 3.12214 16.7882 3.20732 16.6821 3.20732ZM11.8623 3.20732H11.4364C11.3298 3.20732 11.25 3.12161 11.25 3.00857C11.25 2.895 11.3304 2.80982 11.4364 2.80982H11.8623C11.9695 2.80982 12.0488 2.895 12.0488 3.00804C12.0488 3.12214 11.9689 3.20732 11.8623 3.20732ZM15.9107 5.16536C15.8606 5.16423 15.8127 5.14413 15.7768 5.10911L15.4843 4.79679C15.4039 4.71107 15.4039 4.56964 15.4843 4.51286C15.5641 4.42768 15.697 4.42768 15.7505 4.51286L16.0436 4.82518C16.1234 4.91036 16.1234 5.05179 16.0436 5.10911C16.0168 5.16536 15.9638 5.16536 15.9107 5.16536ZM12.5282 1.56107C12.4782 1.55967 12.4305 1.53938 12.3948 1.50429L12.1023 1.19196C12.022 1.10679 12.022 0.964821 12.1023 0.908036C12.1821 0.822857 12.315 0.822857 12.3686 0.908036L12.6616 1.22036C12.7414 1.30607 12.7414 1.4475 12.6616 1.50429C12.608 1.53268 12.5545 1.56107 12.5277 1.56107" fill="#333333"/>
</svg>
