<svg width="24" height="24" viewBox="0 0 24 24" fill="none" xmlns="http://www.w3.org/2000/svg">
<path d="M7.64551 4C7.55118 4.3169 7.5 4.65246 7.5 5C7.5 5.34754 7.55118 5.6831 7.64551 6H2C1.44772 6 1 5.55228 1 5C1 4.44772 1.44772 4 2 4H7.64551ZM22 4C22.5523 4 23 4.44772 23 5C23 5.55228 22.5523 6 22 6H14.3545C14.4488 5.6831 14.5 5.34754 14.5 5C14.5 4.65246 14.4488 4.3169 14.3545 4H22Z" fill="#704DE4"/>
<circle cx="11" cy="5" r="2.5" stroke="#704DE4" stroke-width="2"/>
<path d="M11.7812 11C11.6869 11.3169 11.6357 11.6525 11.6357 12C11.6357 12.3475 11.6869 12.6831 11.7812 13H2C1.44772 13 1 12.5523 1 12C1 11.4477 1.44772 11 2 11H11.7812Z" fill="#704DE4"/>
<path d="M22 11C22.5523 11 23 11.4477 23 12C23 12.5523 22.5523 13 22 13H18.4902C18.5846 12.6831 18.6357 12.3475 18.6357 12C18.6357 11.6525 18.5846 11.3169 18.4902 11H22Z" fill="#704DE4"/>
<path d="M17.6357 12C17.6357 13.3807 16.5165 14.5 15.1357 14.5C13.755 14.5 12.6357 13.3807 12.6357 12C12.6357 10.6193 13.755 9.5 15.1357 9.5C16.5165 9.5 17.6357 10.6193 17.6357 12Z" stroke="#704DE4" stroke-width="2"/>
<path d="M2.64551 17.5C2.55118 17.8169 2.5 18.1525 2.5 18.5C2.5 18.8475 2.55118 19.1831 2.64551 19.5H2C1.44772 19.5 1 19.0523 1 18.5C1 17.9477 1.44772 17.5 2 17.5H2.64551Z" fill="#704DE4"/>
<path d="M22 17.5C22.5523 17.5 23 17.9477 23 18.5C23 19.0523 22.5523 19.5 22 19.5H9.35449C9.44882 19.1831 9.5 18.8475 9.5 18.5C9.5 18.1525 9.44882 17.8169 9.35449 17.5H22Z" fill="#704DE4"/>
<path d="M8.5 18.5C8.5 19.8807 7.38071 21 6 21C4.61929 21 3.5 19.8807 3.5 18.5C3.5 17.1193 4.61929 16 6 16C7.38071 16 8.5 17.1193 8.5 18.5Z" stroke="#704DE4" stroke-width="2"/>
</svg>
