<svg width="12" height="18" viewBox="0 0 12 18" fill="none" xmlns="http://www.w3.org/2000/svg">
<path fill-rule="evenodd" clip-rule="evenodd" d="M9.68143 17.2548H2.3189C2.04038 17.2549 1.76456 17.2001 1.50722 17.0936C1.24987 16.987 1.01603 16.8308 0.819059 16.6339C0.622084 16.437 0.465833 16.2032 0.359228 15.9459C0.252624 15.6885 0.197754 15.4127 0.197754 15.1342V5.58153C0.197754 5.303 0.252624 5.0272 0.359228 4.76989C0.465833 4.51257 0.622084 4.27877 0.819059 4.08185C1.01603 3.88492 1.24987 3.72874 1.50722 3.6222C1.76456 3.51566 2.04038 3.46086 2.3189 3.46094H9.68143C10.2438 3.46094 10.7832 3.68436 11.1809 4.08204C11.5786 4.47973 11.802 5.01911 11.802 5.58153V15.1342C11.802 15.6966 11.5786 16.236 11.1809 16.6337C10.7832 17.0314 10.2438 17.2548 9.68143 17.2548Z" fill="white"/>
<path fill-rule="evenodd" clip-rule="evenodd" d="M2.30788 3.66068C1.25343 3.66068 0.395455 4.52729 0.395455 5.59259V15.1225C0.395455 16.1878 1.25343 17.0544 2.30788 17.0544H9.69211C10.7466 17.0544 11.6045 16.1878 11.6045 15.1225V5.59259C11.6045 4.52729 10.7466 3.66068 9.69211 3.66068H2.30788ZM9.69211 17.4546H2.30788C1.03525 17.4546 0 16.409 0 15.1227V5.59259C0 4.30688 1.03525 3.2605 2.30788 3.2605H9.69211C10.9647 3.2605 12 4.30688 12 5.59259V15.1225C12 16.4087 10.9647 17.4546 9.69211 17.4546Z" fill="#333333"/>
<path fill-rule="evenodd" clip-rule="evenodd" d="M9.60746 9.73774C9.60737 9.42166 9.52704 9.11078 9.37401 8.83422C9.22098 8.55765 9.00026 8.32446 8.73251 8.15648C8.5096 7.37281 7.78993 6.79785 6.93529 6.79785C6.61091 6.79754 6.29213 6.88237 6.0108 7.04386C5.77018 6.88338 5.48741 6.79778 5.19819 6.79785C4.91947 6.79799 4.64654 6.87739 4.41124 7.02679C4.17595 7.1762 3.988 7.38944 3.86934 7.64164C3.45119 7.7319 3.07654 7.96258 2.8077 8.29532C2.53885 8.62806 2.39201 9.0428 2.3916 9.47058C2.39185 9.93572 2.56595 10.384 2.87973 10.7274C2.66854 11.1233 2.6067 11.5819 2.70547 12.0196C2.80424 12.4573 3.05705 12.8449 3.41779 13.1117C3.77852 13.3786 4.22316 13.5069 4.6706 13.4732C5.11804 13.4395 5.53848 13.2462 5.85524 12.9284C6.26655 13.2839 6.79211 13.4794 7.33576 13.4791C7.6341 13.4791 7.92953 13.4203 8.20517 13.3062C8.4808 13.192 8.73124 13.0246 8.94219 12.8136C9.15315 12.6027 9.32047 12.3522 9.43462 12.0766C9.54877 11.8009 9.6075 11.5055 9.60746 11.2071C9.60716 10.9447 9.56101 10.6842 9.4711 10.4376C9.56116 10.2153 9.60746 9.97764 9.60746 9.73774Z" fill="#FFCC3F"/>
<path fill-rule="evenodd" clip-rule="evenodd" d="M5.8559 12.7284C5.9038 12.7284 5.9501 12.7456 5.98642 12.7768C6.36165 13.1003 6.84044 13.2786 7.33587 13.2792C8.47854 13.2792 9.40804 12.3497 9.40804 11.2075C9.40804 10.9713 9.36601 10.7345 9.28281 10.5057C9.26556 10.4594 9.26655 10.4083 9.28559 10.3627C9.43321 9.99973 9.44805 9.59637 9.32751 9.22358C9.20696 8.85079 8.95875 8.53248 8.62659 8.32471C8.58451 8.29894 8.55378 8.25816 8.5406 8.21061C8.44023 7.86202 8.22953 7.55539 7.94011 7.33671C7.65068 7.11804 7.29815 6.99912 6.9354 6.99781C6.64586 6.99845 6.36141 7.074 6.10971 7.2171C6.07763 7.23534 6.04114 7.24437 6.00427 7.24319C5.96739 7.24201 5.93155 7.23067 5.90071 7.21042C5.69261 7.07172 5.4481 6.99773 5.19802 6.99781C4.95739 6.99872 4.72193 7.06773 4.51888 7.19686C4.31583 7.32599 4.15349 7.50996 4.05061 7.72749C4.03743 7.75515 4.01809 7.77941 3.99406 7.79842C3.97004 7.81743 3.94197 7.83067 3.91202 7.83714C3.14727 8.00078 2.59208 8.6876 2.59208 9.47072C2.59208 9.88538 2.74681 10.2833 3.02789 10.5928C3.05549 10.6234 3.073 10.6617 3.07803 10.7026C3.08306 10.7435 3.07536 10.7849 3.05599 10.8213C2.92667 11.0635 2.85909 11.334 2.85924 11.6086C2.85976 12.0515 3.03593 12.4761 3.34912 12.7893C3.6623 13.1025 4.08692 13.2786 4.52984 13.2792C4.75001 13.2797 4.9681 13.2365 5.17144 13.152C5.37477 13.0676 5.55928 12.9435 5.71425 12.7871C5.73288 12.7685 5.75501 12.7537 5.77937 12.7436C5.80372 12.7336 5.82955 12.7284 5.8559 12.7284ZM7.33587 13.6791C6.80598 13.6786 6.29031 13.5077 5.86509 13.1915C5.49198 13.5074 5.01868 13.6802 4.52984 13.6791C3.38828 13.6791 2.45933 12.7501 2.45933 11.6086C2.45981 11.3148 2.52231 11.0244 2.64273 10.7564C2.35093 10.3914 2.19194 9.93803 2.19189 9.47072C2.19189 8.53315 2.83475 7.70634 3.73364 7.46896C3.87774 7.20626 4.08954 6.98693 4.34705 6.83375C4.60457 6.68057 4.89839 6.59914 5.19802 6.5979C5.48533 6.5976 5.76781 6.67182 6.01787 6.8133C6.30295 6.67154 6.61702 6.59781 6.9354 6.5979C7.37216 6.5994 7.79735 6.73843 8.15063 6.99524C8.5039 7.25206 8.76732 7.61362 8.90349 8.02861C9.18258 8.21765 9.411 8.47231 9.5687 8.77023C9.72639 9.06816 9.80855 9.40024 9.80794 9.73733C9.80794 9.97805 9.76564 10.2149 9.68382 10.4414C9.76511 10.6887 9.8069 10.9472 9.80766 11.2075C9.80766 12.5701 8.69895 13.6791 7.33587 13.6791Z" fill="#333333"/>
<path fill-rule="evenodd" clip-rule="evenodd" d="M5.7419 9.06055C5.60425 9.34361 5.38977 9.58225 5.12296 9.74922C4.85614 9.91619 4.54774 10.0048 4.23299 10.0048C3.99644 10.0048 3.77158 9.95025 3.56787 9.86259V11.79C3.56787 12.965 4.50099 13.9173 5.65229 13.9173H6.34718C7.49932 13.9173 8.43299 12.7833 8.43299 11.608V9.2047C8.26528 9.37323 8.06599 9.50705 7.84653 9.59849C7.62706 9.68994 7.39171 9.73722 7.15396 9.73763C6.5829 9.73763 6.07418 9.47326 5.7419 9.06055Z" fill="white"/>
<path fill-rule="evenodd" clip-rule="evenodd" d="M3.76724 10.1429V11.7901C3.76724 12.8532 4.61325 13.7178 5.65295 13.7178H6.34729C7.35193 13.7178 8.23356 12.7321 8.23356 11.6084V9.62053C7.48301 10.1028 6.42633 10.0029 5.77902 9.39372C5.34432 10.0263 4.54117 10.3485 3.76724 10.1429ZM6.34729 14.1177H5.65295C4.39228 14.1177 3.36816 13.0739 3.36816 11.7904V9.86265C3.36809 9.82955 3.37625 9.79695 3.39191 9.76779C3.40756 9.73863 3.43023 9.71382 3.45786 9.6956C3.4855 9.67739 3.51723 9.66633 3.5502 9.66342C3.58317 9.66052 3.61634 9.66586 3.64674 9.67897C4.40091 10.0057 5.22466 9.66311 5.56251 8.97322C5.5773 8.94309 5.59942 8.91716 5.62684 8.89781C5.65427 8.87845 5.68612 8.8663 5.71946 8.86246C5.78904 8.85634 5.85471 8.88194 5.89729 8.93537C6.0481 9.1236 6.2393 9.2755 6.45675 9.37984C6.67419 9.48418 6.91232 9.53829 7.15351 9.53816C7.36514 9.53798 7.57464 9.49596 7.76998 9.41453C7.96532 9.3331 8.14263 9.21386 8.29173 9.06367C8.31963 9.03565 8.35524 9.01655 8.39402 9.00881C8.4328 9.00106 8.47301 9.00502 8.50953 9.02016C8.54606 9.03531 8.57727 9.06097 8.59919 9.09389C8.6211 9.12681 8.63275 9.16549 8.63263 9.20504V11.6087C8.63263 12.945 7.56482 14.1177 6.34729 14.1177Z" fill="#333333"/>
<path fill-rule="evenodd" clip-rule="evenodd" d="M6.77498 10.5396C6.72795 10.5396 6.68137 10.5488 6.63792 10.5668C6.59446 10.5848 6.55498 10.6112 6.52172 10.6445C6.48846 10.6777 6.46208 10.7172 6.44408 10.7607C6.42608 10.8041 6.41682 10.8507 6.41682 10.8977C6.41682 10.9447 6.42608 10.9913 6.44408 11.0348C6.46208 11.0782 6.48846 11.1177 6.52172 11.151C6.55498 11.1842 6.59446 11.2106 6.63792 11.2286C6.68137 11.2466 6.72795 11.2559 6.77498 11.2559C6.86997 11.2559 6.96107 11.2181 7.02824 11.151C7.09541 11.0838 7.13314 10.9927 7.13314 10.8977C7.13314 10.8027 7.09541 10.7116 7.02824 10.6445C6.96107 10.5773 6.86997 10.5396 6.77498 10.5396ZM5.34205 10.5396C5.29501 10.5396 5.24844 10.5488 5.20499 10.5668C5.16153 10.5848 5.12205 10.6112 5.08879 10.6445C5.05553 10.6777 5.02915 10.7172 5.01115 10.7607C4.99315 10.8041 4.98389 10.8507 4.98389 10.8977C4.98389 10.9447 4.99315 10.9913 5.01115 11.0348C5.02915 11.0782 5.05553 11.1177 5.08879 11.151C5.12205 11.1842 5.16153 11.2106 5.20499 11.2286C5.24844 11.2466 5.29501 11.2559 5.34205 11.2559C5.43704 11.2559 5.52814 11.2181 5.59531 11.151C5.66248 11.0838 5.70021 10.9927 5.70021 10.8977C5.70021 10.8027 5.66248 10.7116 5.59531 10.6445C5.52814 10.5773 5.43704 10.5396 5.34205 10.5396Z" fill="#333333"/>
<path fill-rule="evenodd" clip-rule="evenodd" d="M6.05882 12.6885C6.24876 12.6885 6.43091 12.613 6.56524 12.4788C6.69957 12.3445 6.77508 12.1623 6.77515 11.9724H5.34277C5.34285 12.1623 5.41835 12.3445 5.55268 12.4788C5.68701 12.613 5.86889 12.6885 6.05882 12.6885Z" fill="white"/>
<path fill-rule="evenodd" clip-rule="evenodd" d="M6.77503 11.9721H5.3421C5.3421 12.0662 5.36064 12.1593 5.39666 12.2462C5.43268 12.3331 5.48547 12.4121 5.55202 12.4786C5.61857 12.5451 5.69757 12.5978 5.78451 12.6338C5.87145 12.6697 5.96462 12.6882 6.0587 12.6881C6.15276 12.6882 6.2459 12.6697 6.33281 12.6337C6.41971 12.5977 6.49868 12.545 6.5652 12.4785C6.63173 12.412 6.68449 12.3331 6.7205 12.2462C6.7565 12.1593 6.77503 12.0661 6.77503 11.9721ZM2.5138 3.5963L2.27002 3.27877L5.99998 0.4104L9.72967 3.27877L9.48588 3.5963L5.99998 0.914946L2.5138 3.5963Z" fill="#333333"/>
<path fill-rule="evenodd" clip-rule="evenodd" d="M6.41757 0.66223C6.41757 0.917703 6.21553 1.12475 5.96646 1.12475C5.71767 1.12475 5.51562 0.917703 5.51562 0.66223C5.51562 0.406757 5.71767 0.199707 5.96646 0.199707C6.21525 0.199707 6.41729 0.407035 6.41729 0.66223" fill="#632DB8"/>
<path fill-rule="evenodd" clip-rule="evenodd" d="M5.96608 0.399907C5.82777 0.399907 5.71534 0.517625 5.71534 0.662616C5.71534 0.807606 5.82777 0.925046 5.96608 0.925046C6.10467 0.925046 6.2171 0.807328 6.2171 0.662616C6.2171 0.517625 6.10467 0.399907 5.96608 0.399907ZM5.96608 1.32495C5.60708 1.32495 5.31543 1.02774 5.31543 0.662616C5.31543 0.297217 5.60764 0 5.96608 0C6.32452 0 6.61701 0.297217 6.61701 0.662616C6.61701 1.02801 6.32508 1.32495 5.96608 1.32495Z" fill="#333333"/>
</svg>
