<svg width="17" height="8" viewBox="0 0 17 8" fill="none" xmlns="http://www.w3.org/2000/svg">
<mask id="mask0_4973_2158" style="mask-type:luminance" maskUnits="userSpaceOnUse" x="0" y="0" width="3" height="8">
<path d="M0 0H2.57917V7.89444H0V0Z" fill="white"/>
</mask>
<g mask="url(#mask0_4973_2158)">
<path fill-rule="evenodd" clip-rule="evenodd" d="M1.71056 7.89444H0.868333C0.638037 7.89444 0.417173 7.80296 0.254329 7.64012C0.0914849 7.47727 0 7.25641 0 7.02611L0 0.868333C0 0.388611 0.388889 0 0.868333 0H1.71056C2.19028 0 2.57917 0.388889 2.57917 0.868333V7.02611C2.57917 7.50556 2.19028 7.89444 1.71056 7.89444Z" fill="#632DB8"/>
</g>
<mask id="mask1_4973_2158" style="mask-type:luminance" maskUnits="userSpaceOnUse" x="0" y="0" width="3" height="8">
<path d="M0 0H2.57917V7.89444H0V0Z" fill="white"/>
</mask>
<g mask="url(#mask1_4973_2158)">
<path fill-rule="evenodd" clip-rule="evenodd" d="M1.71944 0H0.859722C0.384722 0 0 0.3925 0 0.876945V7.01722C0 7.50139 0.385 7.89444 0.859722 7.89444H1.71944C2.19417 7.89444 2.57917 7.50139 2.57917 7.01722V0.876945C2.57917 0.3925 2.19417 0 1.71944 0ZM1.71944 0.416667C1.96833 0.416667 2.17083 0.623333 2.17083 0.876945V7.01722C2.17083 7.27111 1.96806 7.47722 1.71944 7.47722H0.859722C0.610833 7.47722 0.408333 7.27111 0.408333 7.01722V0.876945C0.408333 0.623333 0.611111 0.416389 0.859722 0.416389L1.71944 0.416667Z" fill="#333333"/>
</g>
<mask id="mask2_4973_2158" style="mask-type:luminance" maskUnits="userSpaceOnUse" x="2" y="0" width="3" height="8">
<path d="M2.14941 0H4.7283V7.89444H2.14941V0Z" fill="white"/>
</mask>
<g mask="url(#mask2_4973_2158)">
<path fill-rule="evenodd" clip-rule="evenodd" d="M3.85997 7.89444H3.01775C2.78745 7.89444 2.56659 7.80296 2.40374 7.64012C2.2409 7.47727 2.14941 7.25641 2.14941 7.02611V0.868333C2.14941 0.388611 2.5383 0 3.01775 0H3.85997C4.33969 0 4.7283 0.388889 4.7283 0.868333V7.02611C4.7283 7.50556 4.33941 7.89444 3.85997 7.89444Z" fill="#FFCC3F"/>
</g>
<mask id="mask3_4973_2158" style="mask-type:luminance" maskUnits="userSpaceOnUse" x="2" y="0" width="3" height="8">
<path d="M2.14941 0H4.7283V7.89444H2.14941V0Z" fill="white"/>
</mask>
<g mask="url(#mask3_4973_2158)">
<path fill-rule="evenodd" clip-rule="evenodd" d="M3.86886 0H3.00914C2.53414 0 2.14941 0.3925 2.14941 0.876945V7.01722C2.14941 7.50139 2.53441 7.89444 3.00914 7.89444H3.86886C4.34358 7.89444 4.7283 7.50139 4.7283 7.01722V0.876945C4.7283 0.3925 4.34358 0 3.86886 0ZM3.86886 0.416667C4.11747 0.416667 4.31997 0.623333 4.31997 0.876945V7.01722C4.31997 7.27111 4.11747 7.47722 3.86886 7.47722H3.00914C2.76025 7.47722 2.55775 7.27111 2.55775 7.01722V0.876945C2.55775 0.623333 2.76025 0.416389 3.00914 0.416389L3.86886 0.416667Z" fill="#333333"/>
</g>
<mask id="mask4_4973_2158" style="mask-type:luminance" maskUnits="userSpaceOnUse" x="11" y="0" width="4" height="8">
<path d="M11.605 0H14.1841V7.89444H11.605V0Z" fill="white"/>
</mask>
<g mask="url(#mask4_4973_2158)">
<path fill-rule="evenodd" clip-rule="evenodd" d="M13.3157 7.89444H12.4735C12.2433 7.89437 12.0225 7.80285 11.8597 7.64002C11.6969 7.47718 11.6055 7.25636 11.6055 7.02611V0.868333C11.6055 0.388611 11.9944 0 12.4735 0H13.3157C13.7955 0 14.1844 0.388889 14.1844 0.868333V7.02611C14.1844 7.50556 13.7955 7.89444 13.3157 7.89444Z" fill="#FFCC3F"/>
</g>
<mask id="mask5_4973_2158" style="mask-type:luminance" maskUnits="userSpaceOnUse" x="11" y="0" width="4" height="8">
<path d="M11.6055 0H14.1844V7.89444H11.6055V0Z" fill="white"/>
</mask>
<g mask="url(#mask5_4973_2158)">
<path fill-rule="evenodd" clip-rule="evenodd" d="M13.3249 0H12.4646C11.9902 0 11.6055 0.3925 11.6055 0.876945V7.01722C11.6055 7.50139 11.9902 7.89444 12.4649 7.89444H13.3249C13.7999 7.89444 14.1846 7.50139 14.1846 7.01722V0.876945C14.1844 0.3925 13.7994 0 13.3249 0ZM13.3249 0.416667C13.5738 0.416667 13.7763 0.623333 13.7763 0.876945V7.01722C13.7763 7.27111 13.5738 7.47722 13.3249 7.47722H12.4649C12.2163 7.47722 12.0138 7.27111 12.0138 7.01722V0.876945C12.0138 0.623333 12.2163 0.416389 12.4649 0.416389L13.3249 0.416667Z" fill="#333333"/>
</g>
<mask id="mask6_4973_2158" style="mask-type:luminance" maskUnits="userSpaceOnUse" x="13" y="0" width="4" height="8">
<path d="M13.7544 0H16.3333V7.89444H13.7544V0Z" fill="white"/>
</mask>
<g mask="url(#mask6_4973_2158)">
<path fill-rule="evenodd" clip-rule="evenodd" d="M15.465 7.89444H14.6227C14.3924 7.89444 14.1716 7.80296 14.0087 7.64012C13.8459 7.47727 13.7544 7.25641 13.7544 7.02611V0.868333C13.7544 0.388611 14.1433 0 14.6227 0H15.465C15.9447 0 16.3333 0.388889 16.3333 0.868333V7.02611C16.3333 7.25641 16.2418 7.47727 16.079 7.64012C15.9161 7.80296 15.6952 7.89444 15.465 7.89444Z" fill="#632DB8"/>
</g>
<mask id="mask7_4973_2158" style="mask-type:luminance" maskUnits="userSpaceOnUse" x="13" y="0" width="4" height="8">
<path d="M13.7544 0H16.3333V7.89444H13.7544V0Z" fill="white"/>
</mask>
<g mask="url(#mask7_4973_2158)">
<path fill-rule="evenodd" clip-rule="evenodd" d="M15.4738 0H14.6138C14.1388 0 13.7544 0.3925 13.7544 0.876945V7.01722C13.7544 7.50139 14.1394 7.89444 14.6141 7.89444H15.4738C15.9486 7.89444 16.3336 7.50139 16.3336 7.01722V0.876945C16.3333 0.3925 15.9486 0 15.4738 0ZM15.4738 0.416667C15.7225 0.416667 15.9252 0.623333 15.9252 0.876945V7.01722C15.9252 7.27111 15.7225 7.47722 15.4738 7.47722H14.6138C14.365 7.47722 14.1625 7.27111 14.1625 7.01722V0.876945C14.1625 0.623333 14.3652 0.416389 14.6138 0.416389L15.4738 0.416667Z" fill="#333333"/>
</g>
</svg>
