<svg width="current" height="current" viewBox="0 0 33 33" fill="none" xmlns="http://www.w3.org/2000/svg">
<path d="M2.69531 32.5902H30.3133V13.7969C30.2481 13.7528 30.1854 13.7049 30.1256 13.6536L16.4935 3.51404L2.88196 13.665C2.88196 13.665 2.78399 13.731 2.69634 13.8083V32.5912" fill="#FFCC3F"/>
<path d="M30.698 30.9843H2.28906V14.0709H3.09235V30.1707H29.8937V14.0709H30.698V30.9843Z" fill="#333333"/>
<path d="M30.3133 27.9943H2.69531V32.5686H30.3133V27.9943Z" fill="#632DB8"/>
<path d="M30.2907 32.9644H2.69638C2.64285 32.9645 2.58982 32.9541 2.54034 32.9336C2.49087 32.9132 2.44591 32.8832 2.40806 32.8454C2.37021 32.8075 2.34021 32.7626 2.31979 32.7131C2.29937 32.6636 2.28893 32.6106 2.28906 32.5571V27.9828C2.28906 27.7631 2.46436 27.5754 2.69535 27.5754H30.3133C30.533 27.5754 30.7207 27.7507 30.7207 27.9828V32.5571C30.7141 32.6669 30.666 32.7701 30.5862 32.8457C30.5063 32.9214 30.4007 32.9638 30.2907 32.9644ZM3.09338 32.1611H29.9071V28.3901H3.09235L3.09338 32.1611Z" fill="#333333"/>
<path d="M0.395996 12.8072L16.4927 0.412476L32.5893 12.8072V15.9183L16.4927 3.51323L0.395996 15.9183V12.8072Z" fill="#632DB8"/>
<path d="M32.5905 16.3143C32.5023 16.3138 32.4171 16.2828 32.3492 16.2266L16.4938 4.01953L0.638451 16.2266C0.58012 16.2731 0.509741 16.3019 0.435582 16.3098C0.361423 16.3176 0.286563 16.3042 0.219793 16.271C0.152202 16.2379 0.0955479 16.1861 0.0565998 16.1218C0.0176517 16.0574 -0.00194447 15.9832 0.000152261 15.908V12.8062C0.000152261 12.6856 0.0548042 12.5649 0.154828 12.4876L16.2515 0.0824942C16.3229 0.0289463 16.4097 0 16.499 0C16.5882 0 16.6751 0.0289463 16.7465 0.0824942L32.8431 12.4876C32.9432 12.5649 32.9978 12.6856 32.9978 12.8072V15.908C32.9973 16.0157 32.9541 16.1189 32.8778 16.195C32.8015 16.2711 32.6983 16.314 32.5905 16.3143ZM16.4938 3.10694C16.5815 3.10694 16.6691 3.13994 16.7351 3.19459L32.1832 15.0944V13.0032L16.4938 0.917749L0.792096 13.0032V15.0934L16.2515 3.19356C16.3197 3.13712 16.4053 3.10717 16.4938 3.10694Z" fill="#333333"/>
<path d="M13.6662 17.9751H10.1561C10.1006 17.9751 10.0473 17.953 10.0081 17.9138C9.96883 17.8745 9.94678 17.8213 9.94678 17.7658V14.7753C9.94678 13.6864 10.8274 12.8058 11.9163 12.8058C13.0052 12.8058 13.8859 13.6864 13.8859 14.7753V17.7658C13.8756 17.8761 13.7755 17.9751 13.6662 17.9751Z" fill="white"/>
<path d="M13.6652 18.3712H10.1572C10.0761 18.3715 9.99581 18.3557 9.92087 18.3248C9.84594 18.2939 9.77785 18.2485 9.72053 18.1912C9.66322 18.1339 9.61781 18.0658 9.58691 17.9909C9.55602 17.9159 9.54026 17.8356 9.54053 17.7546V14.7642C9.54162 14.1372 9.79123 13.5363 10.2346 13.093C10.6781 12.6498 11.2791 12.4005 11.906 12.3997C12.533 12.4005 13.134 12.6498 13.5775 13.093C14.0209 13.5363 14.2705 14.1372 14.2716 14.7642V17.7546C14.2724 17.9164 14.2093 18.072 14.0959 18.1875C13.9825 18.303 13.8271 18.369 13.6652 18.3712ZM10.3438 17.5679H13.4683V14.7745C13.4667 14.3607 13.3015 13.9644 13.0089 13.672C12.7162 13.3795 12.3198 13.2146 11.906 13.2133C11.4923 13.2146 11.0959 13.3795 10.8032 13.672C10.5106 13.9644 10.3454 14.3607 10.3438 14.7745V17.5679Z" fill="#333333"/>
<path d="M22.8297 17.9751H19.3207C19.2651 17.9751 19.2119 17.953 19.1726 17.9138C19.1334 17.8745 19.1113 17.8213 19.1113 17.7658V14.7753C19.1113 13.6864 19.992 12.8058 21.0809 12.8058C22.1698 12.8058 23.0504 13.6864 23.0504 14.7753V17.7658C23.0461 17.8216 23.0213 17.8739 22.9807 17.9125C22.9402 17.9512 22.8857 17.9735 22.8297 17.9751Z" fill="white"/>
<path d="M22.8308 18.3712H19.3217C19.2407 18.3715 19.1604 18.3557 19.0854 18.3248C19.0105 18.2939 18.9424 18.2485 18.8851 18.1912C18.8278 18.1339 18.7824 18.0658 18.7515 17.9909C18.7206 17.9159 18.7048 17.8356 18.7051 17.7546V14.7642C18.7062 14.1372 18.9558 13.5363 19.3992 13.093C19.8426 12.6498 20.4437 12.4005 21.0706 12.3997C21.6975 12.4005 22.2986 12.6498 22.742 13.093C23.1854 13.5363 23.435 14.1372 23.4361 14.7642V17.7546C23.4386 17.8352 23.4248 17.9155 23.3955 17.9906C23.3662 18.0657 23.3219 18.1342 23.2655 18.1918C23.2091 18.2494 23.1415 18.295 23.067 18.3258C22.9925 18.3566 22.9115 18.3721 22.8308 18.3712ZM19.5207 17.5679H22.6452V14.7745C22.6436 14.3607 22.4784 13.9644 22.1858 13.672C21.8931 13.3795 21.4967 13.2146 21.083 13.2133C20.6692 13.2146 20.2728 13.3795 19.9802 13.672C19.6875 13.9644 19.5224 14.3607 19.5207 14.7745V17.5679Z" fill="#333333"/>
<path d="M19.3653 32.5903H13.6103C13.5201 32.5903 13.4335 32.5545 13.3697 32.4907C13.3059 32.4269 13.27 32.3403 13.27 32.2501V25.0782C13.2699 24.655 13.3532 24.236 13.5151 23.845C13.677 23.4541 13.9143 23.0988 14.2136 22.7997C14.5129 22.5005 14.8682 22.2632 15.2592 22.1015C15.6502 21.9397 16.0693 21.8565 16.4924 21.8568C16.9158 21.8563 17.3351 21.9392 17.7263 22.1009C18.1176 22.2625 18.4731 22.4997 18.7726 22.7989C19.0721 23.0981 19.3097 23.4535 19.4717 23.8446C19.6337 24.2357 19.7171 24.6549 19.7169 25.0782V32.249C19.7169 32.4357 19.5623 32.5903 19.3653 32.5903Z" fill="white"/>
<path d="M19.3756 32.9973H13.6217C13.4233 32.9973 13.233 32.9185 13.0927 32.7784C12.9523 32.6382 12.8733 32.448 12.873 32.2497V25.0778C12.8736 24.1182 13.2552 23.1982 13.9339 22.5198C14.6126 21.8415 15.5329 21.4604 16.4925 21.4604C17.4522 21.4602 18.3728 21.8411 19.0517 22.5195C19.7307 23.1978 20.1124 24.1181 20.1129 25.0778V32.2486C20.1129 32.6663 19.783 32.9962 19.3767 32.9962M16.4945 22.2627C15.7481 22.2638 15.0325 22.5607 14.5044 23.0883C13.9764 23.616 13.679 24.3314 13.6774 25.0778V32.2486L19.3117 32.194V25.0789C19.3101 24.3324 19.0127 23.617 18.4847 23.0893C17.9566 22.5617 17.241 22.2638 16.4945 22.2627Z" fill="#333333"/>
</svg>
