<svg width="30" height="34" viewBox="0 0 30 34" fill="none" xmlns="http://www.w3.org/2000/svg">
<path fill-rule="evenodd" clip-rule="evenodd" d="M29.3034 32.8968L22.5663 18.0609V12.035H21.6617V18.0305L14.9097 32.899C14.8599 33.0063 14.8544 33.129 14.8946 33.2404C14.9347 33.3517 15.0172 33.4427 15.1241 33.4935C15.3444 33.5973 15.6053 33.4994 15.7069 33.2754L21.6617 20.1649V33.0931C21.6617 33.3374 21.8595 33.5353 22.107 33.5353H22.1204C22.1787 33.5355 22.2364 33.5242 22.2904 33.5021C22.3443 33.48 22.3933 33.4475 22.4347 33.4064C22.476 33.3653 22.5089 33.3165 22.5314 33.2628C22.5539 33.209 22.5656 33.1513 22.5658 33.0931V20.1943L28.5051 33.2733C28.6067 33.4978 28.8687 33.5962 29.0884 33.4914C29.1954 33.4406 29.278 33.3497 29.3182 33.2384C29.3585 33.127 29.3531 33.0043 29.3034 32.8968ZM11.0129 32.8968L6.27398 22.7346V12.0356H5.36876V22.733L5.36555 22.7309L0.622902 32.8974C0.598104 32.9509 0.584161 33.0088 0.581878 33.0678C0.579594 33.1267 0.589016 33.1855 0.6096 33.2408C0.630183 33.2961 0.661519 33.3468 0.701797 33.3899C0.742075 33.433 0.790496 33.4677 0.844262 33.4919C0.95297 33.5424 1.07726 33.5477 1.18984 33.5066C1.30242 33.4655 1.39409 33.3814 1.44471 33.2727L5.36876 24.8621V33.0883C5.36876 33.3342 5.57194 33.5358 5.8211 33.5358C5.94042 33.5362 6.05505 33.4894 6.13992 33.4055C6.22479 33.3216 6.27299 33.2076 6.27398 33.0883V24.8718L10.1911 33.2722C10.2959 33.4973 10.5654 33.5962 10.7921 33.4914C10.8459 33.4672 10.8943 33.4325 10.9346 33.3894C10.9749 33.3463 11.0063 33.2956 11.0268 33.2403C11.0474 33.185 11.0567 33.1261 11.0543 33.0672C11.0519 33.0082 11.0378 32.9503 11.0129 32.8968Z" fill="#333333"/>
<mask id="mask0_4976_11784" style="mask-type:luminance" maskUnits="userSpaceOnUse" x="0" y="0" width="30" height="34">
<path d="M0 33.5354H29.3445V0H0V33.5354Z" fill="white"/>
</mask>
<g mask="url(#mask0_4976_11784)">
<path fill-rule="evenodd" clip-rule="evenodd" d="M15.772 12.9296H28.4392V0.387451H15.772V12.9296Z" fill="#632DB8"/>
</g>
<mask id="mask1_4976_11784" style="mask-type:luminance" maskUnits="userSpaceOnUse" x="0" y="0" width="30" height="34">
<path d="M0 33.5354H29.3445V0H0V33.5354Z" fill="white"/>
</mask>
<g mask="url(#mask1_4976_11784)">
<path fill-rule="evenodd" clip-rule="evenodd" d="M16.1642 12.5421H28.047V0.776369H16.1642V12.5421ZM28.4395 13.319H15.7723C15.721 13.3192 15.6702 13.3093 15.6227 13.2899C15.5752 13.2704 15.532 13.2418 15.4956 13.2056C15.4592 13.1695 15.4303 13.1265 15.4105 13.0792C15.3908 13.0318 15.3805 12.9811 15.3804 12.9298V0.387653C15.3804 0.173779 15.5552 5.91786e-06 15.7723 5.91786e-06H28.439C28.5424 -0.000563233 28.6418 0.0399419 28.7154 0.112625C28.789 0.185308 28.8307 0.284226 28.8314 0.387653V12.9298C28.8313 12.9811 28.821 13.0318 28.8013 13.0792C28.7815 13.1265 28.7526 13.1695 28.7162 13.2056C28.6798 13.2418 28.6366 13.2704 28.5891 13.2899C28.5416 13.3093 28.4908 13.3192 28.4395 13.319Z" fill="#333333"/>
</g>
<mask id="mask2_4976_11784" style="mask-type:luminance" maskUnits="userSpaceOnUse" x="0" y="0" width="30" height="34">
<path d="M0 33.5354H29.3445V0H0V33.5354Z" fill="white"/>
</mask>
<g mask="url(#mask2_4976_11784)">
<path fill-rule="evenodd" clip-rule="evenodd" d="M11.2488 12.0347C11.2488 15.0038 8.81862 17.4099 5.82011 17.4099C2.82214 17.4099 0.393066 15.0038 0.393066 12.0347C0.393066 9.06616 2.82214 6.65955 5.82011 6.65955C8.81808 6.65955 11.2488 9.06563 11.2488 12.0347Z" fill="#FFCC3F"/>
</g>
<mask id="mask3_4976_11784" style="mask-type:luminance" maskUnits="userSpaceOnUse" x="0" y="0" width="30" height="34">
<path d="M0 33.5354H29.3445V0H0V33.5354Z" fill="white"/>
</mask>
<g mask="url(#mask3_4976_11784)">
<path fill-rule="evenodd" clip-rule="evenodd" d="M5.82057 7.04794C3.04342 7.04794 0.783847 9.28453 0.783847 12.0344C0.783847 14.7843 3.04342 17.0214 5.82057 17.0214C8.59558 17.0214 10.8573 14.7843 10.8573 12.0344C10.8573 9.28453 8.59558 7.04794 5.82057 7.04794ZM5.82057 17.7983C2.61086 17.7983 0 15.2126 0 12.0344C0 8.85624 2.61086 6.27051 5.82057 6.27051C9.03081 6.27051 11.6411 8.85678 11.6411 12.0344C11.6411 15.2126 9.03081 17.7983 5.82057 17.7983Z" fill="#333333"/>
</g>
</svg>
