<svg width="18" height="7" viewBox="0 0 18 7" fill="none" xmlns="http://www.w3.org/2000/svg">
<path fill-rule="evenodd" clip-rule="evenodd" d="M0.199707 6.8096H1.90165V0.206543H0.199707V6.8096Z" fill="white"/>
<path fill-rule="evenodd" clip-rule="evenodd" d="M0.399167 6.60972H1.7025V0.405548H0.399167V6.60972ZM1.90194 7.00833H0.198889C0.146182 7.00803 0.0957219 6.98695 0.0584783 6.94965C0.0212346 6.91236 0.000218803 6.86187 0 6.80916V0.205549C0 0.0955486 0.0891664 0.00610352 0.199166 0.00610352H1.90194C2.01167 0.00610352 2.10111 0.0955486 2.10111 0.205549V6.80916C2.10089 6.86196 2.0798 6.91254 2.04244 6.94985C2.00507 6.98716 1.95447 7.00818 1.90167 7.00833" fill="#333333"/>
<path fill-rule="evenodd" clip-rule="evenodd" d="M1.90186 6.8096H3.60436V0.206543H1.90186V6.8096Z" fill="white"/>
<path fill-rule="evenodd" clip-rule="evenodd" d="M2.10076 6.60996H3.40465V0.405792H2.10076V6.60996ZM3.60381 7.00857H1.90131C1.84856 7.00835 1.79803 6.9873 1.76073 6.94999C1.72342 6.91269 1.70237 6.86216 1.70215 6.8094V0.205793C1.70215 0.0957927 1.79131 0.00634766 1.90131 0.00634766H3.60409C3.71381 0.00634766 3.80326 0.0957927 3.80326 0.205793V6.8094C3.80304 6.86221 3.78195 6.91278 3.74458 6.95009C3.70722 6.9874 3.65662 7.00842 3.60381 7.00857Z" fill="#333333"/>
<path fill-rule="evenodd" clip-rule="evenodd" d="M3.604 6.8096H5.3065V0.206543H3.604V6.8096Z" fill="#FFCC3F"/>
<path fill-rule="evenodd" clip-rule="evenodd" d="M3.8034 6.60996H5.10729V0.405792H3.8034V6.60996ZM5.30645 7.00857H3.60395C3.5512 7.00835 3.50067 6.9873 3.46336 6.94999C3.42606 6.91269 3.405 6.86216 3.40479 6.8094V0.205793C3.40479 0.0957927 3.49395 0.00634766 3.60395 0.00634766H5.30673C5.41645 0.00634766 5.50562 0.0957927 5.50562 0.205793V6.8094C5.5054 6.86216 5.48435 6.91269 5.44704 6.94999C5.40974 6.9873 5.35921 7.00835 5.30645 7.00857Z" fill="#333333"/>
<path fill-rule="evenodd" clip-rule="evenodd" d="M5.30664 6.8096H7.00858V0.206543H5.30664V6.8096Z" fill="white"/>
<path fill-rule="evenodd" clip-rule="evenodd" d="M5.50561 6.60996H6.80922V0.405792H5.50533L5.50561 6.60996ZM7.00839 7.00857H5.30645C5.25355 7.00857 5.2028 6.98761 5.16532 6.95029C5.12783 6.91296 5.10667 6.8623 5.10645 6.8094V0.205793C5.10659 0.152846 5.12773 0.102118 5.16522 0.0647305C5.20271 0.0273433 5.2535 0.00634745 5.30645 0.00634766H7.00839C7.11839 0.00634766 7.20756 0.0957927 7.20756 0.205793V6.8094C7.20734 6.86216 7.18628 6.91269 7.14898 6.94999C7.11168 6.9873 7.06114 7.00835 7.00839 7.00857Z" fill="#333333"/>
<path fill-rule="evenodd" clip-rule="evenodd" d="M7.00879 6.8096H8.71129V0.206543H7.00879V6.8096Z" fill="#FFCC3F"/>
<path fill-rule="evenodd" clip-rule="evenodd" d="M7.2079 6.60996H8.51207V0.405792H7.2079V6.60996ZM8.71124 7.00857H7.00874C6.95598 7.00835 6.90545 6.9873 6.86815 6.94999C6.83084 6.91269 6.80979 6.86216 6.80957 6.8094V0.205793C6.80957 0.0957927 6.89874 0.00634766 7.00874 0.00634766H8.71124C8.82124 0.00634766 8.9104 0.0957927 8.9104 0.205793V6.8094C8.91018 6.86216 8.88913 6.91269 8.85183 6.94999C8.81452 6.9873 8.76399 7.00835 8.71124 7.00857Z" fill="#333333"/>
<path fill-rule="evenodd" clip-rule="evenodd" d="M8.71191 6.8096H10.4139V0.206543H8.71191V6.8096Z" fill="white"/>
<path fill-rule="evenodd" clip-rule="evenodd" d="M8.91005 6.60996H10.2137V0.405792H8.91005V6.60996ZM10.4134 7.00857H8.71089C8.65813 7.00835 8.6076 6.9873 8.5703 6.94999C8.53299 6.91269 8.51194 6.86216 8.51172 6.8094V0.205793C8.51172 0.0957927 8.60089 0.00634766 8.71089 0.00634766H10.4134C10.5234 0.00634766 10.6126 0.0957927 10.6126 0.205793V6.8094C10.6123 6.86216 10.5913 6.91269 10.554 6.94999C10.5167 6.9873 10.4661 7.00835 10.4134 7.00857Z" fill="#333333"/>
<path fill-rule="evenodd" clip-rule="evenodd" d="M10.4136 6.8096H12.1161V0.206543H10.4136V6.8096Z" fill="#FFCC3F"/>
<path fill-rule="evenodd" clip-rule="evenodd" d="M10.6128 6.60996H11.9166V0.405792H10.6128V6.60996ZM12.1161 7.00857H10.4133C10.3605 7.00842 10.3099 6.9874 10.2725 6.95009C10.2352 6.91278 10.2141 6.86221 10.2139 6.8094V0.205793C10.2139 0.0957927 10.303 0.00634766 10.4136 0.00634766H12.1161C12.2261 0.00634766 12.3153 0.0957927 12.3153 0.205793V6.8094C12.315 6.86216 12.294 6.91269 12.2567 6.94999C12.2194 6.9873 12.1688 7.00835 12.1161 7.00857Z" fill="#333333"/>
<path fill-rule="evenodd" clip-rule="evenodd" d="M12.1157 6.8096H13.8182V0.206543H12.1157V6.8096Z" fill="white"/>
<path fill-rule="evenodd" clip-rule="evenodd" d="M12.3152 6.60996H13.6196V0.405792H12.3152V6.60996ZM13.818 7.00857H12.116C12.0631 7.00857 12.0124 6.98761 11.9749 6.95029C11.9374 6.91296 11.9162 6.8623 11.916 6.8094V0.205793C11.9162 0.152846 11.9373 0.102118 11.9748 0.0647305C12.0123 0.0273433 12.0631 0.00634745 12.116 0.00634766H13.818C13.8709 0.00634745 13.9217 0.0273433 13.9592 0.0647305C13.9967 0.102118 14.0178 0.152846 14.018 0.205793V6.8094C14.0177 6.8623 13.9966 6.91296 13.9591 6.95029C13.9216 6.98761 13.8709 7.00857 13.818 7.00857Z" fill="#333333"/>
<path fill-rule="evenodd" clip-rule="evenodd" d="M13.8179 6.8096H15.5204V0.206543H13.8179V6.8096Z" fill="#FFCC3F"/>
<path fill-rule="evenodd" clip-rule="evenodd" d="M14.0178 6.60996H15.3217V0.405792H14.0178V6.60996ZM15.5206 7.00857H13.8178C13.7651 7.00835 13.7145 6.9873 13.6772 6.94999C13.6399 6.91269 13.6189 6.86216 13.6187 6.8094V0.205793C13.6187 0.0957927 13.7081 0.00634766 13.8181 0.00634766H15.5206C15.6312 0.00634766 15.7203 0.0957927 15.7203 0.205793V6.8094C15.7201 6.8623 15.6989 6.91296 15.6614 6.95029C15.624 6.98761 15.5735 7.00857 15.5206 7.00857Z" fill="#333333"/>
<path fill-rule="evenodd" clip-rule="evenodd" d="M15.521 6.8096H17.2229V0.206543H15.521V6.8096Z" fill="white"/>
<path fill-rule="evenodd" clip-rule="evenodd" d="M15.7205 6.60996H17.0243V0.405792H15.7205V6.60996ZM17.2227 7.00857H15.5207C15.4679 7.00842 15.4173 6.9874 15.38 6.95009C15.3426 6.91278 15.3215 6.86221 15.3213 6.8094V0.205793C15.3213 0.0957927 15.4107 0.00634766 15.5207 0.00634766H17.2224C17.333 0.00634766 17.4221 0.0957927 17.4221 0.205793V6.8094C17.4219 6.8623 17.4007 6.91296 17.3632 6.95029C17.3258 6.98761 17.275 7.00857 17.2221 7.00857" fill="#333333"/>
<path fill-rule="evenodd" clip-rule="evenodd" d="M1.26367 3.71417H2.54034V0H1.26367V3.71417Z" fill="#632DB8"/>
<path fill-rule="evenodd" clip-rule="evenodd" d="M1.26367 3.71417H2.54006V0H1.26367V3.71417ZM1.66256 3.315H2.14117V0.399167H1.66256V3.315Z" fill="#333333"/>
<path fill-rule="evenodd" clip-rule="evenodd" d="M2.96533 3.71417H4.242V0H2.96533V3.71417Z" fill="#632DB8"/>
<path fill-rule="evenodd" clip-rule="evenodd" d="M2.96533 3.71417H4.242V0H2.96533V3.71417ZM3.3645 3.315H3.84311V0.399167H3.3645V3.315Z" fill="#333333"/>
<path fill-rule="evenodd" clip-rule="evenodd" d="M13.1802 3.71417H14.4568V0H13.1802V3.71417Z" fill="#632DB8"/>
<path fill-rule="evenodd" clip-rule="evenodd" d="M13.1802 3.71417H14.4568V0H13.1802V3.71417ZM13.5791 3.315H14.0577V0.399167H13.5791V3.315Z" fill="#333333"/>
<path fill-rule="evenodd" clip-rule="evenodd" d="M14.8813 3.71417H16.1586V0H14.8813V3.71417Z" fill="#632DB8"/>
<path fill-rule="evenodd" clip-rule="evenodd" d="M14.8813 3.71417H16.1586V0H14.8813V3.71417ZM15.2808 3.315H15.76V0.399167H15.2808V3.315Z" fill="#333333"/>
<path fill-rule="evenodd" clip-rule="evenodd" d="M6.37061 3.71417H7.64727V0H6.37061V3.71417Z" fill="#632DB8"/>
<path fill-rule="evenodd" clip-rule="evenodd" d="M6.37061 3.71417H7.64727V0H6.37061V3.71417ZM6.76977 3.315H7.24811V0.399167H6.76977V3.315Z" fill="#333333"/>
<path fill-rule="evenodd" clip-rule="evenodd" d="M8.07227 3.71417H9.34893V0H8.07227V3.71417Z" fill="#632DB8"/>
<path fill-rule="evenodd" clip-rule="evenodd" d="M8.07227 3.71417H9.34921V0H8.07254L8.07227 3.71417ZM8.47227 3.315H8.9506V0.399167H8.47227V3.315Z" fill="#333333"/>
<path fill-rule="evenodd" clip-rule="evenodd" d="M9.7749 3.71417H11.0516V0H9.7749V3.71417Z" fill="#632DB8"/>
<path fill-rule="evenodd" clip-rule="evenodd" d="M9.7749 3.71417H11.0516V0H9.7749V3.71417ZM10.1743 3.315H10.653V0.399167H10.1743V3.315Z" fill="#333333"/>
</svg>
