<svg width="17" height="18" viewBox="0 0 17 18" fill="none" xmlns="http://www.w3.org/2000/svg">
<path fill-rule="evenodd" clip-rule="evenodd" d="M2.5171 17.0818C2.40815 17.0329 2.32301 16.9429 2.28032 16.8313C2.23763 16.7198 2.24087 16.5959 2.28932 16.4868L5.03377 10.3096L5.85571 10.676L3.11127 16.8537C3.08723 16.9077 3.05279 16.9565 3.00992 16.9971C2.96705 17.0378 2.91659 17.0697 2.86142 17.0908C2.80624 17.112 2.74744 17.1221 2.68836 17.1206C2.62928 17.119 2.57109 17.1058 2.5171 17.0818Z" fill="white"/>
<path fill-rule="evenodd" clip-rule="evenodd" d="M5.13588 10.5741L2.47311 16.5669C2.44587 16.6279 2.44391 16.6973 2.46765 16.7597C2.49138 16.8222 2.53889 16.8727 2.59977 16.9003C2.62953 16.9136 2.66165 16.9209 2.69425 16.9217C2.72686 16.9225 2.75929 16.9167 2.78966 16.9048C2.82003 16.8929 2.84771 16.8751 2.8711 16.8524C2.8945 16.8297 2.91312 16.8025 2.92588 16.7725L5.58977 10.7766L5.13588 10.5741ZM2.6995 17.3203C2.59124 17.3201 2.48473 17.293 2.38958 17.2414C2.29443 17.1898 2.21365 17.1153 2.15453 17.0246C2.09542 16.9339 2.05983 16.8299 2.051 16.722C2.04217 16.6141 2.06036 16.5057 2.10394 16.4066L4.84838 10.2289C4.87058 10.1803 4.91083 10.1422 4.96061 10.1228C5.01111 10.104 5.06697 10.1058 5.11616 10.1278L5.93783 10.4944C6.03866 10.5391 6.08366 10.6555 6.0395 10.7566L3.29561 16.9339C3.26054 17.0125 3.21022 17.0833 3.14756 17.1423C3.08491 17.2013 3.01116 17.2472 2.93061 17.2775C2.85588 17.3058 2.77783 17.32 2.69977 17.32" fill="#333333"/>
<path fill-rule="evenodd" clip-rule="evenodd" d="M11.8791 17.0818C11.9881 17.033 12.0733 16.9429 12.1161 16.8314C12.1588 16.7199 12.1556 16.596 12.1072 16.4868L9.36275 10.3096L8.54053 10.676L11.285 16.8537C11.309 16.9077 11.3434 16.9565 11.3863 16.9971C11.4292 17.0378 11.4796 17.0697 11.5348 17.0908C11.59 17.112 11.6488 17.1221 11.7079 17.1206C11.767 17.119 11.8252 17.1058 11.8791 17.0818Z" fill="white"/>
<path fill-rule="evenodd" clip-rule="evenodd" d="M8.80584 10.7767L11.4697 16.7731C11.4826 16.803 11.5013 16.8301 11.5247 16.8527C11.5481 16.8754 11.5758 16.8931 11.6062 16.9049C11.6365 16.9168 11.6689 16.9224 11.7015 16.9216C11.7341 16.9207 11.7661 16.9134 11.7958 16.9C11.9228 16.8434 11.9789 16.6945 11.9228 16.5664L9.25917 10.5742L8.80584 10.7767ZM11.6961 17.3203C11.6183 17.3203 11.5394 17.3064 11.4647 17.2778C11.3841 17.2477 11.3104 17.2017 11.2479 17.1427C11.1853 17.0836 11.1352 17.0126 11.1006 16.9339L8.35611 10.7567C8.33501 10.7084 8.33379 10.6538 8.35272 10.6047C8.37165 10.5555 8.4092 10.5158 8.45723 10.4942L9.27945 10.1275C9.32858 10.1061 9.3841 10.1044 9.43445 10.1228C9.48445 10.142 9.525 10.18 9.54722 10.2289L12.2917 16.4061C12.3353 16.5053 12.3535 16.6137 12.3447 16.7216C12.3359 16.8296 12.3003 16.9336 12.2412 17.0244C12.1821 17.1151 12.1013 17.1897 12.0061 17.2413C11.911 17.293 11.8044 17.3202 11.6961 17.3203Z" fill="#333333"/>
<path fill-rule="evenodd" clip-rule="evenodd" d="M7.20006 17.2223H7.19534C6.94811 17.2223 6.74756 17.0221 6.74756 16.7751V10.0093H7.647V16.7748C7.647 17.0221 7.44728 17.2223 7.20006 17.2223Z" fill="white"/>
<path fill-rule="evenodd" clip-rule="evenodd" d="M6.95 10.2095V16.777C6.95 16.9131 7.06111 17.0231 7.19805 17.0231C7.26352 17.0232 7.32638 16.9974 7.37283 16.9513C7.41928 16.9051 7.44554 16.8424 7.44583 16.777V10.2095H6.95ZM7.19805 17.4223C6.83889 17.4223 6.54639 17.1325 6.54639 16.777V10.0098C6.54639 9.89975 6.63694 9.81031 6.74778 9.81031H7.64722C7.67358 9.81009 7.69972 9.81508 7.72414 9.825C7.74856 9.83492 7.77078 9.84957 7.78952 9.8681C7.80826 9.88663 7.82316 9.90869 7.83334 9.933C7.84353 9.95731 7.84881 9.9834 7.84889 10.0098V16.777C7.84793 16.9488 7.77888 17.1132 7.65687 17.2342C7.53486 17.3551 7.36986 17.4228 7.19805 17.4223Z" fill="#333333"/>
<path fill-rule="evenodd" clip-rule="evenodd" d="M6.22447 4.24953C6.22447 5.49453 5.21725 6.50342 3.97475 6.50342C2.73309 6.50342 1.72559 5.49453 1.72559 4.24925C1.72559 3.00481 2.73281 1.99536 3.97475 1.99536C5.21725 1.99536 6.22447 3.00508 6.22447 4.24953Z" fill="#FFCC3F"/>
<path fill-rule="evenodd" clip-rule="evenodd" d="M3.97483 2.195C2.84594 2.195 1.92677 3.11666 1.92677 4.24916C1.92677 5.38222 2.84594 6.30389 3.9751 6.30389C5.10372 6.30389 6.02233 5.38222 6.02233 4.24916C6.02233 3.11666 5.10344 2.195 3.97483 2.195ZM3.9751 6.70305C2.62316 6.70305 1.52344 5.60222 1.52344 4.24916C1.52344 2.89694 2.62316 1.79639 3.9751 1.79639C5.3251 1.79639 6.42566 2.89694 6.42566 4.24916C6.42566 5.60194 5.3251 6.70305 3.9751 6.70305Z" fill="#333333"/>
<path fill-rule="evenodd" clip-rule="evenodd" d="M12.4431 3.35477C12.4431 5.09755 11.0328 6.51033 9.29391 6.51033C7.55446 6.51033 6.14502 5.09755 6.14502 3.35477C6.14502 1.612 7.55446 0.199219 9.29391 0.199219C11.0328 0.199219 12.4431 1.612 12.4431 3.35477Z" fill="#632DB8"/>
<mask id="mask0_4973_2651" style="mask-type:luminance" maskUnits="userSpaceOnUse" x="5" y="0" width="8" height="7">
<path d="M5.94385 0H12.645V6.70944H5.94385V0Z" fill="white"/>
</mask>
<g mask="url(#mask0_4973_2651)">
<path fill-rule="evenodd" clip-rule="evenodd" d="M9.29385 0.398889C7.66968 0.398889 6.34718 1.725 6.34718 3.35444C6.34718 4.98472 7.66968 6.31083 9.29385 6.31083C10.9188 6.31083 12.2413 4.98472 12.2413 3.35444C12.2413 1.725 10.9191 0.398889 9.29385 0.398889ZM9.29385 6.70944C7.44663 6.70944 5.94385 5.20444 5.94385 3.35444C5.94385 1.50444 7.44663 0 9.29385 0C11.1416 0 12.645 1.50472 12.645 3.35472C12.645 5.20472 11.1416 6.70972 9.29385 6.70972" fill="#333333"/>
</g>
<path fill-rule="evenodd" clip-rule="evenodd" d="M16.132 10.9115L13.8828 9.80786V8.0048L16.132 6.85425V10.9115Z" fill="white"/>
<path fill-rule="evenodd" clip-rule="evenodd" d="M14.0843 9.68433L15.9304 10.5902V7.18183L14.0843 8.12656V9.68433ZM16.1323 11.111C16.1012 11.1109 16.0706 11.1038 16.0426 11.0902L13.7929 9.98656C13.7594 9.97018 13.7311 9.94474 13.7112 9.91313C13.6914 9.88152 13.6808 9.84499 13.6807 9.80767V8.00433C13.6807 7.92989 13.7226 7.86183 13.7901 7.82739L16.0398 6.67711C16.0704 6.66137 16.1046 6.65373 16.139 6.6549C16.1733 6.65608 16.2069 6.66604 16.2363 6.68383C16.2658 6.70162 16.2902 6.72665 16.3072 6.75655C16.3243 6.78644 16.3334 6.8202 16.3337 6.85461V10.9113C16.3335 10.9454 16.3247 10.9789 16.3079 11.0086C16.2911 11.0383 16.267 11.0632 16.2379 11.081C16.2061 11.1004 16.1696 11.1108 16.1323 11.111Z" fill="#333333"/>
<path fill-rule="evenodd" clip-rule="evenodd" d="M11.6936 11.7388H2.70194C1.20972 11.7388 0 10.5293 0 9.03709V9.03153C0 7.53931 1.20972 6.32959 2.70194 6.32959H11.6936C13.1858 6.32959 14.3956 7.53931 14.3956 9.03153V9.03709C14.3956 10.5293 13.1858 11.7393 11.6936 11.7393" fill="white"/>
<path fill-rule="evenodd" clip-rule="evenodd" d="M11.6792 6.32935H2.71667C1.21611 6.32935 0 7.53268 0 9.01685V9.05157C0 10.5357 1.21583 11.7391 2.71639 11.7391H11.6789C13.1789 11.7391 14.3953 10.5357 14.3953 9.05157V9.01685C14.3953 7.53268 13.1792 6.32935 11.6792 6.32935ZM11.6789 6.72851C12.9547 6.72851 13.9917 7.75518 13.9917 9.01685V9.05157C13.9917 10.313 12.9547 11.3399 11.6789 11.3399H2.71667C1.44111 11.3399 0.403333 10.313 0.403333 9.05157V9.01685C0.403333 7.75518 1.44111 6.72851 2.71667 6.72851H11.6789Z" fill="#333333"/>
<path fill-rule="evenodd" clip-rule="evenodd" d="M5.34089 10.1931V10.4845H3.68506V7.58423H4.02173V10.1931H5.34089Z" fill="#632DB8"/>
<mask id="mask1_4973_2651" style="mask-type:luminance" maskUnits="userSpaceOnUse" x="0" y="0" width="17" height="18">
<path d="M0 17.4222H16.3339V0H0V17.4222Z" fill="white"/>
</mask>
<g mask="url(#mask1_4973_2651)">
<path fill-rule="evenodd" clip-rule="evenodd" d="M5.70898 10.4843H6.04537V7.5835H5.70898V10.4843ZM7.53621 10.1624L7.60482 9.89461L8.36204 7.58405H8.72148L7.7426 10.4843H7.33371L6.35482 7.58405H6.71343L7.47093 9.89461L7.53621 10.1624ZM10.8704 10.4843H9.08121V7.5835H10.8704V7.87155H9.41343V8.76016H10.7676V9.04377H9.41343V10.1932H10.8704V10.4843Z" fill="#632DB8"/>
</g>
</svg>
