<svg width="18" height="18" viewBox="0 0 18 18" fill="none" xmlns="http://www.w3.org/2000/svg">
<path fill-rule="evenodd" clip-rule="evenodd" d="M0.199707 6.79298H17.2552V0.206055H0.199707V6.79298Z" fill="white"/>
<path fill-rule="evenodd" clip-rule="evenodd" d="M0.399927 6.5872H17.0547V0.411874H0.399927V6.5872ZM17.255 6.99879H0.199555C0.14582 6.99784 0.0946509 6.97564 0.0572527 6.93704C0.0198545 6.89844 -0.000725124 6.8466 1.95266e-05 6.79286V0.205937C1.95266e-05 0.0918367 0.0893514 0 0.199555 0H17.255C17.3652 0 17.4546 0.0921151 17.4546 0.205659V6.79286C17.4553 6.8466 17.4347 6.89844 17.3973 6.93704C17.3599 6.97564 17.3088 6.99784 17.255 6.99879Z" fill="#333333"/>
<path fill-rule="evenodd" clip-rule="evenodd" d="M0.199707 11.0611H17.2552V8.92993H0.199707V11.0611Z" fill="#632DB8"/>
<path fill-rule="evenodd" clip-rule="evenodd" d="M0.399907 10.8619H17.0546V9.13034H0.399907V10.8619ZM17.255 11.261H0.199536C0.146683 11.2607 0.0960582 11.2396 0.0586855 11.2023C0.0213127 11.1649 0.000219764 11.1143 0 11.0614V8.93025C0 8.82005 0.0893318 8.73071 0.199536 8.73071H17.255C17.3652 8.73071 17.4545 8.82005 17.4545 8.93025V11.0614C17.4543 11.1143 17.4332 11.1649 17.3959 11.2023C17.3585 11.2396 17.3079 11.2607 17.255 11.261Z" fill="#333333"/>
<path fill-rule="evenodd" clip-rule="evenodd" d="M3.39735 12.491H1.26563V10.8925C1.26562 10.6099 1.37784 10.3389 1.57761 10.139C1.77738 9.93917 2.04834 9.82681 2.33093 9.82666H2.33149C2.61417 9.82666 2.88528 9.93896 3.08517 10.1388C3.28505 10.3387 3.39735 10.6098 3.39735 10.8925V12.491Z" fill="#FFCC3F"/>
<path fill-rule="evenodd" clip-rule="evenodd" d="M1.46583 12.2911H3.19792V10.8924C3.19748 10.6628 3.10608 10.4429 2.94374 10.2806C2.7814 10.1184 2.56138 10.0272 2.33187 10.0269C2.10235 10.0271 1.88228 10.1183 1.71992 10.2806C1.55757 10.4428 1.46619 10.6628 1.46583 10.8924V12.2911ZM3.59755 12.6904H1.06592V10.8926C1.06629 10.557 1.19979 10.2353 1.43713 9.99797C1.67447 9.76068 1.99626 9.62725 2.33187 9.62695C2.66734 9.62739 2.98894 9.76086 3.22616 9.99807C3.46337 10.2353 3.59683 10.5569 3.59727 10.8924L3.59755 12.6904Z" fill="#333333"/>
<path fill-rule="evenodd" clip-rule="evenodd" d="M1.06592 13.8228H1.46583V12.2249H1.06592V13.8228ZM3.19792 13.8228H3.59727V12.2249H3.19792V13.8228Z" fill="#333333"/>
<path fill-rule="evenodd" clip-rule="evenodd" d="M6.59566 12.491H4.46338V10.8925C4.46338 10.6098 4.57568 10.3387 4.77556 10.1388C4.97545 9.93896 5.24656 9.82666 5.52924 9.82666H5.5298C5.81248 9.82666 6.08359 9.93896 6.28348 10.1388C6.48337 10.3387 6.59566 10.6098 6.59566 10.8925V12.491Z" fill="#FFCC3F"/>
<path fill-rule="evenodd" clip-rule="evenodd" d="M4.66386 12.2911H6.39568V10.8924C6.39531 10.6628 6.30389 10.4427 6.14148 10.2805C5.97906 10.1182 5.75892 10.027 5.52935 10.0269C5.2999 10.0272 5.07993 10.1184 4.91768 10.2807C4.75543 10.4429 4.66415 10.6629 4.66386 10.8924V12.2911ZM6.79558 12.6904H4.26367V10.8926C4.26404 10.5571 4.39747 10.2354 4.63469 9.99817C4.87191 9.76089 5.19355 9.6274 5.52907 9.62695C6.22731 9.62695 6.7953 10.1947 6.7953 10.8924L6.79558 12.6904Z" fill="#333333"/>
<path fill-rule="evenodd" clip-rule="evenodd" d="M4.26367 13.8228H4.66358V12.2249H4.26367V13.8228ZM6.3954 13.8228H6.7953V12.2249H6.3954V13.8228Z" fill="#333333"/>
<path fill-rule="evenodd" clip-rule="evenodd" d="M9.79335 12.491H7.66162V10.8925C7.66162 10.6099 7.77384 10.3389 7.97361 10.139C8.17338 9.93917 8.44434 9.82681 8.72693 9.82666H8.72748C9.01017 9.82666 9.28127 9.93896 9.48116 10.1388C9.68105 10.3387 9.79335 10.6098 9.79335 10.8925V12.491Z" fill="#FFCC3F"/>
<path fill-rule="evenodd" clip-rule="evenodd" d="M7.86084 12.2911H9.59322V10.8924C9.59278 10.6628 9.50134 10.4428 9.33894 10.2806C9.17654 10.1183 8.95644 10.0271 8.72689 10.0269C8.49737 10.0271 8.2773 10.1183 8.11494 10.2806C7.95259 10.4428 7.86121 10.6628 7.86084 10.8924V12.2911ZM9.99285 12.6904H7.46094V10.8926C7.46131 10.557 7.59485 10.2352 7.83225 9.99787C8.06965 9.76058 8.39151 9.62717 8.72717 9.62695C9.06269 9.62732 9.38436 9.76075 9.62164 9.99797C9.85891 10.2352 9.99241 10.5568 9.99285 10.8924V12.6904Z" fill="#333333"/>
<path fill-rule="evenodd" clip-rule="evenodd" d="M7.46094 13.8228H7.86084V12.2249H7.46094V13.8228ZM9.59294 13.8228H9.99285V12.2249H9.59294V13.8228Z" fill="#333333"/>
<path fill-rule="evenodd" clip-rule="evenodd" d="M12.9909 12.491H10.8589V10.8925C10.8589 10.6098 10.9712 10.3387 11.1711 10.1388C11.371 9.93896 11.6421 9.82666 11.9247 9.82666H11.9253C12.208 9.82666 12.4791 9.93896 12.679 10.1388C12.8789 10.3387 12.9912 10.6098 12.9912 10.8925L12.9909 12.491Z" fill="#FFCC3F"/>
<path fill-rule="evenodd" clip-rule="evenodd" d="M11.0591 12.2911H12.7909V10.8924C12.7906 10.6629 12.6993 10.4429 12.5371 10.2807C12.3748 10.1184 12.1549 10.0272 11.9254 10.0269C11.6958 10.027 11.4757 10.1182 11.3133 10.2805C11.1509 10.4427 11.0595 10.6628 11.0591 10.8924V12.2911ZM13.1908 12.6904H10.6592V10.8926C10.6595 10.557 10.7931 10.2352 11.0305 9.99787C11.2679 9.76058 11.5898 9.62717 11.9254 9.62695C12.2608 9.62747 12.5824 9.76096 12.8195 9.99817C13.0567 10.2354 13.1901 10.5569 13.1905 10.8924L13.1908 12.6904Z" fill="#333333"/>
<path fill-rule="evenodd" clip-rule="evenodd" d="M10.6592 13.8228H11.0591V12.2249H10.6592V13.8228ZM12.7909 13.8228H13.1908V12.2249H12.7909V13.8228Z" fill="#333333"/>
<path fill-rule="evenodd" clip-rule="evenodd" d="M16.1884 12.491H14.0566V10.8925C14.0566 10.6098 14.1689 10.3387 14.3688 10.1388C14.5687 9.93896 14.8398 9.82666 15.1225 9.82666C15.4052 9.82666 15.6763 9.93896 15.8762 10.1388C16.0761 10.3387 16.1884 10.6098 16.1884 10.8925V12.491Z" fill="#FFCC3F"/>
<path fill-rule="evenodd" clip-rule="evenodd" d="M14.2566 12.2911H15.9889V10.8924C15.9885 10.6628 15.8971 10.4428 15.7347 10.2806C15.5723 10.1183 15.3522 10.0271 15.1226 10.0269C14.8931 10.0271 14.673 10.1184 14.5107 10.2806C14.3483 10.4428 14.2569 10.6629 14.2566 10.8924V12.2911ZM16.3886 12.6902H13.8569V10.8924C13.8573 10.5569 13.9907 10.2352 14.2279 9.99792C14.4652 9.76065 14.7868 9.62715 15.1223 9.62671C15.8208 9.62671 16.3886 10.1944 16.3886 10.8921V12.6902Z" fill="#333333"/>
<path fill-rule="evenodd" clip-rule="evenodd" d="M13.8574 13.8228H14.2568V12.2249H13.8574V13.8228ZM15.9889 13.8228H16.3888V12.2249H15.9889V13.8228Z" fill="#333333"/>
<path fill-rule="evenodd" clip-rule="evenodd" d="M0.199707 14.2581H17.2552V12.1272H0.199707V14.2581Z" fill="#632DB8"/>
<path fill-rule="evenodd" clip-rule="evenodd" d="M0.399907 14.0579H17.0546V12.3267H0.399907V14.0579ZM17.255 14.4578H0.199536C0.146635 14.4576 0.0959685 14.4365 0.0585878 14.399C0.0212072 14.3616 0.000146489 14.3109 0 14.258V12.1263C0 12.0164 0.0893318 11.9268 0.199536 11.9268H17.255C17.3652 11.9268 17.4545 12.0164 17.4545 12.1266V14.2583C17.4543 14.3111 17.4332 14.3618 17.3959 14.3991C17.3585 14.4365 17.3079 14.4576 17.255 14.4578Z" fill="#333333"/>
<path fill-rule="evenodd" clip-rule="evenodd" d="M3.39735 16.1228H1.26563V14.5246C1.26562 14.242 1.37784 13.971 1.57761 13.7711C1.77738 13.5712 2.04834 13.4589 2.33093 13.4587H2.33149C2.61417 13.4587 2.88528 13.571 3.08517 13.7709C3.28505 13.9708 3.39735 14.2419 3.39735 14.5246V16.1228Z" fill="#FFCC3F"/>
<path fill-rule="evenodd" clip-rule="evenodd" d="M1.46583 15.9226H3.19792V14.5239C3.19748 14.2944 3.10608 14.0745 2.94374 13.9122C2.7814 13.75 2.56138 13.6587 2.33187 13.6585C2.10235 13.6587 1.88228 13.7499 1.71992 13.9122C1.55757 14.0744 1.46619 14.2944 1.46583 14.5239V15.9226ZM3.59755 16.3226H1.06592V14.5239C1.06636 14.1884 1.1999 13.8667 1.43723 13.6295C1.67456 13.3922 1.99631 13.2588 2.33187 13.2585C2.66734 13.259 2.98894 13.3924 3.22616 13.6297C3.46337 13.8669 3.59683 14.1885 3.59727 14.5239L3.59755 16.3226Z" fill="#333333"/>
<path fill-rule="evenodd" clip-rule="evenodd" d="M1.06592 17.4545H1.46583V15.8557H1.06592V17.4545ZM3.19792 17.4545H3.59727V15.8557H3.19792V17.4545Z" fill="#333333"/>
<path fill-rule="evenodd" clip-rule="evenodd" d="M6.59566 16.1228H4.46338V14.5246C4.46338 14.2419 4.57568 13.9708 4.77556 13.7709C4.97545 13.571 5.24656 13.4587 5.52924 13.4587H5.5298C5.81248 13.4587 6.08359 13.571 6.28348 13.7709C6.48337 13.9708 6.59566 14.2419 6.59566 14.5246V16.1228Z" fill="#FFCC3F"/>
<path fill-rule="evenodd" clip-rule="evenodd" d="M4.66386 15.9229H6.39568V14.5242C6.39531 14.2946 6.30389 14.0746 6.14148 13.9123C5.97906 13.75 5.75892 13.6588 5.52935 13.6587C5.2999 13.659 5.07993 13.7503 4.91768 13.9125C4.75543 14.0748 4.66415 14.2947 4.66386 14.5242V15.9229ZM6.79558 16.3228H4.26367V14.5242C4.26411 14.1887 4.39757 13.8671 4.63479 13.6299C4.872 13.3927 5.1936 13.2592 5.52907 13.2588C6.22731 13.2588 6.7953 13.8265 6.7953 14.5242L6.79558 16.3228Z" fill="#333333"/>
<path fill-rule="evenodd" clip-rule="evenodd" d="M4.26367 17.4545H4.66358V15.8557H4.26367V17.4545ZM6.3954 17.4545H6.7953V15.8557H6.3954V17.4545Z" fill="#333333"/>
<path fill-rule="evenodd" clip-rule="evenodd" d="M9.79335 16.1228H7.66162V14.5246C7.66162 14.242 7.77384 13.971 7.97361 13.7711C8.17338 13.5712 8.44434 13.4589 8.72693 13.4587H8.72748C9.01017 13.4587 9.28127 13.571 9.48116 13.7709C9.68105 13.9708 9.79335 14.2419 9.79335 14.5246V16.1228Z" fill="#FFCC3F"/>
<path fill-rule="evenodd" clip-rule="evenodd" d="M7.86084 15.9229H9.59322V14.5242C9.59278 14.2946 9.50134 14.0746 9.33894 13.9124C9.17654 13.7501 8.95644 13.6589 8.72689 13.6587C8.49737 13.6589 8.2773 13.7502 8.11494 13.9124C7.95259 14.0746 7.86121 14.2947 7.86084 14.5242V15.9229ZM9.99285 16.3228H7.46094V14.5242C7.46138 14.1886 7.59495 13.8668 7.83235 13.6296C8.06974 13.3924 8.39156 13.259 8.72717 13.2588C9.06269 13.2592 9.38436 13.3926 9.62164 13.6298C9.85891 13.867 9.99241 14.1887 9.99285 14.5242V16.3228Z" fill="#333333"/>
<path fill-rule="evenodd" clip-rule="evenodd" d="M7.46094 17.4545H7.86084V15.8557H7.46094V17.4545ZM9.59294 17.4545H9.99285V15.8557H9.59294V17.4545Z" fill="#333333"/>
<path fill-rule="evenodd" clip-rule="evenodd" d="M12.9909 16.1228H10.8589V14.5246C10.8589 14.2419 10.9712 13.9708 11.1711 13.7709C11.371 13.571 11.6421 13.4587 11.9247 13.4587H11.9253C12.208 13.4587 12.4791 13.571 12.679 13.7709C12.8789 13.9708 12.9912 14.2419 12.9912 14.5246L12.9909 16.1228Z" fill="#FFCC3F"/>
<path fill-rule="evenodd" clip-rule="evenodd" d="M11.0591 15.9229H12.7909V14.5242C12.7906 14.2947 12.6993 14.0748 12.5371 13.9125C12.3748 13.7503 12.1549 13.659 11.9254 13.6587C11.6958 13.6588 11.4757 13.75 11.3133 13.9123C11.1509 14.0746 11.0595 14.2946 11.0591 14.5242V15.9229ZM13.1908 16.3228H10.6592V14.5242C10.6596 14.1886 10.7932 13.8668 11.0306 13.6296C11.268 13.3924 11.5898 13.259 11.9254 13.2588C12.2608 13.2593 12.5824 13.3928 12.8195 13.63C13.0567 13.8672 13.1901 14.1888 13.1905 14.5242L13.1908 16.3228Z" fill="#333333"/>
<path fill-rule="evenodd" clip-rule="evenodd" d="M10.6592 17.4545H11.0591V15.8557H10.6592V17.4545ZM12.7909 17.4545H13.1908V15.8557H12.7909V17.4545Z" fill="#333333"/>
<path fill-rule="evenodd" clip-rule="evenodd" d="M16.1884 16.1228H14.0566V14.5246C14.0566 14.2419 14.1689 13.9708 14.3688 13.7709C14.5687 13.571 14.8398 13.4587 15.1225 13.4587C15.4052 13.4587 15.6763 13.571 15.8762 13.7709C16.0761 13.9708 16.1884 14.2419 16.1884 14.5246V16.1228Z" fill="#FFCC3F"/>
<path fill-rule="evenodd" clip-rule="evenodd" d="M14.2568 15.9226H15.9891V14.5239C15.9887 14.2944 15.8973 14.0744 15.7349 13.9121C15.5725 13.7499 15.3524 13.6587 15.1228 13.6585C14.8933 13.6587 14.6732 13.7499 14.5109 13.9122C14.3485 14.0744 14.2571 14.2944 14.2568 14.5239V15.9226ZM16.3891 16.3226H13.8574V14.5239C13.8579 14.1885 13.9913 13.8669 14.2285 13.6297C14.4657 13.3924 14.7874 13.259 15.1228 13.2585C15.8213 13.2585 16.3891 13.8263 16.3891 14.5239V16.3226Z" fill="#333333"/>
<path fill-rule="evenodd" clip-rule="evenodd" d="M13.8574 17.4545H14.2568V15.8557H13.8574V17.4545ZM15.9889 17.4545H16.3888V15.8557H15.9889V17.4545Z" fill="#333333"/>
</svg>
