<svg width="current" height="current" viewBox="0 0 34 33" fill="none" xmlns="http://www.w3.org/2000/svg">
<path fill-rule="evenodd" clip-rule="evenodd" d="M14.9326 9.41893H7.46631V3.73325C7.46645 2.7433 7.85973 1.79393 8.55968 1.09388C9.25963 0.393825 10.2089 0.000406121 11.1989 0.00012207C12.1891 0.00012207 13.1388 0.39349 13.839 1.09369C14.5392 1.79389 14.9326 2.74356 14.9326 3.73379V9.41893Z" fill="#632DB8"/>
<path fill-rule="evenodd" clip-rule="evenodd" d="M11.198 0.00012207C10.2078 0.00012207 9.25812 0.39349 8.55792 1.09369C7.85772 1.79389 7.46436 2.74356 7.46436 3.73379V9.41947H14.9317V3.73379C14.9317 2.74356 14.5383 1.79389 13.8381 1.09369C13.1379 0.39349 12.1882 0.00012207 11.198 0.00012207ZM11.198 0.787568C12.8222 0.787568 14.1442 2.10962 14.1442 3.73379V8.63202H8.2518V3.73379C8.2518 2.10962 9.57385 0.787568 11.198 0.787568Z" fill="#333333"/>
<path fill-rule="evenodd" clip-rule="evenodd" d="M26.1302 9.41893H18.665V3.73325C18.6652 2.74321 19.0585 1.79376 19.7586 1.09369C20.4587 0.393621 21.4081 0.000264104 22.3982 0.00012207C23.3882 0.000406158 24.3376 0.393899 25.0376 1.09407C25.7375 1.79423 26.1308 2.74375 26.1308 3.73379L26.1302 9.41893Z" fill="white"/>
<path fill-rule="evenodd" clip-rule="evenodd" d="M22.3976 0.00012207C21.4076 0.000406158 20.4582 0.393899 19.7582 1.09407C19.0583 1.79424 18.665 2.74375 18.665 3.73379V9.41947H26.1302V3.73379C26.1302 2.74356 25.7369 1.79389 25.0367 1.09369C24.3365 0.39349 23.3868 0.00012207 22.3966 0.00012207M22.3966 0.787568C24.0213 0.787568 25.3428 2.10962 25.3428 3.73379V8.63202H19.4525V3.73379C19.4525 2.10962 20.7735 0.787568 22.3976 0.787568" fill="#333333"/>
<path fill-rule="evenodd" clip-rule="evenodd" d="M26.0971 23.0754H7.49947C3.35762 23.0754 0 19.7178 0 15.5748V13.6228C0 9.47989 3.35762 6.1228 7.49947 6.1228H26.0971C30.2389 6.1228 33.5976 9.48043 33.5976 13.6234V15.5754C33.5976 19.7183 30.2389 23.0754 26.0971 23.0754Z" fill="#FFCC3F"/>
<path fill-rule="evenodd" clip-rule="evenodd" d="M26.0971 6.12285H7.49947C3.35762 6.12285 0 9.47994 0 13.6234V15.5749C0 19.7178 3.35762 23.0754 7.49947 23.0754H26.0971C30.2389 23.0754 33.5976 19.7178 33.5976 15.5749V13.6234C33.5976 9.47994 30.2389 6.12285 26.0971 6.12285ZM26.0971 6.90976C29.7981 6.90976 32.8102 9.92134 32.8102 13.6234V15.5749C32.8102 19.2769 29.7981 22.288 26.0971 22.288H7.49947C3.79848 22.288 0.787444 19.2775 0.787444 15.5749V13.6234C0.787444 9.92134 3.79848 6.90976 7.49947 6.90976H26.0971Z" fill="#333333"/>
<path fill-rule="evenodd" clip-rule="evenodd" d="M14.9326 26.3721H7.46631V20.687C7.46631 19.6969 7.85962 18.7474 8.55972 18.0473C9.25981 17.3472 10.2093 16.9539 11.1994 16.9539C12.1895 16.9539 13.1391 17.3472 13.8392 18.0473C14.5393 18.7474 14.9326 19.6969 14.9326 20.687V26.3721Z" fill="white"/>
<path fill-rule="evenodd" clip-rule="evenodd" d="M11.198 16.9544C10.2081 16.9544 9.25864 17.3475 8.55849 18.0474C7.85833 18.7472 7.46478 19.6965 7.46436 20.6865V26.3721H14.9317V20.6865C14.9314 19.6964 14.5379 18.747 13.8377 18.047C13.1376 17.3471 12.1881 16.9544 11.198 16.9544ZM11.198 17.7413C12.8222 17.7413 14.1442 19.0623 14.1442 20.6865V25.5847H8.2518V20.6865C8.25279 19.9055 8.56355 19.1568 9.11589 18.6046C9.66823 18.0525 10.417 17.742 11.198 17.7413Z" fill="#333333"/>
<path fill-rule="evenodd" clip-rule="evenodd" d="M26.1302 26.372H18.665V20.6869C18.6816 19.7078 19.0822 18.7743 19.7805 18.0878C20.4788 17.4012 21.4189 17.0165 22.3982 17.0165C23.3774 17.0165 24.3175 17.4012 25.0158 18.0878C25.7141 18.7743 26.1147 19.7078 26.1313 20.6869L26.1302 26.372Z" fill="#632DB8"/>
<path fill-rule="evenodd" clip-rule="evenodd" d="M22.3974 16.9544C21.4076 16.9547 20.4585 17.3479 19.7586 18.0478C19.0586 18.7476 18.6652 19.6967 18.6648 20.6865V26.3721H26.13V20.6865C26.1297 19.6964 25.7362 18.747 25.036 18.047C24.3359 17.3471 23.3864 16.9539 22.3963 16.9539M22.3963 17.7413C24.021 17.7413 25.3425 19.0623 25.3425 20.6865V25.5847H19.4522V20.6865C19.453 19.9056 19.7635 19.1569 20.3156 18.6047C20.8678 18.0525 21.6165 17.742 22.3974 17.7413M7.46489 32.023H6.53174L7.46489 26.3727H8.39857L7.46489 32.023ZM15.8643 32.023H14.9311L13.9985 26.3727H14.9311L15.8643 32.023ZM18.6648 32.023H17.7311L18.6648 26.3721L19.598 26.3727L18.6648 32.023ZM27.0642 32.023H26.1305L25.1974 26.3727H26.1305L27.0642 32.023Z" fill="#333333"/>
</svg>
