<svg width="18" height="17" viewBox="0 0 18 17" fill="none" xmlns="http://www.w3.org/2000/svg">
<path fill-rule="evenodd" clip-rule="evenodd" d="M13.835 9.94998V13.4533C14.4355 13.7841 15.0049 14.1684 15.5363 14.6017V9.94971L13.835 9.94998Z" fill="white"/>
<path fill-rule="evenodd" clip-rule="evenodd" d="M14.0344 13.3368C14.4871 13.593 14.9227 13.8785 15.3382 14.1915V10.149H14.0344V13.3368ZM15.5374 14.8007C15.4915 14.8012 15.447 14.7854 15.4116 14.7562C14.8884 14.3314 14.3285 13.9539 13.7385 13.6282C13.7073 13.6108 13.6814 13.5854 13.6633 13.5547C13.6452 13.5239 13.6357 13.4889 13.6357 13.4532V9.95011C13.6357 9.84011 13.7249 9.75122 13.8349 9.75122H15.5377C15.6469 9.75122 15.736 9.84011 15.736 9.95011V14.6023C15.7362 14.6285 15.7312 14.6544 15.7213 14.6786C15.7114 14.7027 15.6967 14.7247 15.6783 14.7432C15.6598 14.7617 15.6378 14.7763 15.6136 14.7862C15.5895 14.7961 15.5635 14.8009 15.5374 14.8007Z" fill="#333333"/>
<path fill-rule="evenodd" clip-rule="evenodd" d="M15.3184 6.32693C16.1823 6.05637 16.8139 5.26026 16.8139 4.30804C16.8139 3.1347 15.8612 2.18359 14.6862 2.18359C13.5112 2.18359 12.5581 3.1347 12.5581 4.30804C12.5581 5.26026 13.1889 6.05637 14.0537 6.32693C13.1889 6.59693 12.5581 7.39304 12.5581 8.34526C12.5581 9.51832 13.5109 10.4697 14.6862 10.4697C15.8614 10.4697 16.8139 9.51832 16.8139 8.34526C16.8139 7.39304 16.1823 6.59693 15.3184 6.32693Z" fill="#632DB8"/>
<path fill-rule="evenodd" clip-rule="evenodd" d="M14.6864 2.38323C13.6225 2.38323 12.7581 3.24656 12.7581 4.30879C12.7581 5.14879 13.3025 5.88323 14.1136 6.13712C14.1969 6.16267 14.2536 6.23934 14.2536 6.32712C14.2534 6.36954 14.2398 6.41082 14.2146 6.44497C14.1895 6.47913 14.1541 6.50439 14.1136 6.51712C13.3025 6.77017 12.7581 7.50517 12.7581 8.34517C12.7581 9.40684 13.6225 10.2702 14.6864 10.2702C15.7497 10.2702 16.6142 9.40684 16.6142 8.34517C16.6142 7.50517 16.0694 6.77017 15.2586 6.51712C15.218 6.50456 15.1825 6.47934 15.1573 6.44515C15.1321 6.41096 15.1185 6.3696 15.1185 6.32712C15.1185 6.28464 15.1321 6.24328 15.1573 6.20909C15.1825 6.1749 15.218 6.14968 15.2586 6.13712C16.0694 5.88323 16.6142 5.14879 16.6142 4.30879C16.6142 3.24656 15.7497 2.38295 14.6864 2.38295M14.6864 10.6691C13.4028 10.6691 12.3589 9.62629 12.3589 8.34517C12.3584 7.93289 12.4687 7.52806 12.6783 7.17303C12.8879 6.818 13.1891 6.52584 13.5503 6.32712C13.1892 6.12815 12.8882 5.83589 12.6786 5.48086C12.469 5.12583 12.3586 4.72105 12.3589 4.30879C12.3589 3.02712 13.4028 1.98462 14.6867 1.98462C15.9692 1.98462 17.0133 3.02712 17.0133 4.30879C17.0136 4.72102 16.9033 5.12579 16.6937 5.48081C16.4842 5.83584 16.1832 6.12811 15.8222 6.32712C16.1834 6.52588 16.4845 6.81805 16.6941 7.17308C16.9036 7.5281 17.0139 7.93292 17.0133 8.34517C17.0133 9.62629 15.9692 10.6691 14.6864 10.6691Z" fill="#333333"/>
<path fill-rule="evenodd" clip-rule="evenodd" d="M9.71722 1.66651C9.63111 1.66688 9.54778 1.67521 9.46722 1.69151C9.28695 0.838731 8.53667 0.19873 7.63611 0.19873C7.07861 0.19873 6.58389 0.448731 6.24084 0.837897C5.94667 0.574008 5.56306 0.408453 5.13778 0.408453C4.2475 0.408453 3.52611 1.11456 3.48084 2.00012C3.25281 1.78647 2.9522 1.66733 2.63972 1.66679C1.95 1.66651 1.39111 2.22929 1.39111 2.92484C1.39111 3.61901 1.94972 4.18234 2.63945 4.18234C3.25084 4.18234 3.75722 3.7404 3.86556 3.15623C4.17111 3.52429 4.62445 3.76317 5.1375 3.76317C5.5625 3.76317 5.94639 3.59762 6.24028 3.33429C6.58361 3.72318 7.07833 3.9729 7.63583 3.9729C8.01395 3.97305 8.38307 3.85751 8.69361 3.64179C8.8075 3.80825 8.96022 3.94446 9.13857 4.03865C9.31692 4.13283 9.51553 4.18215 9.71722 4.18234C10.4072 4.18234 10.9664 3.61901 10.9664 2.92484C10.9664 2.22956 10.4072 1.66651 9.71722 1.66651Z" fill="white"/>
<path fill-rule="evenodd" clip-rule="evenodd" d="M8.69342 3.44306C8.7257 3.4429 8.75752 3.45067 8.78609 3.46569C8.81467 3.4807 8.83912 3.5025 8.85731 3.52917C8.95315 3.66875 9.08141 3.78302 9.2311 3.86217C9.38078 3.94132 9.54743 3.98299 9.71675 3.98361C10.2956 3.98361 10.7668 3.50861 10.7668 2.92472C10.7668 2.27083 10.1612 1.75472 9.50675 1.88694C9.48118 1.89251 9.45477 1.89292 9.42904 1.88817C9.4033 1.88342 9.37878 1.8736 9.35688 1.85928C9.33498 1.84496 9.31615 1.82642 9.30149 1.80475C9.28683 1.78308 9.27662 1.75871 9.27147 1.73306C9.10814 0.959722 8.42064 0.398612 7.63536 0.398612C7.15758 0.398612 6.71481 0.601112 6.39036 0.969723C6.37295 0.989579 6.35176 1.00577 6.32803 1.01736C6.30429 1.02895 6.27849 1.03571 6.25213 1.03723C6.22576 1.03876 6.19935 1.03502 6.17444 1.02625C6.14953 1.01747 6.12662 1.00383 6.10703 0.986112C5.83481 0.741945 5.49092 0.6075 5.13758 0.6075C4.36064 0.6075 3.72036 1.22417 3.68008 2.01056C3.67828 2.04841 3.66561 2.08493 3.64359 2.11577C3.62157 2.14661 3.59113 2.17045 3.55592 2.18445C3.52091 2.19907 3.48242 2.20328 3.44507 2.19658C3.40773 2.18988 3.37311 2.17255 3.34536 2.14667C3.15404 1.96737 2.902 1.86705 2.63981 1.86583C2.06092 1.86583 1.58981 2.34111 1.58981 2.92472C1.58981 3.50833 2.06092 3.98361 2.63981 3.98361C3.14314 3.98361 3.57675 3.62056 3.66925 3.12028C3.67653 3.08319 3.69413 3.04892 3.72004 3.0214C3.74594 2.99389 3.7791 2.97425 3.81568 2.96476C3.85226 2.95526 3.89077 2.9563 3.92679 2.96774C3.96281 2.97919 3.99486 3.00058 4.01925 3.02945C4.53425 3.64945 5.5062 3.72556 6.10731 3.18611C6.12695 3.1685 6.14988 3.15495 6.17477 3.14623C6.19967 3.13752 6.22605 3.13382 6.25238 3.13534C6.27872 3.13687 6.30449 3.14358 6.32822 3.15511C6.35195 3.16664 6.37316 3.18274 6.39064 3.2025C6.94508 3.83139 7.90564 3.94444 8.58008 3.47833C8.61326 3.45505 8.65289 3.44272 8.69342 3.44306ZM9.71675 4.38222C9.51526 4.38174 9.31609 4.33911 9.13205 4.25707C8.94802 4.17502 8.78318 4.05538 8.64814 3.90583C7.88758 4.33639 6.87008 4.21444 6.2237 3.60361C5.55175 4.09583 4.58703 4.05778 3.9562 3.52917C3.84196 3.78289 3.657 3.99829 3.42348 4.14959C3.18996 4.30088 2.91778 4.38165 2.63953 4.38222C1.84092 4.38222 1.19092 3.72778 1.19092 2.92472C1.19092 2.12111 1.84092 1.46722 2.63953 1.46722C2.88258 1.46722 3.11925 1.53 3.33064 1.64694C3.52703 0.818334 4.26425 0.209723 5.13758 0.209723C5.52647 0.209723 5.90536 0.335278 6.2237 0.568333C6.60422 0.205269 7.10943 0.00187239 7.63536 0C8.54592 0 9.35092 0.608333 9.61508 1.47111C10.4512 1.40944 11.1656 2.0875 11.1656 2.92472C11.1656 3.72778 10.5162 4.38222 9.71675 4.38222Z" fill="#333333"/>
<mask id="mask0_4973_5010" style="mask-type:luminance" maskUnits="userSpaceOnUse" x="0" y="12" width="18" height="5">
<path d="M0 12.1418H17.4222V16.3332H0V12.1418Z" fill="white"/>
</mask>
<g mask="url(#mask0_4973_5010)">
<path fill-rule="evenodd" clip-rule="evenodd" d="M0.19951 16.333C0.161043 16.3329 0.123407 16.3218 0.0911496 16.3008C0.0588924 16.2798 0.0333942 16.25 0.0177359 16.2149C0.00207755 16.1797 -0.00307089 16.1408 0.00291265 16.1028C0.00889619 16.0648 0.0257557 16.0294 0.051454 16.0007C1.14434 14.7873 2.47979 13.8168 3.97141 13.1521C5.46303 12.4874 7.07759 12.1432 8.71062 12.1418C10.3438 12.1434 11.9585 12.4876 13.4504 13.1523C14.9422 13.817 16.2779 14.7874 17.3712 16.0007C17.3894 16.0201 17.4036 16.043 17.4129 16.0679C17.4222 16.0929 17.4264 16.1194 17.4252 16.146C17.4241 16.1726 17.4176 16.1987 17.4062 16.2228C17.3949 16.2468 17.3788 16.2684 17.3589 16.2861C17.3391 16.3039 17.3159 16.3175 17.2907 16.3261C17.2655 16.3347 17.2389 16.3382 17.2123 16.3364C17.1858 16.3346 17.1598 16.3275 17.1361 16.3155C17.1123 16.3035 17.0912 16.2869 17.074 16.2666C16.0183 15.0947 14.7285 14.1575 13.2878 13.5156C11.8472 12.8737 10.2878 12.5413 8.71062 12.5399C7.13347 12.5413 5.57417 12.8737 4.13358 13.5157C2.69298 14.1576 1.40317 15.0948 0.347565 16.2666C0.329123 16.2876 0.306346 16.3045 0.280793 16.3159C0.25524 16.3274 0.227513 16.3332 0.19951 16.333Z" fill="#333333"/>
</g>
<path fill-rule="evenodd" clip-rule="evenodd" d="M3.68193 13.5403C3.62903 13.5403 3.57829 13.5193 3.54081 13.482C3.50332 13.4447 3.48215 13.394 3.48193 13.3411V11.0775C3.48193 11.0246 3.50296 10.9738 3.54039 10.9364C3.57782 10.899 3.62858 10.8779 3.68152 10.8779C3.73445 10.8779 3.78521 10.899 3.82264 10.9364C3.86007 10.9738 3.8811 11.0246 3.8811 11.0775V13.3408C3.88088 13.3936 3.85983 13.4441 3.82252 13.4814C3.78522 13.5187 3.73469 13.5401 3.68193 13.5403Z" fill="#333333"/>
<path fill-rule="evenodd" clip-rule="evenodd" d="M5.21359 10.1443C5.12243 10.2363 5.01396 10.3093 4.89443 10.3591C4.7749 10.4089 4.6467 10.4345 4.5172 10.4345C4.38771 10.4345 4.2595 10.4089 4.13998 10.3591C4.02045 10.3093 3.91198 10.2363 3.82081 10.1443C3.63595 9.95789 3.53223 9.706 3.53223 9.44347C3.53223 9.18094 3.63595 8.92904 3.82081 8.74263C3.91198 8.65067 4.02045 8.57767 4.13998 8.52786C4.2595 8.47804 4.38771 8.45239 4.5172 8.45239C4.6467 8.45239 4.7749 8.47804 4.89443 8.52786C5.01396 8.57767 5.12243 8.65067 5.21359 8.74263C5.39854 8.92905 5.50232 9.18101 5.50232 9.44361C5.50232 9.7062 5.39854 9.95788 5.21359 10.1443Z" fill="#FFCC3F"/>
<path fill-rule="evenodd" clip-rule="evenodd" d="M4.51784 8.65125C4.30812 8.65125 4.11118 8.73347 3.96284 8.88263C3.8151 9.0319 3.73222 9.23344 3.73222 9.44347C3.73222 9.65349 3.8151 9.85503 3.96284 10.0043C4.25923 10.3032 4.7759 10.3032 5.07312 10.0043C5.22087 9.85503 5.30375 9.65349 5.30375 9.44347C5.30375 9.23344 5.22087 9.0319 5.07312 8.88263C5.00053 8.8091 4.91402 8.75076 4.81863 8.71103C4.72324 8.6713 4.62117 8.65098 4.51784 8.65125ZM4.51757 10.6343C4.36168 10.6346 4.2073 10.6039 4.06345 10.5438C3.9196 10.4838 3.78916 10.3956 3.67979 10.2846C3.45825 10.0607 3.33398 9.75844 3.33398 9.44347C3.33398 9.1285 3.45825 8.82625 3.67979 8.60236C4.12729 8.15208 4.90923 8.15208 5.35618 8.60236C5.57738 8.82642 5.70142 9.12861 5.70142 9.44347C5.70142 9.75833 5.57738 10.0605 5.35618 10.2846C5.24674 10.3957 5.11622 10.4839 4.97226 10.5439C4.82831 10.604 4.67354 10.6347 4.51757 10.6343Z" fill="#333333"/>
<path fill-rule="evenodd" clip-rule="evenodd" d="M3.54266 11.8271C3.45149 11.9191 3.343 11.9921 3.22345 12.042C3.10389 12.0918 2.97565 12.1175 2.84613 12.1175C2.7166 12.1175 2.58836 12.0918 2.46881 12.042C2.34926 11.9921 2.24077 11.9191 2.1496 11.8271C1.96492 11.6405 1.86133 11.3886 1.86133 11.1261C1.86133 10.8636 1.96492 10.6117 2.1496 10.4251C2.24077 10.3331 2.34926 10.2601 2.46881 10.2103C2.58836 10.1604 2.7166 10.1348 2.84613 10.1348C2.97565 10.1348 3.10389 10.1604 3.22345 10.2103C3.343 10.2601 3.45149 10.3331 3.54266 10.4251C3.7276 10.6116 3.83138 10.8635 3.83138 11.1261C3.83138 11.3887 3.7276 11.6407 3.54266 11.8271Z" fill="#FFCC3F"/>
<path fill-rule="evenodd" clip-rule="evenodd" d="M2.84596 10.3338C2.63624 10.3338 2.43929 10.416 2.29041 10.5651C2.14306 10.7146 2.06045 10.9161 2.06045 11.126C2.06045 11.3359 2.14306 11.5373 2.29041 11.6868C2.58735 11.9857 3.10429 11.9857 3.40068 11.6868C3.54843 11.5375 3.63131 11.336 3.63131 11.126C3.63131 10.916 3.54843 10.7144 3.40068 10.5651C3.32819 10.4917 3.24181 10.4334 3.14658 10.3937C3.05134 10.354 2.94915 10.3336 2.84596 10.3338ZM2.84596 12.3165C2.68996 12.317 2.53543 12.2864 2.39143 12.2264C2.24742 12.1664 2.11685 12.0782 2.00735 11.9671C1.78614 11.743 1.66211 11.4408 1.66211 11.126C1.66211 10.8111 1.78614 10.5089 2.00735 10.2849C2.45513 9.83487 3.23679 9.83459 3.68374 10.2849C3.90528 10.5088 4.02954 10.811 4.02954 11.126C4.02954 11.4409 3.90528 11.7432 3.68374 11.9671C3.57434 12.0781 3.4439 12.1662 3.30005 12.2262C3.1562 12.2862 3.00182 12.3169 2.84596 12.3165Z" fill="#333333"/>
<path fill-rule="evenodd" clip-rule="evenodd" d="M3.54252 10.1444C3.45135 10.2364 3.34286 10.3095 3.22331 10.3593C3.10376 10.4092 2.97552 10.4348 2.84599 10.4348C2.71647 10.4348 2.58822 10.4092 2.46867 10.3593C2.34912 10.3095 2.24063 10.2364 2.14946 10.1444C1.96487 9.95789 1.86133 9.70605 1.86133 9.44361C1.86133 9.18117 1.96487 8.92932 2.14946 8.74277C2.24063 8.65077 2.34912 8.57774 2.46867 8.52789C2.58822 8.47805 2.71647 8.45239 2.84599 8.45239C2.97552 8.45239 3.10376 8.47805 3.22331 8.52789C3.34286 8.57774 3.45135 8.65077 3.54252 8.74277C3.72746 8.92919 3.83124 9.18115 3.83124 9.44375C3.83124 9.70634 3.72746 9.95802 3.54252 10.1444Z" fill="#FFCC3F"/>
<path fill-rule="evenodd" clip-rule="evenodd" d="M2.84596 8.65125C2.63624 8.65125 2.43929 8.73347 2.29041 8.88263C2.14266 9.0319 2.05978 9.23344 2.05978 9.44347C2.05978 9.65349 2.14266 9.85503 2.29041 10.0043C2.58735 10.3037 3.10429 10.3037 3.40068 10.0043C3.54843 9.85503 3.63131 9.65349 3.63131 9.44347C3.63131 9.23344 3.54843 9.0319 3.40068 8.88263C3.32819 8.8092 3.24181 8.75092 3.14658 8.71119C3.05134 8.67146 2.94915 8.65109 2.84596 8.65125ZM2.84596 10.6343C2.68994 10.6348 2.5354 10.6041 2.39139 10.544C2.24739 10.4839 2.11682 10.3957 2.00735 10.2846C1.78614 10.0605 1.66211 9.75833 1.66211 9.44347C1.66211 9.12861 1.78614 8.82642 2.00735 8.60236C2.45513 8.15208 3.23679 8.15208 3.68374 8.60236C3.90528 8.82625 4.02954 9.1285 4.02954 9.44347C4.02954 9.75844 3.90528 10.0607 3.68374 10.2846C3.57436 10.3956 3.44393 10.4838 3.30008 10.5438C3.15623 10.6039 3.00184 10.6346 2.84596 10.6343Z" fill="#333333"/>
<path fill-rule="evenodd" clip-rule="evenodd" d="M5.21373 11.8272C5.12257 11.9192 5.01409 11.9922 4.89457 12.042C4.77504 12.0918 4.64683 12.1174 4.51734 12.1174C4.38785 12.1174 4.25964 12.0918 4.14011 12.042C4.02059 11.9922 3.91211 11.9192 3.82095 11.8272C3.63601 11.6408 3.53223 11.3888 3.53223 11.1262C3.53223 10.8636 3.63601 10.6117 3.82095 10.4253C3.91211 10.3333 4.02059 10.2603 4.14011 10.2105C4.25964 10.1607 4.38785 10.135 4.51734 10.135C4.64683 10.135 4.77504 10.1607 4.89457 10.2105C5.01409 10.2603 5.12257 10.3333 5.21373 10.4253C5.39868 10.6117 5.50246 10.8636 5.50246 11.1262C5.50246 11.3888 5.39868 11.6408 5.21373 11.8272Z" fill="#FFCC3F"/>
<path fill-rule="evenodd" clip-rule="evenodd" d="M4.51784 10.3338C4.30812 10.3338 4.11118 10.416 3.96284 10.5651C3.8151 10.7144 3.73222 10.916 3.73222 11.126C3.73222 11.336 3.8151 11.5375 3.96284 11.6868C4.25923 11.9851 4.7759 11.9851 5.07312 11.6868C5.22047 11.5373 5.30307 11.3359 5.30307 11.126C5.30307 10.9161 5.22047 10.7146 5.07312 10.5651C5.00053 10.4916 4.91402 10.4333 4.81863 10.3935C4.72324 10.3538 4.62117 10.3335 4.51784 10.3338ZM4.51757 12.3165C4.3617 12.3169 4.20733 12.2862 4.06348 12.2262C3.91963 12.1662 3.78919 12.0781 3.67979 11.9671C3.45825 11.7432 3.33398 11.4409 3.33398 11.126C3.33398 10.811 3.45825 10.5088 3.67979 10.2849C4.12729 9.83459 4.90923 9.83487 5.35618 10.2849C5.57738 10.5089 5.70142 10.8111 5.70142 11.126C5.70142 11.4408 5.57738 11.743 5.35618 11.9671C5.24671 12.0782 5.11618 12.1663 4.97223 12.2263C4.82828 12.2863 4.67352 12.317 4.51757 12.3165Z" fill="#333333"/>
<path fill-rule="evenodd" clip-rule="evenodd" d="M4.23933 10.8459C4.1664 10.9195 4.07962 10.9779 3.98401 11.0177C3.88839 11.0576 3.78583 11.0781 3.68224 11.0781C3.57866 11.0781 3.47609 11.0576 3.38048 11.0177C3.28486 10.9779 3.19809 10.9195 3.12516 10.8459C2.97741 10.6966 2.89453 10.4951 2.89453 10.2851C2.89453 10.0751 2.97741 9.87352 3.12516 9.72425C3.19809 9.65064 3.28489 9.59222 3.38053 9.55235C3.47617 9.51247 3.57876 9.49194 3.68238 9.49194C3.786 9.49194 3.88859 9.51247 3.98424 9.55235C4.07988 9.59222 4.16667 9.65064 4.2396 9.72425C4.38735 9.87352 4.47023 10.0751 4.47023 10.2851C4.47023 10.4951 4.38707 10.6966 4.23933 10.8459Z" fill="#632DB8"/>
<path fill-rule="evenodd" clip-rule="evenodd" d="M3.68186 9.69072C3.52436 9.69072 3.37686 9.75239 3.26575 9.86433C3.155 9.97634 3.09288 10.1275 3.09288 10.285C3.09288 10.4425 3.155 10.5937 3.26575 10.7057C3.48853 10.9288 3.87492 10.9288 4.09714 10.7057C4.20816 10.5939 4.27046 10.4426 4.27046 10.285C4.27046 10.1274 4.20816 9.9762 4.09714 9.86433C4.04287 9.80933 3.97821 9.76566 3.90692 9.73586C3.83563 9.70605 3.75913 9.69071 3.68186 9.69072ZM3.68186 11.2774C3.41797 11.2774 3.16936 11.1738 2.98269 10.986C2.79825 10.7992 2.69482 10.5473 2.69482 10.2847C2.69482 10.0222 2.79825 9.77029 2.98269 9.5835C3.35575 9.2085 4.00742 9.2085 4.38019 9.5835C4.56492 9.7702 4.66854 10.0222 4.66854 10.2849C4.66854 10.5475 4.56492 10.7996 4.38019 10.9863C4.28897 11.0788 4.18023 11.1521 4.06032 11.2021C3.94042 11.2521 3.81176 11.2777 3.68186 11.2774Z" fill="#333333"/>
</svg>
