<svg width="18" height="18" viewBox="0 0 18 18" fill="none" xmlns="http://www.w3.org/2000/svg">
<path fill-rule="evenodd" clip-rule="evenodd" d="M12.9309 3.86472C12.9309 3.03416 12.487 2.30639 11.8204 1.89277C11.5373 0.91583 10.6237 0.199997 9.53787 0.199997C9.12681 0.199823 8.7226 0.305227 8.36398 0.506108C8.0572 0.305606 7.69852 0.199113 7.33203 0.199719C6.98047 0.198447 6.6357 0.296481 6.3374 0.482535C6.03911 0.668589 5.79941 0.9351 5.64592 1.25139C4.5737 1.47722 3.76953 2.41166 3.76953 3.53139C3.76953 4.13583 4.00509 4.68416 4.3887 5.09861C4.20431 5.43528 4.10799 5.81309 4.1087 6.19694C4.1087 7.48528 5.17203 8.52944 6.4837 8.52944C7.11346 8.5312 7.71844 8.28422 8.16703 7.84222C8.6922 8.2871 9.35848 8.53069 10.0468 8.52944C11.6393 8.52944 12.9309 7.26111 12.9309 5.6975C12.9302 5.36978 12.8715 5.04477 12.7576 4.7375C12.8684 4.4675 12.9309 4.17361 12.9309 3.86472Z" fill="#FFCC3F"/>
<mask id="mask0_4973_1028" style="mask-type:luminance" maskUnits="userSpaceOnUse" x="3" y="0" width="11" height="9">
<path d="M3.56982 0H13.1309V8.72944H3.56982V0Z" fill="white"/>
</mask>
<g mask="url(#mask0_4973_1028)">
<path fill-rule="evenodd" clip-rule="evenodd" d="M8.16753 7.64222C8.21337 7.64222 8.2592 7.65806 8.29698 7.68972C8.78661 8.10287 9.40661 8.32947 10.0473 8.32944C11.5278 8.32944 12.732 7.14889 12.732 5.69722C12.732 5.39722 12.6775 5.09722 12.5706 4.80639C12.5533 4.75941 12.5543 4.70767 12.5734 4.66139C12.678 4.40873 12.7319 4.13793 12.732 3.86444C12.732 3.13111 12.3517 2.45722 11.7159 2.06278C11.6739 2.0368 11.6431 1.99624 11.6292 1.94889C11.3645 1.03694 10.5048 0.399722 9.53837 0.399722C9.1616 0.399912 8.79115 0.496493 8.46226 0.680278C8.43039 0.698073 8.39426 0.706807 8.35778 0.705534C8.3213 0.704261 8.28586 0.693029 8.25531 0.673056C7.9811 0.494038 7.66056 0.399035 7.33309 0.399722C6.69142 0.399722 6.10031 0.768056 5.82587 1.33861C5.81264 1.36611 5.7933 1.39022 5.76933 1.40909C5.74535 1.42797 5.71737 1.44111 5.68753 1.4475C4.69198 1.65639 3.96976 2.53306 3.96976 3.53111C3.96976 4.06028 4.17115 4.56806 4.53587 4.9625C4.56428 4.9932 4.58234 5.03204 4.58752 5.07355C4.59271 5.11506 4.58474 5.15714 4.56476 5.19389C4.39756 5.50202 4.30974 5.84693 4.3092 6.1975C4.3092 7.37278 5.28476 8.32944 6.4842 8.32944C7.06753 8.32944 7.61559 8.10583 8.02753 7.69944C8.06508 7.66303 8.11523 7.64253 8.16753 7.64222ZM10.0473 8.72945C9.37087 8.72945 8.71365 8.50861 8.17698 8.10528C7.70614 8.50995 7.10532 8.73153 6.48448 8.72945C5.06448 8.72945 3.90948 7.59333 3.90948 6.1975C3.90948 5.82806 3.99226 5.46139 4.14976 5.12806C3.77619 4.67977 3.5712 4.11493 3.57031 3.53139C3.57031 2.37722 4.38087 1.36 5.51031 1.07806C5.86809 0.42 6.57309 0 7.33309 0C7.70003 0 8.05698 0.0947222 8.37198 0.275833C8.73421 0.0946504 9.13363 0.000217222 9.53865 0C10.6561 0 11.6534 0.721667 11.9909 1.76444C12.7067 2.23667 13.1314 3.01639 13.1314 3.86444C13.1314 4.16444 13.0775 4.45889 12.9717 4.74111C13.0775 5.05361 13.1314 5.37472 13.1314 5.69722C13.1314 7.36917 11.7481 8.72945 10.0475 8.72945" fill="#333333"/>
</g>
<path fill-rule="evenodd" clip-rule="evenodd" d="M8.02206 3.02051C7.84403 3.37562 7.57039 3.67397 7.23196 3.88195C6.89353 4.08994 6.50374 4.19931 6.10651 4.19773C5.81571 4.19598 5.52824 4.13571 5.26123 4.02051V6.42356C5.26123 7.88829 6.44651 9.07634 7.90873 9.07634H8.79123C10.2537 9.07634 11.439 7.6619 11.439 6.19662V3.20051C11.0053 3.62562 10.4224 3.86394 9.81512 3.8644C9.47242 3.86545 9.13377 3.79028 8.8237 3.64433C8.51363 3.49838 8.23963 3.28529 8.02206 3.02051Z" fill="white"/>
<path fill-rule="evenodd" clip-rule="evenodd" d="M5.4609 4.30402V6.4243C5.4609 7.77624 6.55951 8.87652 7.90923 8.87652H8.79118C10.0959 8.87652 11.2392 7.6243 11.2392 6.19735V3.62236C10.8204 3.91107 10.3235 4.06515 9.81479 4.06402C9.15978 4.06605 8.5299 3.81207 8.05951 3.35624C7.5159 4.17986 6.46423 4.59652 5.46118 4.30347M8.79118 9.27597H7.90923C6.33868 9.27597 5.06201 7.99652 5.06201 6.42402V4.02013C5.06198 3.98715 5.07011 3.95468 5.08566 3.9256C5.10122 3.89652 5.12373 3.87174 5.15118 3.85347C5.17871 3.83528 5.21032 3.82419 5.24318 3.82119C5.27604 3.81818 5.30914 3.82336 5.33951 3.83624C6.32618 4.25569 7.4034 3.81597 7.84312 2.93124C7.85811 2.90144 7.8803 2.87585 7.90768 2.85678C7.93506 2.83771 7.96676 2.82578 7.99991 2.82205C8.03306 2.81833 8.06662 2.82294 8.09755 2.83545C8.12847 2.84797 8.15578 2.86801 8.17701 2.89374C8.37579 3.13558 8.62587 3.33018 8.90913 3.46345C9.19239 3.59672 9.50175 3.66532 9.81479 3.6643C10.3703 3.6652 10.9037 3.44712 11.2995 3.05736C11.3279 3.03027 11.3635 3.01199 11.4021 3.00474C11.4406 2.99749 11.4805 3.00159 11.5167 3.01652C11.5909 3.04763 11.639 3.12013 11.639 3.20013V6.19735C11.639 7.83735 10.3084 9.27597 8.79118 9.27597Z" fill="#333333"/>
<path fill-rule="evenodd" clip-rule="evenodd" d="M9.33423 4.86426C9.08311 4.86426 8.87978 5.06426 8.87978 5.31092C8.87978 5.55759 9.08311 5.75787 9.33423 5.75787C9.58534 5.75787 9.78895 5.55759 9.78895 5.31092C9.78895 5.06453 9.58506 4.86426 9.33423 4.86426ZM9.33423 5.26426C9.36478 5.26426 9.38923 5.28481 9.38923 5.31092C9.38923 5.33676 9.36478 5.35815 9.33423 5.35815C9.30367 5.35815 9.27895 5.33676 9.27895 5.31092C9.27895 5.28509 9.30367 5.26426 9.33423 5.26426ZM7.51506 4.86426C7.26423 4.86426 7.06006 5.06426 7.06006 5.31092C7.06006 5.55759 7.26423 5.75787 7.51506 5.75787C7.76589 5.75787 7.9695 5.55759 7.9695 5.31092C7.9695 5.06453 7.76589 4.86426 7.51506 4.86426ZM7.51506 5.26426C7.54561 5.26426 7.57006 5.28481 7.57006 5.31092C7.57006 5.33676 7.54561 5.35815 7.51506 5.35815C7.4845 5.35815 7.46006 5.33676 7.46006 5.31092C7.46006 5.28509 7.4845 5.26426 7.51506 5.26426Z" fill="#333333"/>
<path fill-rule="evenodd" clip-rule="evenodd" d="M8.42507 7.544C8.92729 7.544 9.33424 7.144 9.33424 6.65039H7.51562C7.51562 7.144 7.92285 7.544 8.42507 7.544Z" fill="white"/>
<path fill-rule="evenodd" clip-rule="evenodd" d="M9.3343 6.65063H7.51514C7.51514 7.14369 7.92264 7.54397 8.42486 7.54397C8.92708 7.54397 9.3343 7.14369 9.3343 6.65063ZM8.72319 7.05063C8.63572 7.11174 8.53156 7.14442 8.42486 7.14425C8.31319 7.14425 8.21014 7.10925 8.12597 7.05036L8.72319 7.05063Z" fill="#333333"/>
<path fill-rule="evenodd" clip-rule="evenodd" d="M3.8852 16.4756H3.73575C1.78297 16.4756 0.200195 14.8928 0.200195 12.9401V8.87866H7.42103V12.9398C7.42103 14.8926 5.83797 16.4756 3.8852 16.4756Z" fill="white"/>
<path fill-rule="evenodd" clip-rule="evenodd" d="M0.4 9.07864V12.9398C0.4 14.7792 1.89667 16.2759 3.73611 16.2759H3.88528C5.72472 16.2759 7.22139 14.7792 7.22139 12.9398V9.07864H0.4ZM3.88528 16.6759H3.73583C1.67611 16.6759 1.93182e-07 14.9998 1.93182e-07 12.9398V8.87948C-3.63105e-05 8.85321 0.00510082 8.8272 0.0151181 8.80292C0.0251353 8.77864 0.0398366 8.75657 0.0583825 8.73798C0.0769285 8.71938 0.0989558 8.70461 0.123207 8.69453C0.147458 8.68445 0.173459 8.67924 0.199723 8.6792H7.42083C7.47388 8.6792 7.52475 8.70027 7.56226 8.73778C7.59976 8.77529 7.62083 8.82616 7.62083 8.8792V12.9403C7.62083 15 5.945 16.6759 3.88528 16.6759Z" fill="#333333"/>
<path fill-rule="evenodd" clip-rule="evenodd" d="M5.97665 7.49612H5.84415C5.92471 7.32112 5.97665 7.13501 5.97665 6.93918C5.97665 6.01584 5.00693 5.26807 3.81054 5.26807C2.61415 5.26807 1.64387 6.01584 1.64387 6.93918C1.64387 7.13501 1.69582 7.32112 1.77665 7.49612H1.64415C0.846651 7.49612 0.199707 7.99529 0.199707 8.61001V10.2811C0.199707 10.5895 0.523318 10.8386 0.921929 10.8386C1.32054 10.8386 1.64415 10.5895 1.64415 10.2811C1.64415 10.5895 1.96748 10.8386 2.36637 10.8386C2.76498 10.8386 3.0886 10.5895 3.0886 10.2811C3.0886 10.5895 3.41137 10.8386 3.81082 10.8386C4.20943 10.8386 4.53304 10.5895 4.53304 10.2811C4.53304 10.5895 4.85582 10.8386 5.25443 10.8386C5.65304 10.8386 5.97665 10.5895 5.97665 10.2811C5.97665 10.5895 6.29998 10.8386 6.69887 10.8386C7.09748 10.8386 7.4211 10.5895 7.4211 10.2811V8.61001C7.4211 7.99529 6.77387 7.49612 5.97665 7.49612Z" fill="#632DB8"/>
<path fill-rule="evenodd" clip-rule="evenodd" d="M5.77694 10.2815H6.17611C6.17611 10.4751 6.41556 10.6387 6.69861 10.6387C6.98167 10.6387 7.22139 10.4751 7.22139 10.2815V8.61041C7.22139 8.10624 6.66306 7.69624 5.97667 7.69624H5.5325L5.66306 7.41235C5.73917 7.24568 5.77694 7.09068 5.77694 6.93902C5.77694 6.1279 4.89444 5.46735 3.81056 5.46735C2.72611 5.46735 1.84417 6.1279 1.84417 6.93902C1.84417 7.09124 1.88139 7.24624 1.95806 7.41235L2.08917 7.69624H1.64389C0.958334 7.69624 0.399722 8.10624 0.399722 8.61013V10.2815C0.399722 10.4751 0.639167 10.6387 0.9225 10.6387C1.20556 10.6387 1.44444 10.4751 1.44444 10.2815H1.84444C1.84444 10.4751 2.08361 10.6387 2.36611 10.6387C2.64944 10.6387 2.88861 10.4751 2.88861 10.2815H3.28861C3.28861 10.4751 3.5275 10.6387 3.81056 10.6387C4.09361 10.6387 4.33306 10.4751 4.33306 10.2815H4.7325C4.7325 10.4751 4.97194 10.6387 5.25444 10.6387C5.53778 10.6387 5.77694 10.4751 5.77694 10.2815ZM6.69889 11.0387C6.40639 11.0387 6.14556 10.9262 5.97667 10.7518C5.80722 10.9262 5.54667 11.0387 5.25444 11.0387C4.96278 11.0387 4.70139 10.9262 4.53278 10.7518C4.36361 10.9262 4.10278 11.0387 3.81056 11.0387C3.51833 11.0387 3.2575 10.9262 3.08833 10.7518C2.91917 10.9262 2.65861 11.0387 2.36611 11.0387C2.07389 11.0387 1.81333 10.9262 1.64389 10.7518C1.475 10.9262 1.21417 11.0387 0.9225 11.0387C0.413334 11.0387 0 10.6987 0 10.2815V8.61041C0 7.92624 0.657223 7.3629 1.49333 7.30179C1.4611 7.18355 1.44466 7.06157 1.44444 6.93902C1.44444 5.90707 2.50556 5.06763 3.81056 5.06763C5.11528 5.06763 6.17611 5.90707 6.17611 6.93902C6.17611 7.05957 6.16028 7.17957 6.1275 7.30179C6.96361 7.3629 7.62056 7.92624 7.62056 8.61013V10.2815C7.62056 10.6987 7.20778 11.0387 6.69889 11.0387Z" fill="#333333"/>
<path fill-rule="evenodd" clip-rule="evenodd" d="M5.40485 12.4233C5.40485 12.712 5.16708 12.9456 4.87319 12.9456C4.5793 12.9456 4.3418 12.712 4.3418 12.4233C4.3418 12.1353 4.57958 11.9011 4.87319 11.9011C5.16708 11.9011 5.40485 12.1353 5.40485 12.4233Z" fill="white"/>
<path fill-rule="evenodd" clip-rule="evenodd" d="M4.87346 11.9014C4.57958 11.9014 4.3418 12.1353 4.3418 12.4233C4.3418 12.712 4.57958 12.9456 4.87346 12.9456C5.16735 12.9456 5.40485 12.712 5.40485 12.4233C5.40485 12.1353 5.16708 11.9014 4.87346 11.9014ZM4.87346 12.3011C4.94624 12.3011 5.00569 12.3556 5.00569 12.4233C5.00569 12.4908 4.94624 12.5456 4.87346 12.5456C4.80124 12.5456 4.74152 12.4908 4.74152 12.4233C4.74152 12.3556 4.80096 12.3011 4.87346 12.3011Z" fill="#333333"/>
<path fill-rule="evenodd" clip-rule="evenodd" d="M3.27888 12.4233C3.27888 12.712 3.04054 12.9456 2.74721 12.9456C2.45388 12.9456 2.21582 12.712 2.21582 12.4233C2.21582 12.1353 2.4536 11.9011 2.74721 11.9011C3.04082 11.9011 3.27888 12.1353 3.27888 12.4233Z" fill="white"/>
<path fill-rule="evenodd" clip-rule="evenodd" d="M2.747 11.9014C2.45311 11.9014 2.21533 12.1353 2.21533 12.4233C2.21533 12.712 2.45311 12.9456 2.747 12.9456C3.04089 12.9456 3.27894 12.712 3.27894 12.4233C3.27894 12.1353 3.04061 11.9014 2.747 11.9014ZM2.747 12.3011C2.81978 12.3011 2.87922 12.3556 2.87922 12.4233C2.87922 12.4908 2.81978 12.5456 2.747 12.5456C2.67478 12.5456 2.61505 12.4908 2.61505 12.4233C2.61505 12.3556 2.6745 12.3011 2.747 12.3011Z" fill="#333333"/>
<path fill-rule="evenodd" clip-rule="evenodd" d="M3.81061 15.0334C4.39756 15.0334 4.87367 14.5662 4.87367 13.9895H2.74756C2.74756 14.5662 3.22311 15.0334 3.81061 15.0334Z" fill="white"/>
<path fill-rule="evenodd" clip-rule="evenodd" d="M4.87367 13.9895H2.74756C2.74756 14.5659 3.22339 15.0334 3.81061 15.0334C4.39784 15.0334 4.87367 14.5659 4.87367 13.9895ZM4.33061 14.3895C4.26749 14.4662 4.18808 14.528 4.09814 14.5702C4.00819 14.6124 3.90998 14.6341 3.81061 14.6337C3.71118 14.6341 3.6129 14.6124 3.5229 14.5701C3.43291 14.5278 3.35346 14.466 3.29034 14.3892L4.33061 14.3895Z" fill="#333333"/>
<path fill-rule="evenodd" clip-rule="evenodd" d="M16.2936 9.23535V14.367C16.2936 15.962 15.0031 17.2545 13.4114 17.2545H12.4503C10.8586 17.2545 9.56836 15.962 9.56836 14.367V9.23535H16.2936Z" fill="white"/>
<path fill-rule="evenodd" clip-rule="evenodd" d="M9.76858 9.4354V14.3673C9.76858 15.849 10.9722 17.0548 12.4511 17.0548H13.4122C14.8914 17.0548 16.0947 15.849 16.0947 14.3673V9.4354H9.76858ZM13.4122 17.4548H12.4511C10.7514 17.4548 9.36914 16.0698 9.36914 14.3673V9.2354C9.36914 9.18241 9.39017 9.13158 9.42762 9.09408C9.46507 9.05658 9.51587 9.03547 9.56886 9.0354H16.2944C16.3475 9.0354 16.3983 9.05647 16.4358 9.09398C16.4733 9.13149 16.4944 9.18236 16.4944 9.2354V14.3673C16.4944 16.0698 15.1111 17.4548 13.4122 17.4548Z" fill="#333333"/>
<path fill-rule="evenodd" clip-rule="evenodd" d="M16.2943 11.3894C15.8673 11.7015 15.352 11.8692 14.8232 11.8683C13.9168 11.8683 13.1351 11.3861 12.7168 10.6797C12.3693 11.3803 11.6318 11.8683 10.7701 11.8683C10.3257 11.8683 9.91263 11.7392 9.56902 11.5183C8.98958 11.1456 8.60791 10.5122 8.60791 9.79278C8.60791 8.64639 9.57597 7.7175 10.7701 7.7175C10.9826 7.7175 11.1846 7.75555 11.3793 7.81055C11.5729 7.15944 12.191 6.67944 12.9318 6.67944C13.4512 6.67944 13.9085 6.91833 14.2054 7.28389C14.4037 7.23361 14.6082 7.19805 14.8232 7.19805C16.1662 7.19805 17.2554 8.24389 17.2554 9.53333C17.2554 10.2917 16.8776 10.9628 16.2943 11.3894Z" fill="#FFCC3F"/>
<mask id="mask1_4973_1028" style="mask-type:luminance" maskUnits="userSpaceOnUse" x="8" y="6" width="10" height="7">
<path d="M8.40771 6.47974H17.4547V12.0678H8.40771V6.47974Z" fill="white"/>
</mask>
<g mask="url(#mask1_4973_1028)">
<path fill-rule="evenodd" clip-rule="evenodd" d="M12.7163 10.48C12.7511 10.4801 12.7852 10.4892 12.8153 10.5064C12.8455 10.5236 12.8706 10.5484 12.8883 10.5783C13.2863 11.2506 14.0277 11.6681 14.823 11.6681C15.3095 11.6696 15.7836 11.5153 16.176 11.2278C16.7347 10.8195 17.0549 10.2014 17.0549 9.53335C17.0549 8.35557 16.0535 7.39835 14.823 7.39835C14.6483 7.39835 14.4677 7.42335 14.2547 7.47751C14.2176 7.48696 14.1787 7.48559 14.1424 7.47358C14.1061 7.46157 14.074 7.43941 14.0499 7.40974C13.915 7.24332 13.7445 7.10927 13.5509 7.01745C13.3573 6.92564 13.1456 6.87839 12.9313 6.87918C12.303 6.87918 11.7438 7.28585 11.5702 7.86807C11.5629 7.89314 11.5508 7.91652 11.5345 7.93688C11.5181 7.95724 11.4979 7.97418 11.475 7.98672C11.4522 7.99926 11.427 8.00716 11.4011 8.00997C11.3751 8.01277 11.3489 8.01043 11.3238 8.00307C11.1166 7.94418 10.9405 7.91696 10.7697 7.91696C9.68744 7.91696 8.80771 8.75807 8.80771 9.79224C8.80771 10.4178 9.13216 11.0006 9.6766 11.35C10.0029 11.5588 10.3823 11.6692 10.7697 11.6681C11.5308 11.6681 12.208 11.2553 12.5374 10.5914C12.5534 10.5592 12.5777 10.5319 12.6079 10.5123C12.638 10.4928 12.6729 10.4817 12.7088 10.4803L12.7163 10.48ZM14.823 12.0675C13.9988 12.0675 13.223 11.6853 12.7288 11.052C12.2947 11.6858 11.5705 12.0675 10.7697 12.0675C10.3057 12.0686 9.8512 11.9361 9.46049 11.6858C8.80133 11.2628 8.40771 10.5547 8.40771 9.79224C8.40771 8.53779 9.46716 7.51724 10.7697 7.51724C10.9252 7.51724 11.0816 7.53529 11.2524 7.57279C11.5294 6.92057 12.1938 6.47974 12.9313 6.47974C13.446 6.47974 13.9299 6.68974 14.2763 7.06113C14.4557 7.02015 14.639 6.99909 14.823 6.99835C16.2738 6.99835 17.4547 8.13529 17.4547 9.53307C17.4547 10.3306 17.0747 11.0658 16.4124 11.5508C15.9514 11.8885 15.3944 12.0694 14.823 12.0675Z" fill="#333333"/>
</g>
<path fill-rule="evenodd" clip-rule="evenodd" d="M13.9214 12.4966C13.648 12.4966 13.4261 12.7141 13.4261 12.9827C13.4261 13.2507 13.6483 13.4688 13.9214 13.4688C14.1947 13.4688 14.4166 13.2507 14.4166 12.9827C14.4166 12.7141 14.1944 12.4966 13.9214 12.4966ZM13.9214 12.8966C13.9739 12.8966 14.0169 12.9349 14.0169 12.9827C14.0169 13.0305 13.9739 13.0694 13.9214 13.0694C13.8686 13.0694 13.8258 13.0305 13.8258 12.9824C13.8258 12.9352 13.8686 12.8966 13.9214 12.8966ZM11.9411 12.4966C11.6677 12.4966 11.4458 12.7141 11.4458 12.9827C11.4458 13.2507 11.6677 13.4688 11.9411 13.4688C12.2144 13.4688 12.4364 13.2507 12.4364 12.9827C12.4364 12.7141 12.2141 12.4966 11.9411 12.4966ZM11.9411 12.8966C11.9933 12.8966 12.0364 12.9349 12.0364 12.9827C12.0364 13.0305 11.9933 13.0694 11.9411 13.0694C11.8883 13.0694 11.8455 13.0305 11.8455 12.9824C11.8455 12.9352 11.888 12.8966 11.9411 12.8966Z" fill="#333333"/>
<path fill-rule="evenodd" clip-rule="evenodd" d="M12.9309 15.4131C13.4776 15.4131 13.9209 14.9779 13.9209 14.4409H11.9409C11.9409 14.9779 12.3845 15.4131 12.9309 15.4131Z" fill="white"/>
<path fill-rule="evenodd" clip-rule="evenodd" d="M13.9215 14.4409H11.9409C11.9409 14.9781 12.3845 15.4134 12.9315 15.4134C13.4784 15.4134 13.9215 14.9781 13.9215 14.4409ZM13.3537 14.8409C13.2414 14.9521 13.0895 15.0142 12.9315 15.0137C12.7732 15.0143 12.6211 14.9521 12.5087 14.8406L13.3537 14.8409Z" fill="#333333"/>
</svg>
