<svg width="current" height="current" viewBox="0 0 34 24" fill="none" xmlns="http://www.w3.org/2000/svg">
<path fill-rule="evenodd" clip-rule="evenodd" d="M21.0593 8.68726H12.5383C12.1226 8.68726 11.7852 8.34979 11.7852 7.93464V3.56244C11.7852 3.14676 12.1226 2.80981 12.5383 2.80981H21.0593C21.475 2.80981 21.8119 3.14676 21.8119 3.56244V7.93464C21.8119 8.35032 21.475 8.68726 21.0593 8.68726Z" fill="white"/>
<path fill-rule="evenodd" clip-rule="evenodd" d="M12.5386 3.19413C12.4409 3.19441 12.3473 3.23333 12.2783 3.30239C12.2092 3.37144 12.1703 3.46502 12.17 3.56268V7.93487C12.17 8.13736 12.3361 8.30235 12.5386 8.30235H21.059C21.2626 8.30235 21.4276 8.13736 21.4276 7.93487V3.56214C21.4273 3.46448 21.3884 3.37091 21.3193 3.30185C21.2503 3.2328 21.1567 3.19388 21.059 3.1936L12.5386 3.19413ZM21.059 9.07158H12.5386C12.2372 9.0713 11.9482 8.95145 11.7351 8.73833C11.522 8.52522 11.4021 8.23626 11.4019 7.93487V3.56214C11.4019 2.93433 11.9107 2.42383 12.5386 2.42383H21.059C21.6868 2.42383 22.1968 2.93433 22.1968 3.56214V7.93434C22.1968 8.56108 21.6868 9.07158 21.059 9.07158Z" fill="#333333"/>
<path fill-rule="evenodd" clip-rule="evenodd" d="M1.3614 22.7131H1.13588C0.936647 22.7133 0.745511 22.6343 0.604482 22.4936C0.463453 22.3528 0.384073 22.1619 0.383789 21.9626V12.2706H2.11242V21.9626C2.11242 22.3772 1.77601 22.7131 1.3614 22.7131Z" fill="white"/>
<path fill-rule="evenodd" clip-rule="evenodd" d="M0.769767 12.6545V21.9625C0.769767 22.1639 0.933148 22.3278 1.13617 22.3278H1.36169C1.45868 22.3278 1.55171 22.2893 1.6204 22.2208C1.68908 22.1524 1.72781 22.0594 1.72809 21.9625V12.6545H0.769767ZM1.36169 23.097H1.13617C0.835073 23.0972 0.546245 22.9777 0.333187 22.765C0.12013 22.5522 0.000284019 22.2636 0 21.9625L0 12.2705C0 12.0573 0.171952 11.8848 0.38408 11.8848H2.11271C2.2149 11.8849 2.31287 11.9256 2.38508 11.9979C2.4573 12.0702 2.49786 12.1683 2.49786 12.2705V21.9625C2.49715 22.2633 2.37724 22.5517 2.16439 22.7643C1.95154 22.977 1.66256 23.0966 1.36169 23.097Z" fill="#333333"/>
<path fill-rule="evenodd" clip-rule="evenodd" d="M32.462 22.7131H32.237C32.1383 22.7133 32.0405 22.694 31.9493 22.6563C31.8581 22.6187 31.7751 22.5634 31.7053 22.4937C31.6354 22.4241 31.5799 22.3413 31.542 22.2502C31.5041 22.159 31.4845 22.0613 31.4844 21.9626V12.2706H33.2125V21.9626C33.2125 22.0613 33.1932 22.1589 33.1554 22.25C33.1177 22.3412 33.0624 22.4239 32.9926 22.4937C32.9229 22.5634 32.84 22.6186 32.7489 22.6563C32.6577 22.6939 32.5606 22.7133 32.462 22.7131Z" fill="white"/>
<path fill-rule="evenodd" clip-rule="evenodd" d="M31.8699 12.6545V21.9625C31.8699 22.1639 32.0338 22.3278 32.2363 22.3278H32.4618C32.5588 22.3278 32.6518 22.2893 32.7205 22.2208C32.7892 22.1524 32.8279 22.0594 32.8282 21.9625V12.6545H31.8699ZM32.4618 23.097H32.2368C32.0877 23.0972 31.94 23.0679 31.8021 23.011C31.6643 22.954 31.539 22.8705 31.4335 22.7652C31.3279 22.6598 31.2442 22.5347 31.187 22.397C31.1298 22.2592 31.1002 22.1116 31.1001 21.9625V12.2705C31.1001 12.1682 31.1407 12.0701 31.2131 11.9977C31.2854 11.9254 31.3835 11.8848 31.4858 11.8848H33.2128C33.3151 11.8848 33.4132 11.9254 33.4855 11.9977C33.5579 12.0701 33.5985 12.1682 33.5985 12.2705V21.9625C33.5978 22.2635 33.4777 22.552 33.2646 22.7647C33.0516 22.9774 32.7628 23.0969 32.4618 23.097Z" fill="#333333"/>
<path fill-rule="evenodd" clip-rule="evenodd" d="M0.383789 12.2445H33.2132V8.78943H0.383789V12.2445Z" fill="white"/>
<path fill-rule="evenodd" clip-rule="evenodd" d="M0.769767 11.8592H32.8278V9.17336H0.769767V11.8592ZM33.2135 12.6285H0.38408C0.282346 12.6281 0.184899 12.5875 0.112962 12.5155C0.0410243 12.4436 0.000423016 12.3461 0 12.2444L0 8.79035C-8.85516e-07 8.68834 0.0404132 8.59048 0.112396 8.5182C0.184379 8.44591 0.282068 8.40509 0.38408 8.40466H33.2135C33.3155 8.40509 33.4132 8.44591 33.4852 8.5182C33.5572 8.59048 33.5976 8.68834 33.5976 8.79035V12.2444C33.5972 12.3461 33.5566 12.4436 33.4846 12.5155C33.4127 12.5875 33.3153 12.6281 33.2135 12.6285Z" fill="#333333"/>
<path fill-rule="evenodd" clip-rule="evenodd" d="M29.325 2.18113H26.7339V1.52493C26.7339 0.823189 27.3017 0.255371 28.0034 0.255371H28.057C28.3934 0.255797 28.7159 0.389741 28.9537 0.627783C29.1914 0.865824 29.325 1.1885 29.325 1.52493V2.18113Z" fill="#FFCC3F"/>
<path fill-rule="evenodd" clip-rule="evenodd" d="M26.9901 1.92415H29.0686V1.52561C29.0684 1.25704 28.9617 0.999496 28.7719 0.809489C28.5821 0.619483 28.3247 0.512533 28.0561 0.512107C27.4449 0.512107 26.9901 0.965825 26.9901 1.52561V1.92415ZM29.5828 2.43787H26.478V1.52561C26.4783 1.12108 26.6391 0.733199 26.9252 0.447154C27.2112 0.161108 27.5991 0.000283781 28.0036 0C28.8982 0 29.5823 0.683524 29.5823 1.52561L29.5828 2.43787Z" fill="#333333"/>
<path fill-rule="evenodd" clip-rule="evenodd" d="M28.3502 7.34286V2.18054H27.709V7.34286" fill="#333333"/>
<path fill-rule="evenodd" clip-rule="evenodd" d="M28.3499 7.34321C28.2454 7.31479 28.1378 7.29967 28.0295 7.29822C27.917 7.29822 27.8115 7.31697 27.7081 7.34321C27.4332 7.41389 27.1895 7.57397 27.0154 7.79826C26.8414 8.02255 26.7468 8.29833 26.7466 8.58224H29.3114C29.3112 8.29833 29.2166 8.02255 29.0426 7.79826C28.8685 7.57397 28.6248 7.41389 28.3499 7.34321Z" fill="#632DB8"/>
<path fill-rule="evenodd" clip-rule="evenodd" d="M27.0366 8.32458H29.0223C28.9757 8.14811 28.883 7.98723 28.7536 7.85845C28.6243 7.72966 28.463 7.63762 28.2863 7.59177C28.1188 7.54091 27.9401 7.54091 27.7726 7.59177C27.5959 7.63762 27.4346 7.72966 27.3053 7.85845C27.1759 7.98723 27.0832 8.14811 27.0366 8.32458ZM29.5682 8.83776H26.4907V8.58063C26.4915 8.24023 26.6052 7.9097 26.814 7.64087C27.0228 7.37205 27.3149 7.18012 27.6446 7.0952C27.9312 7.02181 28.1304 7.02181 28.4143 7.0952C28.744 7.18012 29.0361 7.37205 29.2449 7.64087C29.4537 7.9097 29.5674 8.24023 29.5682 8.58063V8.83776Z" fill="#333333"/>
<path fill-rule="evenodd" clip-rule="evenodd" d="M21.1184 16.4138H12.4785V9.43929C12.4786 8.9838 12.5684 8.53278 12.7427 8.11199C12.9171 7.69119 13.1727 7.30887 13.4948 6.98684C13.8169 6.66481 14.1993 6.40938 14.6202 6.23513C15.041 6.06089 15.4921 5.97124 15.9476 5.97131H17.6494C18.1049 5.97124 18.5559 6.06089 18.9768 6.23513C19.3976 6.40938 19.78 6.66481 20.1022 6.98684C20.4243 7.30887 20.6798 7.69119 20.8542 8.11199C21.0286 8.53278 21.1184 8.9838 21.1184 9.43929V16.4138Z" fill="#632DB8"/>
<path fill-rule="evenodd" clip-rule="evenodd" d="M12.864 16.029H20.7331V9.43855C20.7318 8.62129 20.4065 7.83787 19.8285 7.26008C19.2505 6.68228 18.467 6.35726 17.6497 6.35627H15.9479C15.1305 6.35712 14.3469 6.68208 13.7688 7.25989C13.1907 7.8377 12.8653 8.62119 12.864 9.43855V16.029ZM21.5029 16.7988H12.0942V9.43855C12.0942 7.31459 13.8239 5.58704 15.9479 5.58704H17.6497C19.7748 5.58704 21.5029 7.31459 21.5029 9.43855V16.7988Z" fill="#333333"/>
<path fill-rule="evenodd" clip-rule="evenodd" d="M12.0942 22.713H12.864V16.4135H12.0942V22.713Z" fill="#333333"/>
<path fill-rule="evenodd" clip-rule="evenodd" d="M20.7329 22.713H21.5027V16.4135H20.7329V22.713Z" fill="#333333"/>
</svg>
