<svg width="18" height="18" viewBox="0 0 18 18" fill="none" xmlns="http://www.w3.org/2000/svg">
<path fill-rule="evenodd" clip-rule="evenodd" d="M6.76127 6.6868C6.57793 6.07014 6.10627 5.63014 5.54877 5.4743C5.13488 4.81319 4.33766 4.48764 3.57766 4.73291C3.28719 4.82716 3.02701 4.99694 2.82377 5.22486C2.56621 5.14532 2.29034 5.14745 2.03405 5.23097C1.51182 5.39958 1.15793 5.8643 1.08599 6.39291C0.38599 6.8018 0.0293237 7.6768 0.276546 8.50819C0.401166 8.93389 0.679038 9.29835 1.05655 9.53125C1.00152 9.82371 1.01743 10.1251 1.10293 10.4101C1.3871 11.3657 2.36182 11.9007 3.27988 11.6046C3.74016 11.4557 4.09849 11.1268 4.30627 10.7146C4.75349 10.9174 5.27016 10.9621 5.77294 10.8001C6.88738 10.4401 7.51127 9.20791 7.16599 8.04652C7.09387 7.80488 6.98115 7.57728 6.83266 7.37347C6.85125 7.14214 6.82705 6.90936 6.76127 6.6868Z" fill="#FFCC3F"/>
<path fill-rule="evenodd" clip-rule="evenodd" d="M2.43752 5.36736C2.32252 5.36736 2.20697 5.38542 2.09502 5.42125C1.66586 5.56042 1.34724 5.95208 1.28391 6.41958C1.2798 6.44963 1.26891 6.47835 1.25207 6.50356C1.23523 6.52878 1.21287 6.54984 1.18669 6.56514C0.555022 6.93514 0.252522 7.72847 0.468355 8.45125C0.578971 8.82965 0.825626 9.15378 1.16086 9.36125C1.1952 9.38243 1.22233 9.4135 1.23869 9.45039C1.25505 9.48727 1.25987 9.52824 1.25252 9.56792C1.20459 9.82941 1.21887 10.0985 1.29419 10.3535C1.41947 10.7746 1.69669 11.116 2.07363 11.314C2.24783 11.407 2.43905 11.4639 2.63577 11.481C2.8325 11.4982 3.03067 11.4754 3.21836 11.414C3.61224 11.2876 3.93502 11.0068 4.12724 10.6251C4.15046 10.579 4.1906 10.5437 4.23926 10.5265C4.28792 10.5093 4.34134 10.5116 4.38836 10.5329C4.80443 10.7227 5.27642 10.7502 5.71169 10.6099C6.72197 10.284 7.28863 9.15986 6.97447 8.10403C6.90816 7.88404 6.80544 7.67672 6.67058 7.49069C6.64288 7.4521 6.62961 7.40501 6.63308 7.35764C6.65033 7.15094 6.62885 6.94284 6.56974 6.74403C6.41197 6.21347 6.01002 5.8107 5.49502 5.66681C5.4469 5.65396 5.40553 5.62314 5.37947 5.58069C5.00586 4.98347 4.2903 4.71347 3.63891 4.92347C3.38212 5.00709 3.15209 5.15729 2.97224 5.35875C2.94701 5.38741 2.91399 5.40812 2.8772 5.41838C2.84042 5.42864 2.80145 5.42799 2.76502 5.41653C2.65901 5.3839 2.54844 5.36733 2.43752 5.36736ZM2.7628 11.8868C2.45739 11.8863 2.15673 11.8111 1.88697 11.6679C1.41419 11.4193 1.06752 10.9926 0.911133 10.4674C0.830138 10.1954 0.805561 9.90973 0.83891 9.62792C0.476177 9.36777 0.210896 8.99376 0.0852995 8.56542C-0.172756 7.69931 0.1703 6.7507 0.903633 6.2707C1.01641 5.69403 1.42724 5.21736 1.97252 5.04069C2.22729 4.95844 2.49931 4.94521 2.76086 5.00236C2.97342 4.79231 3.23216 4.63488 3.51641 4.54264C4.31697 4.28458 5.19447 4.59653 5.67613 5.30403C6.28947 5.50208 6.76336 5.99236 6.95252 6.63014C7.01863 6.85208 7.04697 7.08292 7.03669 7.31625C7.17836 7.52458 7.28641 7.75097 7.3578 7.98986C7.73308 9.25264 7.0503 10.5982 5.83447 10.9904C5.36474 11.1414 4.85825 11.1328 4.39391 10.966C4.15288 11.3589 3.77957 11.6529 3.34113 11.7951C3.15438 11.8555 2.95908 11.8865 2.7628 11.8868Z" fill="#333333"/>
<path fill-rule="evenodd" clip-rule="evenodd" d="M3.13933 7.16909C3.05045 7.76409 2.64878 8.28493 2.05933 8.47521C1.85556 8.53957 1.64039 8.55964 1.42822 8.53409L1.95878 10.318C2.28239 11.4049 3.37433 12.0185 4.39767 11.6885L5.01433 11.4891C6.03767 11.1591 6.55545 9.84187 6.23211 8.75465L5.57045 6.53076C5.3685 6.92687 5.02378 7.24743 4.58045 7.39048C4.07295 7.55409 3.54822 7.45521 3.13933 7.16909Z" fill="white"/>
<path fill-rule="evenodd" clip-rule="evenodd" d="M1.69893 8.74212L2.15032 10.2607C2.29754 10.7549 2.61893 11.1535 3.05588 11.383C3.2506 11.4872 3.46432 11.5511 3.68428 11.5709C3.90425 11.5907 4.12595 11.566 4.33615 11.4982L4.95365 11.2988C5.82588 11.0171 6.34393 9.83212 6.04004 8.81129L5.5006 6.99768C5.27558 7.26957 4.9779 7.47188 4.64227 7.58101C4.19042 7.72784 3.69901 7.69154 3.27365 7.4799C3.1006 8.04379 2.67726 8.48546 2.12032 8.66518C1.98476 8.70888 1.8443 8.73453 1.69893 8.74212ZM3.83226 11.9777C3.49642 11.9774 3.16576 11.8948 2.86921 11.7371C2.33643 11.4568 1.94532 10.9724 1.76754 10.3746L1.23699 8.59129C1.22745 8.55958 1.22594 8.52601 1.23258 8.49357C1.23922 8.46114 1.25381 8.43086 1.27504 8.40546C1.29616 8.38012 1.3233 8.36049 1.35397 8.34836C1.38464 8.33623 1.41786 8.33198 1.4506 8.33601C1.63457 8.358 1.82111 8.34057 1.99782 8.2849C2.49893 8.12296 2.8606 7.68462 2.94199 7.13962C2.94715 7.10587 2.96075 7.07396 2.98154 7.04686C3.00232 7.01977 3.02961 6.99836 3.06088 6.98462C3.09226 6.97149 3.12644 6.96646 3.16027 6.97001C3.19411 6.97355 3.22651 6.98555 3.25449 7.0049C3.62949 7.26768 4.0906 7.33879 4.51921 7.20018C4.89421 7.07907 5.20449 6.80907 5.39199 6.4399C5.40984 6.40403 5.4382 6.37445 5.47328 6.3551C5.50837 6.33575 5.54851 6.32754 5.58838 6.33157C5.62818 6.33517 5.666 6.35062 5.69695 6.37592C5.72789 6.40122 5.75055 6.43521 5.76199 6.47351L6.42365 8.6974C6.79171 9.93546 6.16227 11.3288 5.07643 11.6793L4.45893 11.8785C4.25645 11.9443 4.04516 11.9777 3.83226 11.9777Z" fill="#333333"/>
<path fill-rule="evenodd" clip-rule="evenodd" d="M4.56364 8.22562C4.53004 8.22533 4.49663 8.23059 4.46475 8.24117C4.28919 8.29784 4.1903 8.49201 4.2453 8.67534C4.28975 8.82423 4.42114 8.91923 4.56336 8.91923C4.59632 8.91923 4.62928 8.91414 4.66225 8.90395C4.8378 8.84729 4.93614 8.65312 4.88169 8.46979C4.86222 8.40009 4.82067 8.33858 4.76327 8.2945C4.70587 8.25043 4.63572 8.22616 4.56336 8.22534M3.2903 8.63618C3.2568 8.63592 3.22349 8.64117 3.19169 8.65173C3.01614 8.70868 2.91725 8.90284 2.97225 9.08617C3.01669 9.23506 3.14808 9.32979 3.2903 9.32979C3.32308 9.32979 3.35641 9.32562 3.38919 9.31451C3.56475 9.25784 3.6628 9.06367 3.60836 8.88034C3.5889 8.81069 3.54739 8.74921 3.49005 8.70514C3.4327 8.66107 3.36262 8.63705 3.2903 8.63618Z" fill="#333333"/>
<path fill-rule="evenodd" clip-rule="evenodd" d="M4.42025 10.435C4.77191 10.3217 4.9683 9.93332 4.85914 9.56665L3.58691 9.97776C3.69525 10.3439 4.0683 10.5486 4.42025 10.435Z" fill="white"/>
<path fill-rule="evenodd" clip-rule="evenodd" d="M4.8592 9.56689L3.58643 9.97745C3.67504 10.2752 3.93837 10.4663 4.22254 10.4663C4.28809 10.4665 4.35383 10.4562 4.41976 10.4352C4.77115 10.3216 4.96809 9.93273 4.8592 9.56689Z" fill="#333333"/>
<path fill-rule="evenodd" clip-rule="evenodd" d="M16.6703 8.56947L15.1544 11.3775C14.6831 12.2503 13.6358 12.5675 12.8144 12.0864L12.3186 11.7964C11.4978 11.3153 11.2136 10.2184 11.6842 9.34559L13.2008 6.53809L16.6703 8.56947Z" fill="white"/>
<path fill-rule="evenodd" clip-rule="evenodd" d="M13.2779 6.81509L11.8601 9.44036C11.4406 10.2181 11.6915 11.1979 12.4192 11.6237L12.9151 11.914C13.081 12.0123 13.2652 12.0756 13.4564 12.1002C13.6477 12.1248 13.8419 12.1101 14.0273 12.057C14.432 11.9434 14.7695 11.6687 14.9779 11.2823L16.4028 8.64453L13.2779 6.81509ZM13.6356 12.5112C13.3111 12.5114 12.9925 12.4242 12.7134 12.2587L12.2173 11.9693C11.3054 11.4351 10.9873 10.2154 11.5084 9.25064L13.024 6.44314C13.0367 6.4195 13.0541 6.39867 13.0751 6.3819C13.0961 6.36513 13.1202 6.35275 13.1461 6.34552C13.172 6.33829 13.1991 6.33634 13.2257 6.3398C13.2523 6.34325 13.278 6.35204 13.3012 6.36564L16.7706 8.39703C16.8153 8.42332 16.8481 8.46585 16.8622 8.51574C16.8763 8.56564 16.8705 8.61904 16.8462 8.66481L15.3301 11.4723C15.0692 11.9548 14.6442 12.2993 14.1342 12.442C13.9719 12.488 13.8041 12.5114 13.6354 12.5115" fill="#333333"/>
<path fill-rule="evenodd" clip-rule="evenodd" d="M16.0334 9.74841C15.7215 9.79014 15.4046 9.72597 15.1334 9.56618C14.6654 9.29174 14.4048 8.79202 14.3973 8.27924C14.2022 8.42082 13.9699 8.50211 13.7291 8.51307C13.4882 8.52403 13.2495 8.46418 13.0423 8.34091C12.8198 8.21041 12.6403 8.01781 12.5257 7.78674C12.3368 7.40841 12.3276 6.94618 12.5398 6.55313C12.6186 6.40491 12.7266 6.27424 12.8574 6.16904C12.9882 6.06384 13.139 5.98632 13.3006 5.94117C13.4623 5.89602 13.6314 5.88419 13.7978 5.9064C13.9642 5.9286 14.1243 5.98438 14.2684 6.07035C14.3782 6.13452 14.4707 6.21646 14.5546 6.30535C14.6995 6.1563 14.8905 6.06044 15.0966 6.03322C15.3027 6.00601 15.512 6.04903 15.6907 6.15535C15.9582 6.31257 16.1234 6.58146 16.1687 6.87091C16.2859 6.90313 16.4018 6.94591 16.5123 7.01063C17.2057 7.41646 17.4587 8.31702 17.0776 9.02285C16.9737 9.21804 16.8248 9.38567 16.6432 9.51185C16.4616 9.63803 16.2526 9.71912 16.0334 9.74841Z" fill="#FFCC3F"/>
<path fill-rule="evenodd" clip-rule="evenodd" d="M14.3977 8.07947C14.4502 8.07947 14.5006 8.10012 14.538 8.13697C14.5754 8.17382 14.5969 8.22391 14.5977 8.27642C14.604 8.73892 14.8482 9.16697 15.2346 9.39309C15.4668 9.53125 15.7391 9.58658 16.0068 9.55003H16.0074C16.3904 9.49864 16.7157 9.2717 16.9018 8.92781C17.2318 8.31725 17.0115 7.53447 16.4121 7.18336C16.3191 7.13014 16.2193 7.08968 16.1154 7.06309C16.0787 7.05256 16.0456 7.03185 16.0201 7.00335C15.9946 6.97484 15.9777 6.93969 15.9713 6.90197C15.9332 6.6567 15.794 6.44781 15.5896 6.32725C15.2946 6.15559 14.936 6.20197 14.6979 6.44586C14.6602 6.48447 14.6065 6.51781 14.5532 6.50586C14.5264 6.50542 14.4999 6.49963 14.4752 6.48886C14.4506 6.47808 14.4284 6.46252 14.4099 6.44309C14.3393 6.36501 14.2577 6.29763 14.1677 6.24309C14.0464 6.17072 13.9116 6.12371 13.7717 6.1049C13.6317 6.08609 13.4893 6.09587 13.3532 6.13364C13.2177 6.17168 13.0914 6.23684 12.9819 6.32518C12.8723 6.41351 12.7819 6.52318 12.716 6.64753C12.5421 6.96975 12.5382 7.36253 12.7049 7.69809C12.804 7.89531 12.9554 8.05864 13.1438 8.16892C13.3175 8.27292 13.518 8.32346 13.7202 8.31422C13.9224 8.30499 14.1175 8.23638 14.281 8.11697C14.3148 8.09223 14.3557 8.07907 14.3977 8.07947ZM15.8443 9.96059C15.5587 9.96045 15.2784 9.88361 15.0327 9.73809C14.6171 9.49475 14.3271 9.07531 14.2318 8.60031C14.0248 8.68716 13.8003 8.72455 13.5763 8.7095C13.3523 8.69446 13.1348 8.6274 12.9413 8.51364C12.6857 8.36336 12.4793 8.14196 12.3474 7.87642C12.1227 7.42475 12.1288 6.8942 12.364 6.45781C12.4556 6.28598 12.581 6.13452 12.7327 6.01258C12.8845 5.89063 13.0594 5.80075 13.2469 5.74837C13.4344 5.696 13.6306 5.68221 13.8235 5.70785C14.0165 5.73348 14.2023 5.79801 14.3696 5.89753C14.4363 5.9367 14.4999 5.98197 14.5635 6.03642C14.7411 5.90999 14.9516 5.83764 15.1694 5.82808C15.3873 5.81852 15.6032 5.87215 15.7913 5.98253C15.9265 6.06245 16.0446 6.16827 16.1389 6.29391C16.2332 6.41956 16.3018 6.56257 16.3407 6.71475C16.4421 6.74892 16.5315 6.78947 16.614 6.83836C17.3977 7.29725 17.6846 8.31948 17.2538 9.11781C17.0065 9.57559 16.5713 9.87781 16.0604 9.94586C15.9888 9.95545 15.9166 9.96037 15.8443 9.96059ZM14.3396 9.59781C14.2371 9.59781 14.1379 9.65392 14.084 9.75364C14.0049 9.90059 14.0549 10.0864 14.1957 10.1689C14.241 10.1956 14.2907 10.2081 14.339 10.2081C14.4418 10.2081 14.541 10.1525 14.5949 10.0525C14.633 9.98215 14.6427 9.8998 14.622 9.82247C14.6012 9.74515 14.5515 9.67875 14.4832 9.63697C14.4398 9.6111 14.3901 9.59755 14.3396 9.59781ZM13.3179 8.99947C13.2154 8.99947 13.1163 9.05586 13.0624 9.15559C12.9832 9.30225 13.0332 9.48836 13.174 9.57059C13.2193 9.59725 13.269 9.61003 13.3174 9.61003C13.4202 9.61003 13.5193 9.55447 13.5732 9.45447C13.6524 9.30725 13.6021 9.12114 13.4615 9.03892C13.4182 9.01294 13.3685 8.99931 13.3179 8.99947Z" fill="#333333"/>
<path fill-rule="evenodd" clip-rule="evenodd" d="M13.1108 10.9339C13.3927 11.0992 13.7497 10.995 13.9086 10.7011L12.8869 10.1028C12.7283 10.3967 12.828 10.7686 13.1108 10.9339Z" fill="white"/>
<path fill-rule="evenodd" clip-rule="evenodd" d="M12.8868 10.1028C12.7282 10.3967 12.8285 10.7686 13.1104 10.9339C13.2015 10.9875 13.2998 11.012 13.3973 11.012C13.6023 11.012 13.801 10.9003 13.9085 10.7008L12.8868 10.1028Z" fill="#333333"/>
<path fill-rule="evenodd" clip-rule="evenodd" d="M8.80029 13.3256H8.79973C6.51335 13.3256 4.65918 11.472 4.65918 9.18475V4.4292H12.9411V9.18475C12.9411 11.472 11.0872 13.3253 8.80057 13.3253" fill="white"/>
<path fill-rule="evenodd" clip-rule="evenodd" d="M4.85947 4.629V9.18512C4.85947 11.3579 6.62725 13.1251 8.80031 13.1251C10.9734 13.1251 12.7411 11.3579 12.7411 9.18512V4.629H4.85947ZM8.80031 13.5248C6.40669 13.5248 4.45947 11.5782 4.45947 9.18512V4.429C4.45947 4.37596 4.48054 4.32509 4.51805 4.28758C4.55556 4.25008 4.60643 4.229 4.65947 4.229H12.9409C12.9939 4.229 13.0448 4.25008 13.0823 4.28758C13.1198 4.32509 13.1409 4.37596 13.1409 4.429V9.18512C13.1409 11.5782 11.1936 13.5248 8.80031 13.5248Z" fill="#333333"/>
<path fill-rule="evenodd" clip-rule="evenodd" d="M11.2847 2.80988H11.1324C11.2252 2.60516 11.2847 2.38766 11.2847 2.15738C11.2847 1.07627 10.1719 0.200439 8.80022 0.200439C7.42856 0.200439 6.3155 1.07627 6.3155 2.15738C6.3155 2.38766 6.3755 2.60516 6.46772 2.80988H6.3155C5.40078 2.80988 4.65967 3.39405 4.65967 4.11461V6.07155C4.65967 6.43211 5.0305 6.72405 5.48745 6.72405C5.94439 6.72405 6.3155 6.43238 6.3155 6.07155C6.3155 6.43211 6.68633 6.72405 7.14411 6.72405C7.60106 6.72405 7.97189 6.43238 7.97189 6.07155C7.97189 6.43211 8.343 6.72405 8.80022 6.72405C9.25745 6.72405 9.628 6.43238 9.628 6.07155C9.628 6.43211 9.99911 6.72405 10.4566 6.72405C10.9138 6.72405 11.2844 6.43238 11.2844 6.07155C11.2844 6.43211 11.6555 6.72405 12.1127 6.72405C12.5699 6.72405 12.9411 6.43238 12.9411 6.07155V4.11461C12.9411 3.39405 12.1994 2.80988 11.2847 2.80988Z" fill="#632DB8"/>
<path fill-rule="evenodd" clip-rule="evenodd" d="M11.0852 6.07195H11.485C11.485 6.31722 11.7725 6.52472 12.1127 6.52472C12.4536 6.52472 12.7411 6.31722 12.7411 6.07195V4.11444C12.7411 3.50528 12.0877 3.00944 11.2847 3.00944H10.8239L10.9505 2.72806C11.0411 2.52667 11.0852 2.34 11.0852 2.1575C11.0852 1.18806 10.0602 0.4 8.80079 0.4C7.54079 0.4 6.51579 1.18806 6.51579 2.1575C6.51579 2.34083 6.56024 2.52667 6.65052 2.72806L6.77774 3.00944H6.31635C5.51274 3.00944 4.85941 3.50528 4.85941 4.11444V6.07167C4.85941 6.31695 5.14746 6.52444 5.48774 6.52444C5.82857 6.52444 6.11607 6.31695 6.11607 6.07167H6.51607C6.51607 6.31695 6.80329 6.52444 7.14385 6.52444C7.48468 6.52444 7.77218 6.31695 7.77218 6.07167H8.17218C8.17218 6.31695 8.45996 6.52444 8.80079 6.52444C9.14107 6.52444 9.42857 6.31695 9.42857 6.07167H9.82857C9.82857 6.31695 10.1164 6.52444 10.4569 6.52444C10.7977 6.52444 11.0852 6.31722 11.0852 6.07195ZM12.113 6.92361C11.7736 6.92361 11.4725 6.78722 11.2847 6.57611C11.0977 6.78722 10.7961 6.92333 10.4569 6.92333C10.1177 6.92333 9.81579 6.78667 9.62885 6.57556C9.44107 6.78667 9.13996 6.92361 8.80079 6.92361C8.46107 6.92361 8.15996 6.78667 7.97218 6.57556C7.78468 6.78667 7.48329 6.92361 7.14357 6.92361C6.80468 6.92361 6.50329 6.78722 6.31635 6.57611C6.12857 6.78722 5.82746 6.92333 5.48774 6.92333C4.92107 6.92333 4.45996 6.54111 4.45996 6.07167V4.11444C4.45996 3.32139 5.22163 2.66889 6.18274 2.61389C6.13947 2.46558 6.11704 2.31198 6.11607 2.1575C6.11607 0.967778 7.32052 0 8.80079 0C10.2805 0 11.485 0.967778 11.485 2.1575C11.484 2.31198 11.4616 2.46558 11.4183 2.61389C12.38 2.66889 13.1411 3.32139 13.1411 4.11444V6.07167C13.1411 6.54111 12.6794 6.92361 12.1127 6.92361" fill="#333333"/>
<path fill-rule="evenodd" clip-rule="evenodd" d="M10.6288 8.57989C10.6289 8.74178 10.5647 8.89708 10.4504 9.0117C10.3361 9.12633 10.181 9.19092 10.0191 9.19128C9.93897 9.19117 9.85963 9.17528 9.78563 9.14451C9.71163 9.11374 9.64442 9.0687 9.58782 9.01195C9.53123 8.9552 9.48637 8.88786 9.4558 8.81378C9.42523 8.73969 9.40956 8.66032 9.40967 8.58017C9.40967 8.24239 9.68245 7.96851 10.0191 7.96851C10.3561 7.96851 10.6288 8.24239 10.6288 8.57989Z" fill="white"/>
<path fill-rule="evenodd" clip-rule="evenodd" d="M10.0197 7.96875C9.85774 7.96904 9.70254 8.0336 9.58817 8.14823C9.47379 8.26286 9.40959 8.41821 9.40967 8.58014C9.40967 8.91792 9.683 9.19125 10.0197 9.19125C10.0998 9.19118 10.1792 9.17531 10.2532 9.14456C10.3273 9.1138 10.3945 9.06876 10.4511 9.01201C10.5078 8.95526 10.5526 8.88791 10.5832 8.81381C10.6138 8.73971 10.6295 8.66031 10.6294 8.58014C10.6295 8.41825 10.5653 8.26295 10.451 8.14833C10.3367 8.0337 10.1816 7.96912 10.0197 7.96875ZM10.0197 8.36875C10.0757 8.36875 10.1294 8.39099 10.1689 8.43058C10.2085 8.47017 10.2308 8.52387 10.2308 8.57986C10.2308 8.63585 10.2085 8.68955 10.1689 8.72914C10.1294 8.76873 10.0757 8.79097 10.0197 8.79097C9.9636 8.79097 9.90984 8.7687 9.87019 8.72906C9.83055 8.68942 9.80828 8.63565 9.80828 8.57958C9.80828 8.52352 9.83055 8.46975 9.87019 8.43011C9.90984 8.39047 9.9636 8.36819 10.0197 8.36819" fill="#333333"/>
<path fill-rule="evenodd" clip-rule="evenodd" d="M8.19064 8.57989C8.19071 8.74178 8.12655 8.89708 8.01223 9.0117C7.89792 9.12633 7.7428 9.19092 7.58091 9.19128C7.41908 9.19092 7.264 9.12637 7.14969 9.0118C7.03539 8.89724 6.97119 8.74201 6.97119 8.58017C6.97119 8.24239 7.24425 7.96851 7.58091 7.96851C7.91814 7.96851 8.19064 8.24239 8.19064 8.57989Z" fill="white"/>
<path fill-rule="evenodd" clip-rule="evenodd" d="M7.58098 7.96875C7.41905 7.96904 7.26385 8.0336 7.14948 8.14823C7.03511 8.26286 6.97091 8.41821 6.97098 8.58014C6.96852 8.66176 6.98246 8.74304 7.012 8.81917C7.04153 8.8953 7.08605 8.96472 7.14291 9.02332C7.19977 9.08193 7.26782 9.12852 7.34302 9.16034C7.41822 9.19215 7.49905 9.20855 7.5807 9.20855C7.66236 9.20855 7.74318 9.19215 7.81839 9.16034C7.89359 9.12852 7.96164 9.08193 8.0185 9.02332C8.07536 8.96472 8.11988 8.8953 8.14941 8.81917C8.17894 8.74304 8.19289 8.66176 8.19043 8.58014C8.1905 8.4183 8.12638 8.26304 8.01212 8.14843C7.89787 8.03381 7.74282 7.96919 7.58098 7.96875ZM7.58098 8.36875C7.63697 8.36875 7.69067 8.39099 7.73026 8.43058C7.76985 8.47017 7.79209 8.52387 7.79209 8.57986C7.79209 8.63585 7.76985 8.68955 7.73026 8.72914C7.69067 8.76873 7.63697 8.79097 7.58098 8.79097C7.52492 8.79097 7.47115 8.7687 7.43151 8.72906C7.39186 8.68942 7.36959 8.63565 7.36959 8.57958C7.36959 8.52352 7.39186 8.46975 7.43151 8.43011C7.47115 8.39047 7.52492 8.36819 7.58098 8.36819" fill="#333333"/>
<path fill-rule="evenodd" clip-rule="evenodd" d="M8.80071 11.6363C9.12445 11.6358 9.43475 11.5068 9.66338 11.2776C9.89201 11.0484 10.0202 10.7378 10.0199 10.4141H7.58154C7.58154 11.0893 8.1271 11.6363 8.80099 11.6363" fill="white"/>
<path fill-rule="evenodd" clip-rule="evenodd" d="M10.0197 10.4141H7.58084C7.58084 11.0891 8.12695 11.6363 8.80028 11.6363C8.96061 11.6362 9.11932 11.6044 9.26737 11.5429C9.41542 11.4814 9.5499 11.3913 9.66314 11.2778C9.77637 11.1643 9.86615 11.0296 9.92733 10.8814C9.98851 10.7332 10.0199 10.5744 10.0197 10.4141ZM9.51695 10.8138C9.44597 10.9418 9.34213 11.0485 9.21614 11.1229C9.09016 11.1973 8.9466 11.2368 8.80028 11.2372C8.65405 11.2369 8.51055 11.1975 8.38467 11.1231C8.2588 11.0486 8.15514 10.9419 8.08445 10.8138H9.51695ZM8.54945 8.80578C8.45278 9.27773 7.8839 9.55856 7.27862 9.4344C6.67306 9.3094 6.26056 8.82606 6.35667 8.35467C6.4539 7.88301 7.02278 7.60162 7.62806 7.72634C8.23362 7.85134 8.64584 8.33467 8.54945 8.80578ZM9.05084 8.80578C9.14751 9.27773 9.7164 9.55856 10.3225 9.4344C10.9272 9.3094 11.3403 8.82606 11.2436 8.35467C11.1464 7.88301 10.5778 7.60162 9.97223 7.72634C9.36667 7.85134 8.95445 8.33467 9.05084 8.80578Z" fill="#333333"/>
<path fill-rule="evenodd" clip-rule="evenodd" d="M9.40986 8.77981H8.1907C8.1634 8.78157 8.13604 8.77772 8.11029 8.76849C8.08454 8.75926 8.06096 8.74484 8.04101 8.72614C8.02106 8.70743 8.00515 8.68483 7.99428 8.65974C7.9834 8.63464 7.97779 8.60758 7.97779 8.58023C7.97779 8.55288 7.9834 8.52581 7.99428 8.50072C8.00515 8.47562 8.02106 8.45302 8.04101 8.43431C8.06096 8.41561 8.08454 8.40119 8.11029 8.39196C8.13604 8.38273 8.1634 8.37888 8.1907 8.38064H9.40986C9.43716 8.37888 9.46452 8.38273 9.49027 8.39196C9.51602 8.40119 9.53959 8.41561 9.55955 8.43431C9.5795 8.45302 9.59541 8.47562 9.60628 8.50072C9.61716 8.52581 9.62277 8.55288 9.62277 8.58023C9.62277 8.60758 9.61716 8.63464 9.60628 8.65974C9.59541 8.68483 9.5795 8.70743 9.55955 8.72614C9.53959 8.74484 9.51602 8.75926 9.49027 8.76849C9.46452 8.77772 9.43716 8.78157 9.40986 8.77981ZM6.67431 8.77148L4.67236 8.15981L4.78875 7.77759L6.79097 8.38898L6.67431 8.77148ZM10.8713 8.82648L10.7551 8.44425L12.7568 7.83259L12.8729 8.21509L10.8713 8.82648Z" fill="#333333"/>
<path fill-rule="evenodd" clip-rule="evenodd" d="M13.316 11.7357C13.0393 11.7357 12.8157 11.9607 12.8157 12.2377V11.4016C12.8173 11.3349 12.8055 11.2685 12.781 11.2064C12.7566 11.1443 12.72 11.0878 12.6734 11.04C12.6267 10.9923 12.571 10.9544 12.5095 10.9285C12.4481 10.9026 12.382 10.8892 12.3153 10.8892C12.2485 10.8892 12.1825 10.9026 12.121 10.9285C12.0595 10.9544 12.0038 10.9923 11.9572 11.04C11.9106 11.0878 11.874 11.1443 11.8495 11.2064C11.8251 11.2685 11.8133 11.3349 11.8149 11.4016V11.0666C11.8164 10.9998 11.8046 10.9335 11.7802 10.8713C11.7557 10.8092 11.7191 10.7526 11.6724 10.7048C11.6258 10.6571 11.5701 10.6191 11.5085 10.5932C11.447 10.5673 11.3809 10.554 11.3142 10.554C11.2474 10.554 11.1813 10.5673 11.1198 10.5932C11.0583 10.6191 11.0025 10.6571 10.9559 10.7048C10.9092 10.7526 10.8726 10.8092 10.8481 10.8713C10.8237 10.9335 10.8119 10.9998 10.8135 11.0666V11.4013C10.8157 11.3342 10.8044 11.2673 10.7803 11.2046C10.7561 11.1419 10.7196 11.0847 10.6729 11.0364C10.6262 10.9881 10.5703 10.9498 10.5084 10.9235C10.4466 10.8973 10.3801 10.8838 10.3129 10.8838C10.2457 10.8838 10.1793 10.8973 10.1174 10.9235C10.0556 10.9498 9.99962 10.9881 9.95292 11.0364C9.90622 11.0847 9.86971 11.1419 9.84556 11.2046C9.82141 11.2673 9.81012 11.3342 9.81236 11.4013V13.0735C9.81236 12.7966 9.58875 12.5719 9.31236 12.5719C9.03569 12.5719 8.81152 12.7969 8.81152 13.0738V15.081C8.81188 15.3679 8.86851 15.652 8.97819 15.9171C9.30513 16.7027 10.0782 17.2552 10.9801 17.2552H11.6474C12.8451 17.2552 13.816 16.2816 13.816 15.081V12.2377C13.816 11.9605 13.5924 11.7357 13.316 11.7357Z" fill="white"/>
<path fill-rule="evenodd" clip-rule="evenodd" d="M9.31161 12.7717C9.14578 12.7717 9.01105 12.907 9.01105 13.0739V15.0806C9.01105 15.3428 9.06189 15.5981 9.16272 15.8398C9.31111 16.1997 9.56311 16.5073 9.88672 16.7237C10.2103 16.9401 10.5909 17.0554 10.9802 17.0551H11.6472C12.7327 17.0551 13.6158 16.1692 13.6158 15.0806V12.2376C13.6158 12.0709 13.4811 11.9356 13.3152 11.9356C13.1494 11.9356 13.0147 12.0709 13.0147 12.2376C13.0147 12.2906 12.9936 12.3415 12.9561 12.379C12.9186 12.4165 12.8677 12.4376 12.8147 12.4376C12.7616 12.4376 12.7107 12.4165 12.6732 12.379C12.6357 12.3415 12.6147 12.2906 12.6147 12.2376V11.4009C12.6147 11.2345 12.4802 11.0992 12.3144 11.0992C12.1491 11.0992 12.0144 11.2345 12.0144 11.4009C12.0144 11.5112 11.9244 11.6009 11.8144 11.6009C11.7881 11.6009 11.7621 11.5958 11.7378 11.5857C11.7135 11.5757 11.6914 11.561 11.6728 11.5424C11.6542 11.5238 11.6394 11.5018 11.6294 11.4775C11.6193 11.4532 11.6141 11.4272 11.6141 11.4009V11.0664C11.6141 10.9003 11.4791 10.7645 11.3136 10.7645C11.148 10.7645 11.013 10.9003 11.013 11.0664V11.4009C11.013 11.4539 10.9919 11.5048 10.9544 11.5423C10.9169 11.5798 10.866 11.6009 10.813 11.6009C10.76 11.6009 10.7091 11.5798 10.6716 11.5423C10.6341 11.5048 10.613 11.4539 10.613 11.4009C10.613 11.2345 10.4783 11.0992 10.3124 11.0992C10.1466 11.0992 10.0119 11.2345 10.0119 11.4009V13.0739C10.01 13.1257 9.98806 13.1746 9.95079 13.2105C9.91352 13.2464 9.86378 13.2665 9.81202 13.2665C9.76027 13.2665 9.71053 13.2464 9.67326 13.2105C9.63599 13.1746 9.61409 13.1257 9.61216 13.0739C9.61216 12.907 9.47744 12.7717 9.31161 12.7717ZM11.6472 17.4551H10.9802C10.512 17.4554 10.0542 17.3167 9.66488 17.0565C9.27558 16.7964 8.97232 16.4264 8.79355 15.9937C8.67281 15.7044 8.61087 15.394 8.61133 15.0806V13.0739C8.61126 12.888 8.68495 12.7097 8.81624 12.578C8.94753 12.4464 9.12568 12.3722 9.31161 12.3717C9.41565 12.3717 9.51836 12.3951 9.61216 12.4401V11.4012C9.61216 11.2153 9.6859 11.0371 9.81719 10.9055C9.94847 10.774 10.1266 10.6999 10.3124 10.6995C10.4419 10.6995 10.563 10.7351 10.6672 10.7959C10.7205 10.6684 10.8103 10.5595 10.9253 10.4827C11.0403 10.406 11.1753 10.3649 11.3136 10.3645C11.6041 10.3645 11.8541 10.5428 11.9597 10.7959C12.0641 10.7348 12.1849 10.6995 12.3144 10.6995C12.5002 10.6999 12.6783 10.7739 12.8095 10.9054C12.9408 11.0369 13.0146 11.2151 13.0147 11.4009V11.6034C13.1216 11.5531 13.2395 11.5306 13.3574 11.538C13.4754 11.5453 13.5896 11.5824 13.6894 11.6457C13.7892 11.7089 13.8714 11.7964 13.9284 11.8999C13.9854 12.0034 14.0154 12.1197 14.0155 12.2378V15.0806C14.0155 16.3898 12.953 17.4551 11.6472 17.4551Z" fill="#333333"/>
<path fill-rule="evenodd" clip-rule="evenodd" d="M9.81231 14.7755C9.75926 14.7755 9.70839 14.7544 9.67088 14.7169C9.63338 14.6794 9.6123 14.6285 9.6123 14.5755V13.0735C9.6123 13.0205 9.63338 12.9696 9.67088 12.9321C9.70839 12.8946 9.75926 12.8735 9.81231 12.8735C9.86535 12.8735 9.91622 12.8946 9.95373 12.9321C9.99123 12.9696 10.0123 13.0205 10.0123 13.0735V14.5752C10.0123 14.6015 10.0072 14.6275 9.99716 14.6518C9.98713 14.6761 9.9724 14.6982 9.95382 14.7168C9.93525 14.7354 9.91319 14.7502 9.88891 14.7602C9.86462 14.7703 9.83859 14.7755 9.81231 14.7755Z" fill="#333333"/>
<path fill-rule="evenodd" clip-rule="evenodd" d="M10.8136 14.1101C10.7873 14.1101 10.7613 14.105 10.737 14.0949C10.7127 14.0849 10.6907 14.0702 10.6721 14.0517C10.6535 14.0331 10.6387 14.0111 10.6286 13.9869C10.6185 13.9626 10.6133 13.9366 10.6133 13.9103V11.4014C10.6133 11.2912 10.7027 11.2012 10.8133 11.2012C10.8663 11.2012 10.9172 11.2222 10.9547 11.2598C10.9922 11.2973 11.0133 11.3481 11.0133 11.4012V13.9103C11.0132 13.9633 10.9921 14.0141 10.9546 14.0516C10.9171 14.089 10.8666 14.1101 10.8136 14.1101Z" fill="#333333"/>
<path fill-rule="evenodd" clip-rule="evenodd" d="M11.8143 14.1101C11.7613 14.1101 11.7104 14.089 11.6729 14.0516C11.6354 14.0141 11.6143 13.9633 11.6143 13.9103V11.4014C11.6143 11.2912 11.704 11.2012 11.8143 11.2012C11.9245 11.2012 12.0143 11.2912 12.0143 11.4012V13.9103C12.0142 13.9633 11.9931 14.0141 11.9556 14.0516C11.9181 14.089 11.8673 14.1101 11.8143 14.1101Z" fill="#333333"/>
<path fill-rule="evenodd" clip-rule="evenodd" d="M12.8147 14.1099C12.7618 14.1098 12.7111 14.0887 12.6737 14.0512C12.6363 14.0138 12.6153 13.9631 12.6152 13.9102V11.4013C12.6172 11.3496 12.6391 11.3006 12.6763 11.2647C12.7136 11.2288 12.7633 11.2087 12.8151 11.2087C12.8668 11.2087 12.9166 11.2288 12.9539 11.2647C12.9911 11.3006 13.013 11.3496 13.015 11.4013V13.9102C13.0149 13.9632 12.9938 14.014 12.9563 14.0514C12.9188 14.0889 12.8677 14.1099 12.8147 14.1099Z" fill="#333333"/>
<path fill-rule="evenodd" clip-rule="evenodd" d="M4.18328 11.3579C4.40383 11.3579 4.58217 11.5374 4.58217 11.7576V11.091C4.58076 11.0377 4.59004 10.9847 4.60946 10.935C4.62888 10.8854 4.65805 10.8401 4.69524 10.8019C4.73244 10.7638 4.7769 10.7334 4.82601 10.7127C4.87512 10.692 4.92789 10.6813 4.9812 10.6813C5.0345 10.6813 5.08727 10.692 5.13638 10.7127C5.18549 10.7334 5.22995 10.7638 5.26715 10.8019C5.30434 10.8401 5.33351 10.8854 5.35293 10.935C5.37235 10.9847 5.38163 11.0377 5.38022 11.091V10.8243C5.38022 10.604 5.55856 10.4243 5.77883 10.4243C5.88478 10.4245 5.9863 10.4668 6.06114 10.5418C6.13597 10.6168 6.178 10.7184 6.178 10.8243V11.091C6.17514 11.0369 6.18333 10.9827 6.20208 10.9319C6.22082 10.881 6.24972 10.8345 6.28701 10.7952C6.32431 10.7559 6.36922 10.7246 6.41901 10.7032C6.4688 10.6818 6.52242 10.6708 6.57661 10.6708C6.63081 10.6708 6.68443 10.6818 6.73422 10.7032C6.78401 10.7246 6.82892 10.7559 6.86621 10.7952C6.90351 10.8345 6.93241 10.881 6.95115 10.9319C6.96989 10.9827 6.97808 11.0369 6.97522 11.091L6.9755 12.4249C6.97543 12.3723 6.9857 12.3203 7.00574 12.2718C7.02577 12.2232 7.05517 12.1791 7.09227 12.1419C7.12936 12.1047 7.17341 12.0751 7.22191 12.055C7.27042 12.0348 7.32242 12.0244 7.37495 12.0243C7.59439 12.0243 7.77356 12.2032 7.77356 12.4249V14.024C7.77356 14.2601 7.72633 14.4854 7.64022 14.6907C7.50953 15.0063 7.28823 15.276 7.00429 15.4659C6.72035 15.6557 6.38651 15.7572 6.04495 15.7574H5.51328C4.558 15.7574 3.78467 14.9813 3.78467 14.024V11.7576C3.78467 11.5374 3.963 11.3579 4.18328 11.3579Z" fill="white"/>
<path fill-rule="evenodd" clip-rule="evenodd" d="M4.18336 11.5577C4.13051 11.558 4.07993 11.5792 4.04266 11.6166C4.00539 11.6541 3.98447 11.7048 3.98447 11.7577V14.0235C3.98447 14.8696 4.67058 15.5574 5.51336 15.5574H6.04503C6.34727 15.5576 6.64277 15.4681 6.89402 15.3001C7.14526 15.1321 7.34091 14.8932 7.45614 14.6138C7.53392 14.4266 7.57336 14.2282 7.57336 14.0235V12.4243C7.57336 12.3135 7.48447 12.2243 7.37503 12.2243C7.32213 12.2246 7.27147 12.2457 7.23415 12.2832C7.19682 12.3207 7.17586 12.3714 7.17586 12.4243C7.17586 12.4774 7.15479 12.5282 7.11728 12.5658C7.07978 12.6033 7.02891 12.6243 6.97586 12.6243C6.92282 12.6243 6.87195 12.6033 6.83444 12.5658C6.79693 12.5282 6.77586 12.4774 6.77586 12.4243V11.091C6.77586 11.0381 6.75494 10.9874 6.71768 10.95C6.68041 10.9125 6.62982 10.8913 6.57697 10.891C6.52408 10.8912 6.47342 10.9124 6.43609 10.9499C6.39876 10.9874 6.37781 11.0381 6.37781 11.091C6.37781 11.144 6.35674 11.1949 6.31923 11.2324C6.28172 11.2699 6.23085 11.291 6.17781 11.291C6.12476 11.291 6.07389 11.2699 6.03639 11.2324C5.99888 11.1949 5.97781 11.144 5.97781 11.091V10.8243C5.97781 10.7715 5.95689 10.7208 5.91962 10.6833C5.88235 10.6458 5.83177 10.6246 5.77892 10.6243C5.72612 10.6247 5.6756 10.6459 5.63839 10.6834C5.60119 10.7209 5.58031 10.7715 5.58031 10.8243V11.091C5.58031 11.144 5.55924 11.1949 5.52173 11.2324C5.48422 11.2699 5.43335 11.291 5.38031 11.291C5.32726 11.291 5.27639 11.2699 5.23888 11.2324C5.20138 11.1949 5.18031 11.144 5.18031 11.091C5.18207 11.0638 5.17823 11.0365 5.16902 11.0108C5.15982 10.9851 5.14545 10.9616 5.12679 10.9417C5.10814 10.9218 5.0856 10.906 5.06057 10.8951C5.03554 10.8843 5.00856 10.8787 4.98128 10.8787C4.954 10.8787 4.92702 10.8843 4.90199 10.8951C4.87696 10.906 4.85442 10.9218 4.83577 10.9417C4.81711 10.9616 4.80274 10.9851 4.79353 11.0108C4.78433 11.0365 4.78049 11.0638 4.78225 11.091V11.7577C4.78032 11.8094 4.75842 11.8583 4.72115 11.8942C4.68388 11.9302 4.63414 11.9502 4.58239 11.9502C4.53064 11.9502 4.4809 11.9302 4.44363 11.8942C4.40636 11.8583 4.38446 11.8094 4.38253 11.7577C4.38253 11.7048 4.36157 11.654 4.32425 11.6165C4.28692 11.5791 4.23626 11.5579 4.18336 11.5577ZM6.04503 15.9566H5.51336C4.44947 15.9566 3.58447 15.0899 3.58447 14.0235V11.7577C3.58447 11.5987 3.64753 11.4463 3.75982 11.3338C3.8721 11.2213 4.02442 11.158 4.18336 11.1577C4.25336 11.158 4.31975 11.1695 4.38253 11.1921V11.0913C4.38253 10.9323 4.44559 10.7799 4.55787 10.6674C4.67015 10.5549 4.82248 10.4916 4.98142 10.4913C5.07586 10.4913 5.16586 10.5129 5.24531 10.5529C5.29534 10.4544 5.37162 10.3716 5.46573 10.3137C5.55984 10.2557 5.66813 10.2249 5.77864 10.2246C6.01197 10.2246 6.21364 10.3579 6.31281 10.5529C6.39253 10.5129 6.48225 10.4913 6.5767 10.4913C6.73568 10.4915 6.88808 10.5548 7.00042 10.6673C7.11276 10.7798 7.17586 10.9323 7.17586 11.0913V11.8588C7.23827 11.8362 7.30466 11.8247 7.37503 11.8243C7.70503 11.8243 7.97336 12.0932 7.97336 12.4243V14.0235C7.97336 14.281 7.92364 14.531 7.82558 14.7677C7.67984 15.1198 7.43282 15.4208 7.11584 15.6325C6.79886 15.8441 6.42618 15.9569 6.04503 15.9566Z" fill="#333333"/>
<path fill-rule="evenodd" clip-rule="evenodd" d="M6.97532 13.8212C6.92233 13.821 6.87156 13.7999 6.83416 13.7623C6.79677 13.7248 6.77581 13.6739 6.77588 13.6209V12.4242C6.77781 12.3725 6.79971 12.3236 6.83698 12.2877C6.87425 12.2518 6.92399 12.2317 6.97574 12.2317C7.02749 12.2317 7.07723 12.2518 7.1145 12.2877C7.15177 12.3236 7.17367 12.3725 7.1756 12.4242V13.6209C7.1756 13.6739 7.15453 13.7248 7.11702 13.7623C7.07951 13.7998 7.02864 13.8209 6.9756 13.8209" fill="#333333"/>
<path fill-rule="evenodd" clip-rule="evenodd" d="M6.17754 13.2906C6.1245 13.2906 6.07363 13.2695 6.03612 13.232C5.99861 13.1945 5.97754 13.1436 5.97754 13.0906V11.0911C5.97754 11.0381 5.99861 10.9872 6.03612 10.9497C6.07363 10.9122 6.1245 10.8911 6.17754 10.8911C6.23058 10.8911 6.28145 10.9122 6.31896 10.9497C6.35647 10.9872 6.37754 11.0381 6.37754 11.0911V13.0908C6.37747 13.1438 6.35636 13.1946 6.31886 13.2321C6.28136 13.2695 6.23053 13.2906 6.17754 13.2906Z" fill="#333333"/>
<path fill-rule="evenodd" clip-rule="evenodd" d="M5.38073 13.2906C5.35442 13.2906 5.32835 13.2855 5.30402 13.2755C5.27969 13.2655 5.25758 13.2508 5.23895 13.2322C5.22032 13.2136 5.20554 13.1915 5.19545 13.1672C5.18537 13.1429 5.18018 13.1169 5.18018 13.0906V11.0911C5.18018 11.0381 5.20125 10.9872 5.23875 10.9497C5.27626 10.9122 5.32713 10.8911 5.38018 10.8911C5.43322 10.8911 5.48409 10.9122 5.5216 10.9497C5.5591 10.9872 5.58018 11.0381 5.58018 11.0911V13.0908C5.5801 13.1438 5.55904 13.1945 5.5216 13.232C5.48416 13.2694 5.43368 13.2905 5.38073 13.2906Z" fill="#333333"/>
<path fill-rule="evenodd" clip-rule="evenodd" d="M4.58184 13.2906C4.52879 13.2906 4.47792 13.2695 4.44041 13.232C4.40291 13.1945 4.38184 13.1436 4.38184 13.0906V11.0911C4.38184 11.0381 4.40291 10.9872 4.44041 10.9497C4.47792 10.9122 4.52879 10.8911 4.58184 10.8911C4.63488 10.8911 4.68575 10.9122 4.72326 10.9497C4.76076 10.9872 4.78184 11.0381 4.78184 11.0911V13.0908C4.78176 13.1438 4.76066 13.1946 4.72316 13.2321C4.68566 13.2695 4.63483 13.2906 4.58184 13.2906Z" fill="#333333"/>
<path fill-rule="evenodd" clip-rule="evenodd" d="M16.6221 1.89684L15.2143 1.71129L15.2657 1.51407L16.6746 1.69546L16.6221 1.89684ZM17.0693 1.4649C17.0716 1.45599 17.072 1.44669 17.0705 1.43761C17.069 1.42853 17.0657 1.41985 17.0607 1.41212C17.0558 1.40443 17.0493 1.39793 17.0416 1.39307C17.034 1.38822 17.0253 1.38514 17.0163 1.38407L15.0835 1.15073C15.0676 1.14911 15.0516 1.15327 15.0385 1.16245C15.0254 1.17163 15.016 1.18522 15.0121 1.20073L14.5482 2.98546C14.4135 2.91962 14.2407 2.89546 14.0646 2.92434C13.8507 2.95934 13.6632 3.06518 13.5621 3.20768C13.4988 3.29601 13.4738 3.39351 13.4885 3.48796C13.5107 3.62851 13.6168 3.73823 13.7682 3.79768C13.891 3.84629 14.0426 3.86212 14.2035 3.83546C14.4888 3.78907 14.7146 3.62212 14.7699 3.41796C14.7716 3.41495 14.7727 3.41165 14.7732 3.40823L15.1299 2.0374L16.5371 2.22296L16.2815 3.20629C16.1449 3.13934 15.974 3.11629 15.7974 3.14601C15.584 3.18073 15.3965 3.28601 15.2957 3.42907C15.2329 3.5174 15.2074 3.61434 15.2221 3.70934C15.2618 3.96351 15.5765 4.11573 15.9376 4.05657C16.2213 4.01046 16.4493 3.84184 16.5049 3.63712L17.0693 1.4649Z" fill="#632DB8"/>
</svg>
