<svg width="current" height="current" viewBox="0 0 15 17" fill="none" xmlns="http://www.w3.org/2000/svg">
<path fill-rule="evenodd" clip-rule="evenodd" d="M13.0699 16.0021C13.1312 15.9755 13.1865 15.9369 13.2328 15.8887C13.2791 15.8405 13.3154 15.7836 13.3395 15.7213C13.3637 15.659 13.3752 15.5925 13.3735 15.5257C13.3718 15.4589 13.3569 15.3931 13.3296 15.3321L10.2041 8.38214L9.26795 8.79492L12.3935 15.7449C12.4495 15.8683 12.5521 15.9646 12.6788 16.0128C12.8054 16.061 12.946 16.0571 13.0699 16.0021ZM7.2299 16.1602H7.2249C7.15795 16.1602 7.09166 16.147 7.02981 16.1214C6.96797 16.0957 6.91178 16.0582 6.86447 16.0108C6.81715 15.9634 6.77964 15.9072 6.75407 15.8453C6.7285 15.7835 6.71538 15.7171 6.71545 15.6502V8.04492H7.7399V15.6505C7.73982 15.7857 7.68606 15.9153 7.59042 16.0109C7.49479 16.1065 7.36511 16.1602 7.2299 16.1602ZM1.38462 16.0021C1.32337 15.9755 1.26803 15.9369 1.22178 15.8887C1.17553 15.8405 1.13929 15.7836 1.11517 15.7213C1.09104 15.659 1.0795 15.5925 1.08122 15.5257C1.08294 15.4589 1.09788 15.3931 1.12517 15.3321L4.25017 8.38214L5.18629 8.79492L2.06045 15.7449C2.00441 15.8682 1.90198 15.9644 1.77543 16.0125C1.64888 16.0607 1.50844 16.057 1.38462 16.0021Z" fill="white"/>
<path fill-rule="evenodd" clip-rule="evenodd" d="M10.7398 1.74823H3.71484V1.60767C3.71492 1.23504 3.86296 0.877685 4.12642 0.614168C4.38989 0.350652 4.74721 0.20254 5.11984 0.202393H9.33457C9.70725 0.202466 10.0646 0.350546 10.3282 0.61407C10.5917 0.877595 10.7398 1.23499 10.7398 1.60767V1.74823Z" fill="#FFCC3F"/>
<path fill-rule="evenodd" clip-rule="evenodd" d="M3.91964 1.54528H10.5352C10.5188 1.23798 10.3854 0.948617 10.1623 0.736612C9.93925 0.524607 9.64349 0.406047 9.33575 0.405278H5.11964C4.81177 0.405771 4.51579 0.524223 4.29258 0.73627C4.06938 0.948317 3.93591 1.23784 3.91964 1.54528ZM10.9421 1.95083H3.5127V1.60833C3.5127 1.18202 3.68195 0.773142 3.98327 0.471561C4.28459 0.16998 4.69332 0.000368149 5.11964 0H9.33575C9.76197 0.000515292 10.1706 0.170192 10.4718 0.471757C10.773 0.773322 10.9421 1.18211 10.9421 1.60833V1.95083ZM13.1446 15.4158C13.178 15.4892 13.1802 15.5708 13.1513 15.6467C13.137 15.6846 13.1152 15.7192 13.0872 15.7485C13.0592 15.7778 13.0255 15.801 12.9883 15.8169C12.8333 15.885 12.648 15.8169 12.5785 15.6619L10.2146 10.4036H9.7702L12.2094 15.8283C12.2663 15.9538 12.3582 16.0602 12.4741 16.1348C12.59 16.2094 12.7249 16.249 12.8627 16.2489C12.9594 16.2489 13.058 16.2294 13.1519 16.1883C13.2381 16.1507 13.3159 16.0963 13.3808 16.0282C13.4457 15.96 13.4963 15.8796 13.5296 15.7917C13.5631 15.7048 13.5791 15.6122 13.5765 15.5192C13.5739 15.4262 13.5529 15.3346 13.5146 15.2497L11.336 10.4039H10.891L13.1446 15.4158Z" fill="#333333"/>
<path fill-rule="evenodd" clip-rule="evenodd" d="M10.102 8.64893L9.5376 8.89809L10.2145 10.4036H10.8909L10.102 8.64893Z" fill="white"/>
<path fill-rule="evenodd" clip-rule="evenodd" d="M12.5046 1.70923H1.94986C1.48647 1.70923 1.04205 1.89331 0.714386 2.22098C0.386719 2.54865 0.202637 2.99306 0.202637 3.45645V8.65645C0.202637 9.11984 0.386719 9.56426 0.714386 9.89192C1.04205 10.2196 1.48647 10.4037 1.94986 10.4037H9.77014L9.08403 8.8784C9.06251 8.82906 9.06091 8.77332 9.07958 8.72284C9.09904 8.67228 9.13768 8.63145 9.18708 8.60923L10.1232 8.19701C10.172 8.17558 10.2274 8.17427 10.2772 8.19335C10.327 8.21244 10.3673 8.25037 10.3893 8.29895L11.3357 10.404H12.5046C12.7341 10.404 12.9614 10.3588 13.1734 10.271C13.3855 10.1832 13.5781 10.0544 13.7404 9.8921C13.9027 9.7298 14.0314 9.53711 14.1192 9.32504C14.207 9.11298 14.2522 8.88569 14.2521 8.65617V3.45645C14.2521 3.22698 14.2069 2.99975 14.1191 2.78775C14.0312 2.57575 13.9025 2.38313 13.7402 2.22088C13.578 2.05863 13.3853 1.92994 13.1733 1.84215C12.9613 1.75436 12.7341 1.70919 12.5046 1.70923Z" fill="white"/>
<path fill-rule="evenodd" clip-rule="evenodd" d="M10.123 8.19676L9.18692 8.60898C9.13762 8.63127 9.0991 8.67209 9.0797 8.72259C9.06112 8.77311 9.06281 8.82885 9.08442 8.87815L9.77053 10.4037H10.2147L9.53776 8.89815L10.1025 8.64898L10.8911 10.4037H11.3361L10.3891 8.29871C10.3671 8.25013 10.3268 8.21219 10.277 8.19311C10.2272 8.17403 10.1719 8.17534 10.123 8.19676Z" fill="white"/>
<path fill-rule="evenodd" clip-rule="evenodd" d="M10.301 6.05631C10.301 7.73686 8.92596 9.09936 7.22735 9.09936C5.53069 9.09936 4.1543 7.73686 4.1543 6.05631C4.1543 4.3752 5.53069 3.0127 7.22735 3.0127C8.92596 3.0127 10.301 4.3752 10.301 6.05631Z" fill="#632DB8"/>
<path fill-rule="evenodd" clip-rule="evenodd" d="M7.22735 3.01294C5.53041 3.01294 4.1543 4.37544 4.1543 6.05655C4.1543 7.73711 5.53041 9.09961 7.22735 9.09961C8.9243 9.09961 10.301 7.73711 10.301 6.05655C10.301 4.37544 8.92485 3.01294 7.22735 3.01294ZM7.22735 3.41849C8.69846 3.41849 9.89569 4.60183 9.89569 6.05655C9.89569 7.51072 8.69846 8.69377 7.22735 8.69377C5.75624 8.69377 4.55957 7.51044 4.55957 6.05655C4.55957 4.60183 5.75624 3.41849 7.22735 3.41849Z" fill="#333333"/>
<path fill-rule="evenodd" clip-rule="evenodd" d="M8.98314 6.05652C8.98314 7.01707 8.19702 7.79541 7.22675 7.79541C6.2573 7.79541 5.47119 7.01707 5.47119 6.05652C5.47119 5.09596 6.2573 4.31763 7.22675 4.31763C8.1973 4.31763 8.98314 5.09596 8.98314 6.05652Z" fill="white"/>
<path fill-rule="evenodd" clip-rule="evenodd" d="M7.22709 4.31714C6.25737 4.31714 5.4707 5.09603 5.4707 6.05603C5.4707 7.01658 6.25737 7.79492 7.22709 7.79492C8.19681 7.79492 8.98348 7.01658 8.98348 6.05603C8.98348 5.09603 8.19681 4.31714 7.22709 4.31714ZM7.22709 4.72269C7.97209 4.72269 8.5782 5.32075 8.5782 6.05603C8.5782 6.79131 7.97209 7.38964 7.22709 7.38964C6.48265 7.38964 5.87598 6.79131 5.87598 6.05631C5.87598 5.32075 6.48265 4.72269 7.22709 4.72269Z" fill="#333333"/>
<mask id="mask0_4973_5305" style="mask-type:luminance" maskUnits="userSpaceOnUse" x="0" y="1" width="15" height="16">
<path d="M0 1.50586H14.4544V16.2484H0V1.50586Z" fill="white"/>
</mask>
<g mask="url(#mask0_4973_5305)">
<path fill-rule="evenodd" clip-rule="evenodd" d="M3.21028 10.2011H1.94861C1.53916 10.2004 1.14671 10.0373 0.857337 9.74762C0.567965 9.45794 0.405294 9.06531 0.405 8.65586V3.45697C0.405294 3.04752 0.567965 2.65489 0.857337 2.36521C1.14671 2.07552 1.53916 1.91243 1.94861 1.91169H12.5056C12.915 1.91243 13.3075 2.07552 13.5968 2.36521C13.8862 2.65489 14.0489 3.04752 14.0492 3.45697V8.65586C14.0489 9.06531 13.8862 9.45794 13.5968 9.74762C13.3075 10.0373 12.915 10.2004 12.5056 10.2011H3.21028ZM1.87667 15.6617C1.80722 15.8159 1.62389 15.8859 1.46639 15.8164C1.42926 15.8002 1.39573 15.7768 1.36773 15.7475C1.33974 15.7182 1.31785 15.6837 1.30333 15.6459C1.28883 15.6091 1.28194 15.5698 1.28309 15.5303C1.28423 15.4908 1.29339 15.452 1.31 15.4161L3.47278 10.6064H4.14972L1.87667 15.6617ZM12.5056 1.50614H1.94861C0.875 1.50586 0 2.38086 0 3.45669V8.65558C0 9.73114 0.875 10.6061 1.94889 10.6061H3.02833L0.940278 15.2489C0.901874 15.3338 0.88079 15.4254 0.878262 15.5185C0.875734 15.6116 0.891812 15.7043 0.925556 15.7911C0.976907 15.9259 1.06807 16.0418 1.18692 16.1234C1.30577 16.205 1.44665 16.2485 1.59083 16.2481C1.72885 16.2485 1.86405 16.2091 1.98019 16.1345C2.09633 16.06 2.18848 15.9535 2.24556 15.8278L4.59361 10.6061H12.5056C13.58 10.6061 14.4544 9.73114 14.4544 8.65558V3.45697C14.4544 2.38141 13.58 1.50614 12.5056 1.50614Z" fill="#333333"/>
</g>
<path fill-rule="evenodd" clip-rule="evenodd" d="M6.91791 10.52V15.85C6.91791 15.9717 7.05596 16.0712 7.2243 16.0712H7.22985C7.39929 16.0712 7.53763 15.9717 7.53763 15.85V10.52H6.91791ZM7.22985 16.3634H7.2243C6.83235 16.3634 6.51318 16.1331 6.51318 15.85V10.3737C6.51318 10.2931 6.60374 10.2275 6.71541 10.2275H7.73985C7.85179 10.2275 7.94235 10.2931 7.94235 10.3737V15.85C7.94235 16.1334 7.62263 16.3634 7.22985 16.3634Z" fill="#333333"/>
</svg>
