<svg width="current" height="current" viewBox="0 0 18 17" fill="none" xmlns="http://www.w3.org/2000/svg">
<mask id="mask0_4973_5634" style="mask-type:luminance" maskUnits="userSpaceOnUse" x="7" y="11" width="4" height="6">
<path d="M7.24854 11.9473H10.173V16.3334H7.24854V11.9473Z" fill="white"/>
</mask>
<g mask="url(#mask0_4973_5634)">
<path fill-rule="evenodd" clip-rule="evenodd" d="M9.19847 16.3334H8.22402C7.96553 16.3334 7.71762 16.2307 7.53479 16.048C7.35196 15.8653 7.24917 15.6174 7.24902 15.3589V11.9473H10.1732V15.3589C10.173 15.6174 10.0703 15.8652 9.88752 16.0479C9.70475 16.2306 9.45691 16.3333 9.19847 16.3334Z" fill="#333333"/>
</g>
<path fill-rule="evenodd" clip-rule="evenodd" d="M2.08311 8.0749C2.08311 4.41462 5.05033 1.44712 8.71089 1.44712C12.3709 1.44712 15.3387 4.41462 15.3387 8.0749H16.5812C16.5812 3.72796 13.0576 0.204346 8.71089 0.204346C4.36422 0.204346 0.840332 3.72796 0.840332 8.0749H2.08311Z" fill="#FFCC3F"/>
<path fill-rule="evenodd" clip-rule="evenodd" d="M15.5396 7.87055H16.3744C16.2655 3.7375 12.8696 0.408333 8.71074 0.408333C4.55185 0.408333 1.15602 3.7375 1.04713 7.87055H1.88185C1.99019 4.19722 5.01185 1.24278 8.71074 1.24278C12.4096 1.24278 15.4313 4.19722 15.5396 7.87055ZM16.7855 8.27889H15.1341V8.07472C15.1341 4.5325 12.253 1.65139 8.71074 1.65139C5.16852 1.65139 2.28741 4.5325 2.28741 8.07472V8.27889H0.635742V8.07472C0.63602 3.62194 4.25824 0 8.71074 0C13.1632 0 16.7855 3.62222 16.7855 8.07472V8.27889Z" fill="#333333"/>
<path fill-rule="evenodd" clip-rule="evenodd" d="M1.46194 13.3011C1.26993 13.3012 1.07977 13.2634 0.902353 13.19C0.724932 13.1166 0.563725 13.0089 0.42795 12.8731C0.292174 12.7374 0.184492 12.5761 0.111061 12.3987C0.0376302 12.2213 -0.000109308 12.0312 2.378e-07 11.8391V8.91497C0.0052971 8.53069 0.161668 8.16395 0.435286 7.89407C0.708904 7.6242 1.07777 7.4729 1.46208 7.4729C1.8464 7.4729 2.21526 7.6242 2.48888 7.89407C2.7625 8.16395 2.91887 8.53069 2.92417 8.91497V11.8391C2.92409 12.2269 2.77001 12.5987 2.49579 12.8729C2.22158 13.1471 1.8497 13.3011 1.46194 13.3011Z" fill="#632DB8"/>
<path fill-rule="evenodd" clip-rule="evenodd" d="M1.46194 7.45312C1.26992 7.45316 1.07979 7.49102 0.902397 7.56454C0.725006 7.63805 0.563833 7.74579 0.428079 7.8816C0.292324 8.0174 0.184649 8.17862 0.111199 8.35604C0.0377489 8.53345 -3.64554e-05 8.7236 2.63921e-08 8.91563V11.839C0.00529689 12.2232 0.161668 12.59 0.435286 12.8599C0.708904 13.1297 1.07777 13.281 1.46208 13.281C1.8464 13.281 2.21526 13.1297 2.48888 12.8599C2.7625 12.59 2.91887 12.2232 2.92417 11.839V8.91563C2.92409 8.52782 2.77002 8.15591 2.49583 7.88166C2.22163 7.60741 1.84975 7.45327 1.46194 7.45312ZM1.46194 7.86146C1.74137 7.8619 2.00921 7.97311 2.20677 8.17072C2.40432 8.36833 2.51547 8.6362 2.51583 8.91563V11.839C2.51532 12.1183 2.40411 12.386 2.20657 12.5835C2.00903 12.781 1.74127 12.8921 1.46194 12.8926C1.1826 12.8923 0.91478 12.7812 0.717254 12.5836C0.519727 12.3861 0.408627 12.1183 0.408333 11.839V8.91563C0.408407 8.63614 0.519409 8.3681 0.716959 8.1704C0.91451 7.97269 1.18246 7.86147 1.46194 7.86118" fill="#333333"/>
<mask id="mask1_4973_5634" style="mask-type:luminance" maskUnits="userSpaceOnUse" x="14" y="7" width="4" height="7">
<path d="M14.4985 7.45337H17.4224V13.3011H14.4985V7.45337Z" fill="white"/>
</mask>
<g mask="url(#mask1_4973_5634)">
<path fill-rule="evenodd" clip-rule="evenodd" d="M15.9602 13.3011C15.7682 13.3012 15.5781 13.2634 15.4008 13.19C15.2234 13.1165 15.0622 13.0089 14.9265 12.8731C14.7907 12.7374 14.6831 12.5762 14.6096 12.3989C14.5362 12.2215 14.4985 12.0314 14.4985 11.8394V8.91497C14.5038 8.53069 14.6602 8.16395 14.9338 7.89407C15.2074 7.6242 15.5763 7.4729 15.9606 7.4729C16.3449 7.4729 16.7138 7.6242 16.9874 7.89407C17.261 8.16395 17.4174 8.53069 17.4227 8.91497V11.8394C17.4226 12.2272 17.2684 12.599 16.9941 12.8731C16.7199 13.1472 16.348 13.3012 15.9602 13.3011Z" fill="#632DB8"/>
</g>
<mask id="mask2_4973_5634" style="mask-type:luminance" maskUnits="userSpaceOnUse" x="14" y="7" width="4" height="7">
<path d="M14.4985 7.45312H17.4224V13.3012H14.4985V7.45312Z" fill="white"/>
</mask>
<g mask="url(#mask2_4973_5634)">
<path fill-rule="evenodd" clip-rule="evenodd" d="M15.9602 7.45312C15.5724 7.45327 15.2006 7.60743 14.9265 7.88169C14.6524 8.15596 14.4985 8.52787 14.4985 8.91563V11.8392C14.5038 12.2235 14.6602 12.5903 14.9338 12.8601C15.2074 13.13 15.5763 13.2813 15.9606 13.2813C16.3449 13.2813 16.7138 13.13 16.9874 12.8601C17.261 12.5903 17.4174 12.2235 17.4227 11.8392V8.91563C17.4226 8.52777 17.2685 8.15582 16.9943 7.88156C16.72 7.60731 16.3481 7.4532 15.9602 7.45312ZM15.9602 7.86146C16.2397 7.86183 16.5076 7.97301 16.7052 8.17062C16.9028 8.36824 17.014 8.63616 17.0144 8.91563V11.8392C17.0139 12.1186 16.9026 12.3864 16.705 12.5839C16.5074 12.7814 16.2396 12.8925 15.9602 12.8928C15.6809 12.8925 15.4132 12.7813 15.2157 12.5838C15.0182 12.3863 14.9072 12.1185 14.9069 11.8392V8.91563C14.907 8.63623 15.018 8.36831 15.2155 8.17067C15.413 7.97303 15.6808 7.86183 15.9602 7.86146Z" fill="#333333"/>
</g>
<path fill-rule="evenodd" clip-rule="evenodd" d="M11.1477 13.4094H6.27441V7.72357C6.27456 7.29273 6.44579 6.87959 6.75046 6.57497C7.05513 6.27036 7.4683 6.09919 7.89914 6.09912H9.5233C9.95409 6.09927 10.3672 6.27046 10.6718 6.57507C10.9764 6.87968 11.1476 7.29278 11.1477 7.72357V13.4094Z" fill="white"/>
<path fill-rule="evenodd" clip-rule="evenodd" d="M9.5233 6.09912H7.89914C7.46826 6.09919 7.05504 6.27039 6.75037 6.57507C6.44569 6.87975 6.27449 7.29296 6.27441 7.72384V13.4094H11.1477V7.72384C11.1477 7.29301 10.9765 6.87984 10.6719 6.57517C10.3673 6.2705 9.95414 6.09927 9.5233 6.09912ZM9.5233 6.50745C9.84577 6.50782 10.1549 6.6361 10.3829 6.86415C10.6109 7.09219 10.7391 7.40137 10.7394 7.72384V13.0011H6.68275V7.72384C6.68304 7.40128 6.81133 7.09201 7.03944 6.86395C7.26756 6.63589 7.57685 6.50767 7.89941 6.50745H9.5233Z" fill="#333333"/>
<mask id="mask3_4973_5634" style="mask-type:luminance" maskUnits="userSpaceOnUse" x="0" y="0" width="18" height="17">
<path d="M0 16.3333H17.4222V0H0V16.3333Z" fill="white"/>
</mask>
<g mask="url(#mask3_4973_5634)">
<path fill-rule="evenodd" clip-rule="evenodd" d="M9.11997 8.33411H10.7447V7.92578H9.11997V8.33411ZM9.11719 11.5833H10.7414V11.1749H9.11719V11.5833ZM9.11719 9.95856H10.7414V9.55023H9.11719V9.95856Z" fill="#333333"/>
</g>
</svg>
