<svg width="35" height="35" viewBox="0 0 35 35" fill="none" xmlns="http://www.w3.org/2000/svg">
<path d="M10.3194 14.6541C11.9485 14.3703 12.7269 11.0272 12.058 7.18711C11.3891 3.34699 9.52622 0.464005 7.89708 0.747779C6.26794 1.03155 5.48951 4.37463 6.15841 8.21474C6.8273 12.0549 8.69022 14.9378 10.3194 14.6541Z" fill="#632DB8"/>
<path d="M10.5509 15.8288C10.4975 15.8288 10.3905 15.8288 10.3371 15.7754C7.87752 14.0644 6.22 11.4979 5.68531 8.55713C5.15063 5.61636 5.84572 2.62212 7.61018 0.162572C7.71711 0.00216674 7.98446 -0.0513022 8.14486 0.0556348C10.6044 1.76663 12.2619 4.33311 12.7966 7.27388C13.3313 10.2147 12.6362 13.2089 10.8718 15.6684C10.7648 15.7754 10.6579 15.8288 10.5509 15.8288ZM8.03792 0.911131C6.59428 3.10334 6.00613 5.77676 6.48734 8.34325C6.96856 10.9632 8.35874 13.2624 10.4975 14.8129C11.9411 12.6207 12.5293 10.0008 12.0481 7.38082C11.5668 4.81433 10.1232 2.51519 8.03792 0.911131Z" fill="#333333"/>
<path d="M9.89185 17.2423C11.293 16.4209 10.7824 12.9464 8.75142 9.48177C6.72043 6.01712 3.93814 3.87431 2.53699 4.69566C1.13585 5.51702 1.64644 8.99152 3.67743 12.4562C5.70842 15.9208 8.49071 18.0636 9.89185 17.2423Z" fill="#632DB8"/>
<path d="M10.0155 17.9147H9.90854C6.96778 17.1661 4.5617 15.3482 3.01111 12.7817C1.514 10.2152 1.08625 7.16753 1.88828 4.28024C1.94175 4.06636 2.15562 3.95942 2.36949 4.01289C5.31026 4.76145 7.71633 6.57938 9.26692 9.14587C10.764 11.7124 11.1918 14.7601 10.3898 17.6474C10.3898 17.8078 10.2293 17.9147 10.0155 17.9147ZM2.58337 4.86839C1.99521 7.43488 2.36949 10.1083 3.7062 12.4074C5.04291 14.7066 7.18165 16.3641 9.69467 17.1127C10.2828 14.5462 9.90854 11.8728 8.57183 9.57362C7.28859 7.221 5.14985 5.56348 2.58337 4.86839Z" fill="#333333"/>
<path d="M13.0635 29.7307H6.9146L5.41748 17.4865H14.5606L13.0635 29.7307Z" fill="white"/>
<path d="M13.0635 30.1054H6.91461C6.70074 30.1054 6.54033 29.945 6.54033 29.7846L4.98975 17.5403C4.98975 17.4334 4.98975 17.3264 5.09668 17.2195C5.20362 17.1125 5.25709 17.1125 5.41749 17.1125H14.5606C14.6675 17.1125 14.7745 17.166 14.8814 17.2195C14.9883 17.273 14.9883 17.4334 14.9883 17.5403L13.4378 29.7846C13.4378 29.945 13.2239 30.1054 13.0635 30.1054ZM7.28889 29.3034H12.6892L14.1328 17.8611H5.84524L7.28889 29.3034Z" fill="#333333"/>
<path d="M12.0474 33.9552C11.4592 33.9552 10.978 33.474 10.978 32.8858V29.6777H13.1168V32.8858C13.1168 33.474 12.6355 33.9552 12.0474 33.9552Z" fill="#632DB8"/>
<path d="M12.0476 34.3826C11.2456 34.3826 10.604 33.741 10.604 32.939V29.7308C10.604 29.517 10.7644 29.3566 10.9783 29.3566H13.117C13.3309 29.3566 13.4913 29.517 13.4913 29.7308V32.939C13.4913 33.6875 12.8497 34.3826 12.0476 34.3826ZM11.3526 30.1051V32.8855C11.3526 33.2598 11.6734 33.5806 12.0476 33.5806C12.4219 33.5806 12.7427 33.2598 12.7427 32.8855V30.1051H11.3526Z" fill="#333333"/>
<path d="M33.2744 33.9552C32.6863 33.9552 32.2051 33.474 32.2051 32.8858V29.6777H34.3438V32.8858C34.3438 33.474 33.8626 33.9552 33.2744 33.9552Z" fill="#632DB8"/>
<path d="M33.2747 34.3826C32.4727 34.3826 31.8311 33.741 31.8311 32.939V29.7308C31.8311 29.517 31.9915 29.3566 32.2053 29.3566H34.3441C34.5579 29.3566 34.7183 29.517 34.7183 29.7308V32.939C34.7718 33.6875 34.0767 34.3826 33.2747 34.3826ZM32.6331 30.1051V32.8855C32.6331 33.2598 32.9539 33.5806 33.3282 33.5806C33.7025 33.5806 34.0233 33.2598 34.0233 32.8855V30.1051H32.6331Z" fill="#333333"/>
<path d="M32.2054 26.5226H13.1172V18.0211C13.1172 15.6685 15.0421 13.7437 17.3947 13.7437H28.0349C30.3875 13.7437 32.3123 15.6685 32.3123 18.0211V26.5226H32.2054Z" fill="#FFCC3F"/>
<path d="M32.2052 26.8973H13.117C12.9031 26.8973 12.7427 26.7369 12.7427 26.523V18.0215C12.7427 15.455 14.8279 13.3698 17.3944 13.3698H28.0346C30.6011 13.3698 32.6864 15.455 32.6864 18.0215V26.523C32.6329 26.7369 32.4725 26.8973 32.2052 26.8973ZM13.4912 26.1487H31.8309V18.0215C31.8309 15.8828 30.1199 14.1718 27.9812 14.1718H17.341C15.2022 14.1718 13.4912 15.8828 13.4912 18.0215V26.1487Z" fill="#333333"/>
<path d="M30.3343 22.5128C27.9282 22.0316 25.4152 21.8177 22.9022 21.8177C20.3891 21.8177 17.8761 22.0316 15.47 22.5128L13.064 23.3149V27.5923H32.473V22.8871L30.3343 22.5128Z" fill="white"/>
<path d="M32.4725 27.9665H13.117C12.9031 27.9665 12.7427 27.8061 12.7427 27.5922V23.3148C12.7427 23.1544 12.8496 22.9939 13.01 22.9405L15.4161 22.1385H15.4696C20.4421 21.176 25.5216 21.176 30.4942 22.1385L32.6329 22.5127C32.7933 22.5662 32.9537 22.7266 32.9537 22.887V27.5922C32.9003 27.8061 32.7399 27.9665 32.4725 27.9665ZM13.4912 27.218H32.0982V23.2613L30.2803 22.9405C25.4147 22.0315 20.4421 21.978 15.5765 22.9405L13.4912 23.689V27.218Z" fill="#333333"/>
<path d="M32.2052 19.6251C31.0289 19.6251 30.0665 20.5876 30.0665 21.7639V26.5226H15.2023V21.7639C15.2023 20.5876 14.2398 19.6251 13.0635 19.6251C11.8872 19.6251 10.9248 20.5876 10.9248 21.7639V30.8H34.344V21.7639C34.344 20.5876 33.3815 19.6251 32.2052 19.6251Z" fill="#FFCC3F"/>
<path d="M34.344 31.1748H10.9783C10.7644 31.1748 10.604 31.0144 10.604 30.8005V21.7644C10.604 20.3742 11.7268 19.2513 13.117 19.2513C14.5072 19.2513 15.63 20.3742 15.63 21.7644V26.1488H29.7457V21.7644C29.7457 20.3742 30.8685 19.2513 32.2587 19.2513C33.6489 19.2513 34.7717 20.3742 34.7717 21.7644V30.8005C34.7717 31.0144 34.5579 31.1748 34.344 31.1748ZM11.3526 30.3728H33.9697V21.7644C33.9697 20.8019 33.1677 20.0534 32.2587 20.0534C31.2963 20.0534 30.5477 20.8554 30.5477 21.7644V26.5231C30.5477 26.7369 30.3873 26.8973 30.1734 26.8973H15.2023C14.9884 26.8973 14.828 26.7369 14.828 26.5231V21.7644C14.828 20.8019 14.026 20.0534 13.117 20.0534C12.1546 20.0534 11.406 20.8554 11.406 21.7644V30.3728H11.3526Z" fill="#333333"/>
<path d="M15.7904 12.7539C17.6571 9.56942 18.0757 6.3463 16.7255 5.55484C15.3753 4.76337 12.7675 6.70327 10.9009 9.88772C9.03422 13.0722 8.61555 16.2953 9.96576 17.0868C11.316 17.8782 13.9238 15.9383 15.7904 12.7539Z" fill="#632DB8"/>
<path d="M9.74861 17.8075C9.5882 17.8075 9.4278 17.7006 9.37433 17.5402C8.62577 14.8667 9.00005 12.0329 10.4437 9.62681C11.8339 7.22073 14.133 5.50974 16.8064 4.86812C17.0203 4.81465 17.2342 4.92159 17.2877 5.13546C18.0362 7.80889 17.6619 10.6427 16.2183 13.0488C14.8281 15.4549 12.529 17.1659 9.85555 17.8075H9.74861ZM11.0853 10.0011C9.85555 12.0864 9.48127 14.5459 10.016 16.8985C12.3686 16.2034 14.2934 14.7063 15.5232 12.5676C16.753 10.4823 17.1272 8.02276 16.5926 5.67015C14.2934 6.36524 12.3151 7.91582 11.0853 10.0011Z" fill="#333333"/>
</svg>
