<svg width="current" height="current" viewBox="0 0 18 18" fill="none" xmlns="http://www.w3.org/2000/svg">
<path fill-rule="evenodd" clip-rule="evenodd" d="M0.200195 12.1916H17.2551V0.200195H0.200195V12.1916Z" fill="white"/>
<path fill-rule="evenodd" clip-rule="evenodd" d="M0.399907 11.9917H17.0546V0.400185H0.399907V11.9917ZM17.255 12.3916H0.200093C0.147047 12.3915 0.0961958 12.3704 0.0586871 12.3329C0.0211783 12.2954 7.3623e-05 12.2445 0 12.1915V0.200093C0 0.0893321 0.0893319 0 0.200371 0H17.255C17.3652 0 17.4545 0.0893319 17.4545 0.200371V12.1915C17.4545 12.3022 17.3652 12.3916 17.255 12.3916Z" fill="#333333"/>
<path fill-rule="evenodd" clip-rule="evenodd" d="M5.40444 11.8584H5.00537V8.26114C5.00537 8.20826 5.02624 8.15678 5.06381 8.11977L7.46159 5.72144L7.74461 6.0039L5.40472 8.34379L5.40444 11.8584Z" fill="#333333"/>
<path fill-rule="evenodd" clip-rule="evenodd" d="M8.05275 5.86287C8.05275 6.19404 7.7842 6.46287 7.45331 6.46287C7.29742 6.45812 7.1495 6.39286 7.04091 6.2809C6.93231 6.16895 6.87158 6.01912 6.87158 5.86315C6.87158 5.70718 6.93231 5.55735 7.04091 5.4454C7.1495 5.33344 7.29742 5.26818 7.45331 5.26343C7.78448 5.26343 8.05275 5.5317 8.05275 5.86287Z" fill="#FFCC3F"/>
<path fill-rule="evenodd" clip-rule="evenodd" d="M7.45334 5.46286C7.23321 5.46286 7.05372 5.64236 7.05372 5.86277C7.05372 6.08318 7.23321 6.26268 7.45334 6.26268C7.67375 6.26268 7.85325 6.08318 7.85325 5.86277C7.85325 5.64236 7.67375 5.46286 7.45334 5.46286ZM7.45334 6.66258C7.2414 6.66207 7.0383 6.57763 6.88846 6.42774C6.73862 6.27785 6.65425 6.07471 6.65381 5.86277C6.65432 5.65088 6.73873 5.44781 6.88856 5.29798C7.03839 5.14815 7.24145 5.06375 7.45334 5.06323C7.66528 5.06367 7.86842 5.14804 8.01831 5.29788C8.1682 5.44772 8.25264 5.65083 8.25316 5.86277C8.25272 6.07476 8.16831 6.27794 8.01841 6.42784C7.86851 6.57773 7.66533 6.66214 7.45334 6.66258ZM12.4498 11.8586H12.0505V8.34403L9.71058 6.00414L9.99305 5.72167L12.3914 8.12C12.4287 8.15702 12.4498 8.20822 12.4498 8.26138V11.8586Z" fill="#333333"/>
<path fill-rule="evenodd" clip-rule="evenodd" d="M9.40234 5.86287C9.40234 6.19404 9.67062 6.46287 10.0018 6.46287C10.1577 6.45812 10.3056 6.39286 10.4142 6.2809C10.5228 6.16895 10.5835 6.01912 10.5835 5.86315C10.5835 5.70718 10.5228 5.55735 10.4142 5.4454C10.3056 5.33344 10.1577 5.26818 10.0018 5.26343C9.67062 5.26343 9.40234 5.5317 9.40234 5.86287Z" fill="#FFCC3F"/>
<path fill-rule="evenodd" clip-rule="evenodd" d="M10.002 5.46286C9.78155 5.46286 9.60206 5.64236 9.60206 5.86277C9.60206 6.08318 9.78156 6.26268 10.0017 6.26268C10.2221 6.26268 10.4016 6.08318 10.4016 5.86277C10.4016 5.64236 10.2221 5.46314 10.0017 5.46314M10.0017 6.66258C9.78974 6.66207 9.58664 6.57763 9.4368 6.42774C9.28696 6.27785 9.20259 6.07471 9.20215 5.86277C9.20266 5.65088 9.28706 5.44781 9.4369 5.29798C9.58673 5.14815 9.78979 5.06375 10.0017 5.06323C10.2136 5.06367 10.4168 5.14804 10.5667 5.29788C10.7165 5.44772 10.801 5.65083 10.8015 5.86277C10.8011 6.07476 10.7167 6.27794 10.5668 6.42784C10.4169 6.57773 10.2137 6.66214 10.0017 6.66258Z" fill="#333333"/>
<path fill-rule="evenodd" clip-rule="evenodd" d="M2.73242 17.2548H14.7235V10.0596H2.73242V17.2548Z" fill="#632DB8"/>
<path fill-rule="evenodd" clip-rule="evenodd" d="M2.93158 17.0553H14.5236V10.2603H2.93158V17.0553ZM14.7237 17.4547H2.73204C2.67914 17.4545 2.62844 17.4335 2.59101 17.3961C2.55358 17.3587 2.53245 17.3081 2.53223 17.2552V10.0599C2.53223 9.94968 2.62184 9.86035 2.73204 9.86035H14.7237C14.8339 9.86035 14.9235 9.94968 14.9235 10.0599V17.2552C14.9233 17.3081 14.9022 17.3587 14.8647 17.3961C14.8273 17.4335 14.7766 17.4545 14.7237 17.4547Z" fill="#333333"/>
</svg>
