<svg width="current" height="current" viewBox="0 0 30 30" fill="none" xmlns="http://www.w3.org/2000/svg">
<path fill-rule="evenodd" clip-rule="evenodd" d="M16.0683 28.8834H4.65971C4.09801 28.8835 3.5418 28.7729 3.02287 28.5579C2.50393 28.343 2.03242 28.0279 1.6353 27.6307C1.23817 27.2334 0.923194 26.7619 0.708373 26.2429C0.493551 25.7239 0.38309 25.1676 0.383301 24.6059V4.65898C0.383231 4.09737 0.493795 3.54125 0.70868 3.02238C0.923564 2.50352 1.23856 2.03206 1.63567 1.63494C2.03279 1.23783 2.50424 0.922833 3.02311 0.707948C3.54198 0.493064 4.0981 0.382498 4.65971 0.382568H16.0683C16.6298 0.382568 17.1858 0.493189 17.7046 0.708112C18.2234 0.923035 18.6947 1.23805 19.0918 1.63517C19.4888 2.03228 19.8037 2.50372 20.0185 3.02255C20.2333 3.54138 20.3437 4.09744 20.3436 4.65898V24.6065C20.3437 25.168 20.2333 25.7241 20.0185 26.2429C19.8037 26.7617 19.4888 27.2332 19.0918 27.6303C18.6947 28.0274 18.2234 28.3424 17.7046 28.5573C17.1858 28.7723 16.6298 28.8834 16.0683 28.8834Z" fill="#632DB8"/>
<path fill-rule="evenodd" clip-rule="evenodd" d="M4.6587 0.766204C2.51248 0.766204 0.766203 2.51356 0.766203 4.65978V24.6073C0.766203 26.753 2.51248 28.4998 4.6587 28.4998H16.0673C18.2135 28.4998 19.9608 26.753 19.9608 24.6073V4.65978C19.9608 2.51356 18.2135 0.766204 16.0673 0.766204H4.6587ZM16.0673 29.2676H4.6587C2.08955 29.2676 0 27.1764 0 24.6073V4.65978C0 2.09062 2.08955 0 4.6587 0H16.0673C18.637 0 20.727 2.09062 20.727 4.65978V24.6073C20.727 27.1764 18.6364 29.2676 16.0673 29.2676Z" fill="#333333"/>
<path fill-rule="evenodd" clip-rule="evenodd" d="M14.5552 7.50789H5.99753C5.71688 7.50796 5.43896 7.45275 5.17964 7.34541C4.92033 7.23807 4.68469 7.08071 4.48619 6.88231C4.28769 6.68391 4.13021 6.44835 4.02275 6.18909C3.91528 5.92983 3.85993 5.65194 3.85986 5.37128V5.36915C3.85993 5.08849 3.91528 4.8106 4.02275 4.55134C4.13021 4.29208 4.28769 4.05652 4.48619 3.85812C4.68469 3.65972 4.92033 3.50236 5.17964 3.39502C5.43896 3.28768 5.71688 3.23247 5.99753 3.23254H14.5552C15.1218 3.23254 15.6653 3.45765 16.066 3.85834C16.4666 4.25903 16.6917 4.80248 16.6917 5.36915V5.37128C16.6917 5.93795 16.4666 6.4814 16.066 6.88209C15.6653 7.28278 15.1218 7.50789 14.5552 7.50789Z" fill="white"/>
<path fill-rule="evenodd" clip-rule="evenodd" d="M5.99639 3.61581C5.53154 3.61624 5.08588 3.8012 4.75733 4.13005C4.42878 4.45889 4.24423 4.90473 4.24423 5.36958C4.24423 6.33736 5.03022 7.12335 5.99639 7.12335H14.5556C15.0203 7.12278 15.4659 6.93796 15.7945 6.6094C16.1232 6.28084 16.3081 5.83537 16.3088 5.37065C16.3083 4.9056 16.1234 4.45974 15.7946 4.13079C15.4659 3.80185 15.0201 3.61666 14.5551 3.61581H5.99639ZM14.5556 7.89115H5.99639C5.32854 7.88974 4.68849 7.62367 4.21645 7.15122C3.74441 6.67878 3.47887 6.0385 3.47803 5.37065C3.47803 3.98047 4.60835 2.84961 5.99639 2.84961H14.5556C15.2237 2.85046 15.8643 3.11621 16.3367 3.5886C16.8092 4.06098 17.0751 4.70145 17.0761 5.36958C17.0755 6.03798 16.8098 6.67887 16.3373 7.1516C15.8648 7.62433 15.224 7.89031 14.5556 7.89115Z" fill="#333333"/>
<path fill-rule="evenodd" clip-rule="evenodd" d="M29.0143 8.18197L27.6418 4.08093L25.1935 7.64461L22.781 24.8935L22.512 26.8173C22.4767 27.068 22.4911 27.3232 22.5544 27.5683C22.6177 27.8134 22.7286 28.0437 22.8809 28.2459C23.0332 28.4481 23.2238 28.6184 23.4419 28.7469C23.66 28.8755 23.9012 28.9598 24.1519 28.9951C24.6586 29.0663 25.1729 28.9334 25.5817 28.6256C25.9904 28.3178 26.2603 27.8603 26.3318 27.3536L26.6013 25.4304L29.0143 8.18197Z" fill="#FFCC3F"/>
<path fill-rule="evenodd" clip-rule="evenodd" d="M25.5606 7.78724L22.8903 26.8707C22.8326 27.2792 22.9385 27.6855 23.1855 28.0144C23.3076 28.1769 23.4606 28.3136 23.6358 28.4166C23.811 28.5197 24.0049 28.587 24.2062 28.6148C25.0473 28.7282 25.8332 28.1432 25.9519 27.3006L28.6211 8.21766L27.5218 4.93148L25.5606 7.78724ZM24.4217 29.3971C24.3147 29.3971 24.2067 29.3898 24.0977 29.3751C23.7969 29.3334 23.5074 29.2324 23.2458 29.0782C22.9843 28.9239 22.7559 28.7194 22.5738 28.4763C22.3902 28.2345 22.2565 27.9585 22.1806 27.6645C22.1047 27.3705 22.088 27.0643 22.1316 26.7637L24.8141 7.59101C24.8218 7.53229 24.8432 7.47622 24.8767 7.42739L27.3256 3.86372C27.3672 3.80655 27.4232 3.7614 27.4879 3.73286C27.5526 3.70431 27.6237 3.69338 27.6939 3.70117C27.7648 3.71062 27.8315 3.73986 27.8865 3.78555C27.9414 3.83123 27.9824 3.8915 28.0046 3.95943L29.3771 8.06046C29.396 8.11652 29.4013 8.17626 29.3926 8.23477L26.7112 27.4075C26.6321 27.9588 26.3571 28.4633 25.9366 28.8285C25.5161 29.1937 24.9781 29.3954 24.4211 29.3965" fill="#333333"/>
<path fill-rule="evenodd" clip-rule="evenodd" d="M28.096 14.7842L24.2671 14.2458L24.8643 9.98914L28.6937 10.5276L28.096 14.7842Z" fill="white"/>
<path fill-rule="evenodd" clip-rule="evenodd" d="M24.7001 13.919L27.7692 14.3504L28.2616 10.8552L25.1904 10.4221L24.7001 13.919ZM28.0953 15.1669C28.078 15.1667 28.0607 15.1656 28.0434 15.1637L24.213 14.6253C24.1126 14.6106 24.022 14.5568 23.9611 14.4757C23.9001 14.3946 23.8736 14.2927 23.8873 14.1922L24.4841 9.93609C24.4984 9.83539 24.552 9.74447 24.6332 9.68318C24.7144 9.62241 24.8162 9.59609 24.9166 9.60993L28.7466 10.1484C28.7965 10.1552 28.8445 10.1719 28.888 10.1975C28.9314 10.223 28.9694 10.2568 28.9997 10.2971C29.03 10.3373 29.0521 10.3832 29.0646 10.432C29.0771 10.4808 29.0799 10.5316 29.0727 10.5815L28.476 14.8375C28.4634 14.9292 28.418 15.0132 28.3482 15.0738C28.2784 15.1345 28.1889 15.1678 28.0964 15.1674" fill="#333333"/>
</svg>
