<svg width="18" height="16" viewBox="0 0 18 16" fill="none" xmlns="http://www.w3.org/2000/svg">
<path fill-rule="evenodd" clip-rule="evenodd" d="M9.65178 1.5029L8.71039 2.44734L7.76955 1.5029C6.03733 -0.235992 3.22844 -0.235992 1.49594 1.5029C-0.236278 3.24234 -0.236278 6.06262 1.49594 7.80151L2.43678 8.74679L8.71067 15.0454L14.9848 8.74679L15.9257 7.80151C17.6582 6.06262 17.6582 3.24234 15.9257 1.5029C14.1932 -0.235992 11.3843 -0.235992 9.65178 1.5029Z" fill="#632DB8"/>
<path fill-rule="evenodd" clip-rule="evenodd" d="M4.63354 0.397237C4.0765 0.395626 3.52472 0.504986 3.0104 0.718935C2.49609 0.932884 2.02954 1.24714 1.63799 1.64335C-0.0139583 3.30279 -0.0139583 6.00279 1.63799 7.66196L8.71104 14.7631L15.7833 7.66196C17.4369 6.00251 17.4369 3.30251 15.7833 1.64307C15.3918 1.24709 14.9254 0.93302 14.4113 0.719171C13.8972 0.505323 13.3456 0.395978 12.7888 0.397515C12.232 0.395978 11.6805 0.505323 11.1663 0.719171C10.6522 0.93302 10.1858 1.24709 9.79437 1.64307L8.85299 2.58751C8.81476 2.62394 8.76398 2.64426 8.71118 2.64426C8.65838 2.64426 8.6076 2.62394 8.56937 2.58751L7.62799 1.64307C7.23652 1.24709 6.77013 0.93302 6.25602 0.719171C5.7419 0.505323 5.19036 0.395701 4.63354 0.397237ZM8.71104 15.2445C8.65799 15.2438 8.60723 15.2227 8.56937 15.1856L1.35437 7.94196C-0.451458 6.12807 -0.451458 3.17696 1.35437 1.36335C1.78325 0.930015 2.29404 0.586317 2.857 0.352261C3.41996 0.118205 4.02386 -0.00153333 4.63354 1.48227e-05C5.8716 1.48227e-05 7.03576 0.483903 7.9116 1.36335L8.71104 2.16585L9.51021 1.36307C9.93904 0.929854 10.4497 0.586246 11.0126 0.352241C11.5755 0.118235 12.1793 -0.00149593 12.7888 1.48227e-05C13.3985 -0.00153333 14.0024 0.118205 14.5654 0.352261C15.1283 0.586317 15.6391 0.930015 16.068 1.36335C17.8735 3.17696 17.8735 6.12835 16.068 7.94196L8.85299 15.1856C8.81506 15.2228 8.76419 15.2439 8.71104 15.2445Z" fill="#333333"/>
<path fill-rule="evenodd" clip-rule="evenodd" d="M13.9554 5.44051C13.8221 5.57467 13.6636 5.68114 13.489 5.7538C13.3143 5.82645 13.1271 5.86386 12.9379 5.86386C12.7488 5.86386 12.5615 5.82645 12.3869 5.7538C12.2123 5.68114 12.0537 5.57467 11.9204 5.44051C11.6502 5.16882 11.4985 4.8012 11.4985 4.41801C11.4985 4.03482 11.6502 3.66721 11.9204 3.39551C12.0537 3.26135 12.2123 3.15488 12.3869 3.08223C12.5615 3.00957 12.7488 2.97217 12.9379 2.97217C13.1271 2.97217 13.3143 3.00957 13.489 3.08223C13.6636 3.15488 13.8221 3.26135 13.9554 3.39551C14.2256 3.66721 14.3773 4.03482 14.3773 4.41801C14.3773 4.8012 14.2256 5.16882 13.9554 5.44051Z" fill="#FFCC3F"/>
<path fill-rule="evenodd" clip-rule="evenodd" d="M12.9376 3.17091C12.6065 3.17091 12.2959 3.30063 12.062 3.53591C11.829 3.77041 11.6983 4.08756 11.6983 4.41813C11.6983 4.7487 11.829 5.06585 12.062 5.30035C12.1763 5.41642 12.3126 5.50848 12.463 5.57111C12.6133 5.63374 12.7747 5.66569 12.9376 5.66507C13.1005 5.66545 13.2619 5.6334 13.4123 5.57078C13.5627 5.50817 13.6992 5.41624 13.8137 5.30035C14.0464 5.06571 14.177 4.74862 14.177 4.41813C14.177 4.08765 14.0464 3.77055 13.8137 3.53591C13.6992 3.41997 13.5627 3.32799 13.4123 3.26533C13.2619 3.20266 13.1005 3.17057 12.9376 3.17091ZM12.9376 6.06313H12.937C12.7215 6.06345 12.508 6.02097 12.309 5.93814C12.1101 5.85532 11.9295 5.73379 11.7779 5.58063C11.1398 4.93952 11.1398 3.89674 11.7779 3.25591C11.9294 3.10267 12.11 2.98112 12.309 2.89833C12.508 2.81554 12.7215 2.77317 12.937 2.77369H12.9376C13.3759 2.77369 13.7881 2.94452 14.0973 3.25591C14.7354 3.89674 14.7354 4.93924 14.0973 5.58091C13.9457 5.73421 13.765 5.8558 13.5659 5.93859C13.3668 6.02138 13.1532 6.06372 12.9376 6.06313Z" fill="#333333"/>
<path fill-rule="evenodd" clip-rule="evenodd" d="M11.5128 7.89381C11.3795 8.02797 11.2209 8.13445 11.0463 8.2071C10.8717 8.27975 10.6844 8.31716 10.4953 8.31716C10.3061 8.31716 10.1189 8.27975 9.94425 8.2071C9.76962 8.13445 9.61109 8.02797 9.47777 7.89381C9.20773 7.62214 9.05615 7.25465 9.05615 6.87159C9.05615 6.48854 9.20773 6.12104 9.47777 5.84937C9.61109 5.71521 9.76962 5.60874 9.94425 5.53608C10.1189 5.46343 10.3061 5.42603 10.4953 5.42603C10.6844 5.42603 10.8717 5.46343 11.0463 5.53608C11.2209 5.60874 11.3795 5.71521 11.5128 5.84937C11.7828 6.12104 11.9344 6.48854 11.9344 6.87159C11.9344 7.25465 11.7828 7.62214 11.5128 7.89381Z" fill="#FFCC3F"/>
<path fill-rule="evenodd" clip-rule="evenodd" d="M10.4953 5.6248C10.3323 5.62442 10.171 5.65648 10.0205 5.7191C9.87013 5.78171 9.73369 5.87364 9.61916 5.98952C9.38654 6.22428 9.25604 6.5414 9.25604 6.87189C9.25604 7.20237 9.38654 7.51949 9.61916 7.75425C9.73369 7.87013 9.87013 7.96206 10.0205 8.02468C10.171 8.08729 10.3323 8.11935 10.4953 8.11897C10.8258 8.11897 11.1369 7.98925 11.3703 7.75425C11.6038 7.51995 11.7349 7.20266 11.7349 6.87189C11.7349 6.54111 11.6038 6.22382 11.3703 5.98952C11.2561 5.87352 11.1198 5.78151 10.9696 5.71888C10.8193 5.65625 10.6581 5.62426 10.4953 5.6248ZM10.4953 8.51675C10.2796 8.51726 10.066 8.47484 9.86687 8.39195C9.66776 8.30907 9.48714 8.18737 9.33555 8.03397C8.69805 7.39314 8.69805 6.35064 9.33555 5.70897C9.48724 5.55577 9.66789 5.43428 9.867 5.35158C10.0661 5.26889 10.2797 5.22664 10.4953 5.2273H10.4958C10.9336 5.2273 11.345 5.39841 11.655 5.70925C12.293 6.35064 12.293 7.39314 11.655 8.03397C11.5034 8.18718 11.3228 8.30876 11.1238 8.39163C10.9248 8.47451 10.7114 8.51703 10.4958 8.51675H10.4953Z" fill="#333333"/>
<path fill-rule="evenodd" clip-rule="evenodd" d="M11.5131 5.44051C11.3797 5.57467 11.2212 5.68114 11.0466 5.7538C10.872 5.82645 10.6847 5.86386 10.4956 5.86386C10.3064 5.86386 10.1191 5.82645 9.94452 5.7538C9.7699 5.68114 9.61137 5.57467 9.47805 5.44051C9.20783 5.16882 9.05615 4.8012 9.05615 4.41801C9.05615 4.03482 9.20783 3.66721 9.47805 3.39551C9.61137 3.26135 9.7699 3.15488 9.94452 3.08223C10.1191 3.00957 10.3064 2.97217 10.4956 2.97217C10.6847 2.97217 10.872 3.00957 11.0466 3.08223C11.2212 3.15488 11.3797 3.26135 11.5131 3.39551C11.7833 3.66721 11.9349 4.03482 11.9349 4.41801C11.9349 4.8012 11.7833 5.16882 11.5131 5.44051Z" fill="#FFCC3F"/>
<path fill-rule="evenodd" clip-rule="evenodd" d="M10.4953 3.17091C10.3323 3.17057 10.1709 3.20267 10.0205 3.26533C9.8701 3.328 9.73366 3.41998 9.61916 3.53591C9.38663 3.77066 9.25618 4.08772 9.25618 4.41814C9.25618 4.74855 9.38663 5.06561 9.61916 5.30036C9.73369 5.41624 9.87013 5.50817 10.0205 5.57079C10.171 5.63341 10.3323 5.66546 10.4953 5.66508C10.8258 5.66508 11.1369 5.53564 11.3703 5.30036C11.6037 5.06607 11.7347 4.74884 11.7347 4.41814C11.7347 4.08743 11.6037 3.7702 11.3703 3.53591C11.2561 3.41986 11.1199 3.32779 10.9696 3.26512C10.8193 3.20244 10.6581 3.17041 10.4953 3.17091ZM10.4953 6.06314C10.2796 6.06369 10.066 6.02131 9.8669 5.93847C9.66779 5.85563 9.48717 5.73399 9.33555 5.58064C8.69805 4.93952 8.69805 3.89675 9.33555 3.25591C9.4871 3.10248 9.66772 2.98081 9.86685 2.89801C10.066 2.81521 10.2796 2.77295 10.4953 2.77369H10.4958C10.7114 2.77318 10.9249 2.81555 11.1239 2.89834C11.3229 2.98112 11.5034 3.10268 11.655 3.25591C12.293 3.89675 12.293 4.93925 11.655 5.58091C11.5033 5.73403 11.3228 5.8555 11.1238 5.93828C10.9248 6.02106 10.7113 6.0635 10.4958 6.06314H10.4953Z" fill="#333333"/>
<path fill-rule="evenodd" clip-rule="evenodd" d="M13.9556 7.89381C13.8223 8.02797 13.6638 8.13445 13.4892 8.2071C13.3145 8.27975 13.1273 8.31716 12.9381 8.31716C12.749 8.31716 12.5617 8.27975 12.3871 8.2071C12.2125 8.13445 12.054 8.02797 11.9206 7.89381C11.6506 7.62214 11.499 7.25465 11.499 6.87159C11.499 6.48854 11.6506 6.12104 11.9206 5.84937C12.054 5.71521 12.2125 5.60874 12.3871 5.53608C12.5617 5.46343 12.749 5.42603 12.9381 5.42603C13.1273 5.42603 13.3145 5.46343 13.4892 5.53608C13.6638 5.60874 13.8223 5.71521 13.9556 5.84937C14.2257 6.12104 14.3773 6.48854 14.3773 6.87159C14.3773 7.25465 14.2257 7.62214 13.9556 7.89381Z" fill="#FFCC3F"/>
<path fill-rule="evenodd" clip-rule="evenodd" d="M12.9376 5.6248C12.6065 5.6248 12.2959 5.75425 12.062 5.98952C11.8289 6.22403 11.6981 6.54124 11.6981 6.87189C11.6981 7.20253 11.8289 7.51974 12.062 7.75425C12.1763 7.87031 12.3126 7.96237 12.463 8.025C12.6133 8.08764 12.7747 8.11958 12.9376 8.11897C13.1005 8.11935 13.2619 8.08729 13.4123 8.02468C13.5627 7.96206 13.6992 7.87013 13.8137 7.75425C14.0465 7.51959 14.1772 7.20244 14.1772 6.87189C14.1772 6.54133 14.0465 6.22418 13.8137 5.98952C13.6992 5.87364 13.5627 5.78171 13.4123 5.71909C13.2619 5.65648 13.1005 5.62442 12.9376 5.6248ZM12.9376 8.51675H12.937C12.7215 8.51703 12.508 8.47451 12.309 8.39163C12.11 8.30875 11.9295 8.18718 11.7779 8.03397C11.1398 7.39314 11.1398 6.35064 11.7779 5.70897C11.9295 5.55583 12.1101 5.43438 12.3091 5.35169C12.5081 5.269 12.7215 5.22671 12.937 5.2273H12.9376C13.1532 5.22668 13.3668 5.26897 13.5659 5.35171C13.765 5.43445 13.9456 5.55599 14.0973 5.70925C14.7354 6.35064 14.7354 7.39314 14.0973 8.03397C13.9457 8.18737 13.7651 8.30907 13.566 8.39195C13.3669 8.47484 13.1533 8.51726 12.9376 8.51675Z" fill="#333333"/>
<path fill-rule="evenodd" clip-rule="evenodd" d="M12.5312 6.46244C12.4246 6.5699 12.2977 6.65519 12.1579 6.71339C12.0182 6.77159 11.8683 6.80156 11.7169 6.80156C11.5655 6.80156 11.4156 6.77159 11.2758 6.71339C11.1361 6.65519 11.0092 6.5699 10.9026 6.46244C10.6866 6.24511 10.5654 5.95118 10.5654 5.6448C10.5654 5.33842 10.6866 5.04449 10.9026 4.82716C11.0092 4.7197 11.1361 4.63441 11.2758 4.57621C11.4156 4.518 11.5655 4.48804 11.7169 4.48804C11.8683 4.48804 12.0182 4.518 12.1579 4.57621C12.2977 4.63441 12.4246 4.7197 12.5312 4.82716C12.7469 5.04463 12.8679 5.33851 12.8679 5.6448C12.8679 5.95109 12.7469 6.24497 12.5312 6.46244Z" fill="white"/>
<path fill-rule="evenodd" clip-rule="evenodd" d="M11.7167 4.68702C11.4631 4.68702 11.2247 4.78702 11.0445 4.96702C10.8658 5.14736 10.7656 5.39095 10.7656 5.6448C10.7656 5.89865 10.8658 6.14223 11.0445 6.32258C11.1324 6.41151 11.237 6.48211 11.3524 6.53027C11.4678 6.57843 11.5916 6.6032 11.7167 6.60313H11.7172C11.9711 6.60313 12.21 6.50341 12.3892 6.32258C12.568 6.14234 12.6684 5.89872 12.6684 5.6448C12.6684 5.39088 12.568 5.14725 12.3892 4.96702C12.3013 4.87822 12.1966 4.80774 12.0813 4.75968C11.9659 4.71162 11.8422 4.68692 11.7172 4.68702H11.7167ZM11.7167 7.00035C11.3556 7.00035 11.0167 6.85952 10.7611 6.60313C10.5085 6.34828 10.3668 6.00397 10.3667 5.64513C10.3666 5.28629 10.5083 4.94195 10.7608 4.68702C10.8859 4.56081 11.0348 4.46071 11.1989 4.39252C11.363 4.32433 11.539 4.28942 11.7167 4.2898H11.7172C12.0783 4.2898 12.4181 4.43063 12.6733 4.68702C12.9259 4.94191 13.0676 5.28624 13.0676 5.64508C13.0676 6.00392 12.9259 6.34824 12.6733 6.60313C12.5482 6.72937 12.3993 6.82949 12.2352 6.89768C12.071 6.96587 11.895 7.00077 11.7172 7.00035H11.7167Z" fill="#333333"/>
</svg>
