<svg width="17" height="17" viewBox="0 0 17 17" fill="none" xmlns="http://www.w3.org/2000/svg">
<path fill-rule="evenodd" clip-rule="evenodd" d="M15.891 16.1645C15.7162 16.3391 15.4792 16.4372 15.2321 16.4372C14.9851 16.4372 14.7481 16.3391 14.5733 16.1645L8.64258 10.2338L9.9603 8.91553L15.891 14.8468C15.9776 14.9333 16.0464 15.036 16.0932 15.149C16.1401 15.2621 16.1643 15.3833 16.1643 15.5056C16.1643 15.628 16.1401 15.7492 16.0932 15.8623C16.0464 15.9753 15.9776 16.078 15.891 16.1645Z" fill="#FFCC3F"/>
<path fill-rule="evenodd" clip-rule="evenodd" d="M8.92495 10.2336L14.7146 16.023C14.8521 16.16 15.0383 16.2369 15.2325 16.2369C15.4266 16.2369 15.6128 16.16 15.7504 16.023C15.8184 15.9552 15.8723 15.8746 15.9091 15.7858C15.9459 15.6971 15.9648 15.602 15.9647 15.5059C15.9647 15.3103 15.8884 15.1263 15.7504 14.9877L9.95992 9.19784L8.92495 10.2336ZM15.2322 16.6366C15.0836 16.6368 14.9365 16.6077 14.7992 16.5509C14.662 16.494 14.5373 16.4106 14.4324 16.3054L8.50111 10.375C8.46381 10.3375 8.44287 10.2867 8.44287 10.2338C8.44287 10.1809 8.46381 10.1301 8.50111 10.0925L9.81966 8.774C9.83817 8.75548 9.86014 8.74078 9.88433 8.73076C9.90851 8.72074 9.93444 8.71558 9.96062 8.71558C9.9868 8.71558 10.0127 8.72074 10.0369 8.73076C10.0611 8.74078 10.0831 8.75548 10.1016 8.774L16.0323 14.7053C16.1377 14.8102 16.2212 14.935 16.2781 15.0724C16.3349 15.2098 16.3639 15.3572 16.3634 15.5059C16.3638 15.6545 16.3348 15.8017 16.2779 15.939C16.2211 16.0762 16.1376 16.2009 16.0323 16.3057C15.9273 16.4109 15.8026 16.4944 15.6653 16.5512C15.528 16.608 15.3808 16.6369 15.2322 16.6366Z" fill="#333333"/>
<path fill-rule="evenodd" clip-rule="evenodd" d="M11.3987 2.12835C13.9609 4.69894 13.9609 8.86666 11.3987 11.4373C8.8359 14.0081 4.68126 14.0081 2.11818 11.4373C-0.444342 8.86666 -0.444342 4.69894 2.11818 2.12835C4.68126 -0.442523 8.83618 -0.442523 11.3987 2.12835Z" fill="#632DB8"/>
<path fill-rule="evenodd" clip-rule="evenodd" d="M6.75856 0.399907C5.05874 0.399907 3.46134 1.06364 2.25967 2.26976C-0.221034 4.75798 -0.221034 8.8077 2.25967 11.2965C3.46134 12.502 5.05874 13.1658 6.75856 13.1658C8.45754 13.1658 10.0558 12.502 11.2574 11.2965C13.7381 8.8077 13.7381 4.75798 11.2574 2.26976C10.0558 1.06364 8.45781 0.399907 6.75856 0.399907ZM6.75856 13.5657C4.95188 13.5657 3.25457 12.8596 1.97692 11.5789C-0.659068 8.93404 -0.659068 4.63163 1.97748 1.98673C3.25457 0.70603 4.95188 0 6.75856 0C8.56468 0 10.2623 0.70603 11.5399 1.98673C14.1762 4.63163 14.1762 8.93404 11.5399 11.5789C10.2625 12.8596 8.5644 13.5657 6.75856 13.5657Z" fill="#333333"/>
<path fill-rule="evenodd" clip-rule="evenodd" d="M7.20774 7.51697C7.20774 9.02866 5.98604 10.2548 4.47824 10.2548C2.97073 10.2548 1.74902 9.02866 1.74902 7.51669C1.74902 6.00472 2.97073 4.77856 4.47824 4.77856C5.98576 4.77856 7.20774 6.00472 7.20774 7.51697Z" fill="white"/>
<path fill-rule="evenodd" clip-rule="evenodd" d="M4.4787 4.97876C3.08334 4.97876 1.94818 6.11698 1.94818 7.5168C1.94818 8.91661 3.08334 10.0551 4.4787 10.0551C5.87378 10.0551 7.00838 8.91689 7.00838 7.5168C7.00838 6.11698 5.87378 4.97876 4.4787 4.97876ZM4.4787 10.455C2.86349 10.455 1.54883 9.1373 1.54883 7.5168C1.54883 5.89713 2.86349 4.57886 4.4787 4.57886C6.09363 4.57886 7.40773 5.89713 7.40773 7.5168C7.40773 9.1373 6.09363 10.455 4.4787 10.455Z" fill="#333333"/>
<path fill-rule="evenodd" clip-rule="evenodd" d="M5.38861 7.51705C5.38875 7.6367 5.36533 7.75521 5.31968 7.86581C5.27402 7.97641 5.20703 8.07693 5.12253 8.16164C5.03803 8.24635 4.93767 8.31359 4.82718 8.35951C4.71669 8.40544 4.59824 8.42915 4.47859 8.4293C4.35894 8.42911 4.24049 8.40536 4.13002 8.35941C4.01955 8.31345 3.91921 8.24618 3.83473 8.16145C3.75025 8.07671 3.68329 7.97617 3.63767 7.86555C3.59205 7.75494 3.56867 7.63642 3.56885 7.51677C3.56867 7.3971 3.59206 7.27856 3.6377 7.16793C3.68334 7.05729 3.75032 6.95674 3.83483 6.872C3.91933 6.78726 4.01971 6.72 4.13021 6.67406C4.24072 6.62812 4.35919 6.60439 4.47887 6.60425C4.59854 6.60443 4.71701 6.62819 4.8275 6.67416C4.93799 6.72014 5.03834 6.78743 5.12283 6.87219C5.20731 6.95696 5.27426 7.05754 5.31986 7.16818C5.36547 7.27883 5.38883 7.39738 5.38861 7.51705Z" fill="#FFCC3F"/>
<path fill-rule="evenodd" clip-rule="evenodd" d="M4.4787 6.80393C4.29004 6.80452 4.10931 6.87991 3.97617 7.01357C3.84303 7.14724 3.76834 7.32825 3.76849 7.51691C3.76834 7.70557 3.84303 7.88659 3.97617 8.02025C4.10931 8.15391 4.29004 8.22931 4.4787 8.2299C4.66731 8.22924 4.84796 8.15381 4.98104 8.02015C5.11412 7.8865 5.18877 7.70552 5.18862 7.51691C5.18877 7.3283 5.11412 7.14733 4.98104 7.01367C4.84796 6.88002 4.66731 6.80459 4.4787 6.80393ZM4.4787 8.62953C4.18419 8.62857 3.90206 8.51095 3.6941 8.30241C3.48613 8.09387 3.36929 7.81142 3.36914 7.51691C3.36899 7.22231 3.48575 6.93969 3.69377 6.73109C3.9018 6.52249 4.1841 6.40496 4.4787 6.4043C4.77325 6.40503 5.05547 6.5226 5.26344 6.73119C5.4714 6.93978 5.58812 7.22236 5.58797 7.51691C5.58783 7.81137 5.47102 8.09378 5.26311 8.30231C5.05521 8.51084 4.77316 8.6285 4.4787 8.62953Z" fill="#333333"/>
<path fill-rule="evenodd" clip-rule="evenodd" d="M6.5653 3.52298C6.5653 4.19756 6.01984 4.74468 5.34721 4.74468C5.18703 4.74443 5.02846 4.71262 4.88057 4.65109C4.73268 4.58955 4.59836 4.49949 4.48528 4.38605C4.37219 4.2726 4.28256 4.13799 4.2215 3.98991C4.16044 3.84182 4.12914 3.68316 4.1294 3.52298C4.12914 3.3628 4.16044 3.20413 4.2215 3.05605C4.28256 2.90796 4.37219 2.77335 4.48528 2.6599C4.59836 2.54646 4.73268 2.4564 4.88057 2.39486C5.02846 2.33333 5.18703 2.30153 5.34721 2.30127C5.67073 2.30179 5.98081 2.43078 6.20923 2.65989C6.43766 2.889 6.56574 3.19945 6.5653 3.52298Z" fill="#FFCC3F"/>
<path fill-rule="evenodd" clip-rule="evenodd" d="M5.34689 2.50025C5.07636 2.50099 4.81716 2.60903 4.6262 2.80067C4.43524 2.99231 4.32812 3.25188 4.32834 3.52242C4.32804 3.79301 4.43514 4.05265 4.6261 4.24435C4.81707 4.43605 5.07631 4.54413 5.34689 4.54487C5.61748 4.54413 5.87671 4.43605 6.06768 4.24435C6.25865 4.05265 6.36574 3.79301 6.36545 3.52242C6.36567 3.25188 6.25854 2.99231 6.06758 2.80067C5.87662 2.60903 5.61743 2.50099 5.34689 2.50025ZM5.34689 4.9445C4.56545 4.9445 3.92871 4.30693 3.92871 3.52242C3.92871 2.73875 4.56545 2.10034 5.34689 2.10034C6.1289 2.10034 6.7648 2.73875 6.7648 3.52242C6.7648 4.30693 6.12862 4.9445 5.34689 4.9445Z" fill="#333333"/>
<path fill-rule="evenodd" clip-rule="evenodd" d="M5.28413 2.95668C5.23914 3.07035 5.17144 3.17364 5.08516 3.26025C4.99889 3.34686 4.89586 3.41496 4.78236 3.46039C4.76946 3.46501 4.7583 3.47351 4.75041 3.48472C4.74252 3.49593 4.73828 3.5093 4.73828 3.52301C4.73828 3.53671 4.74252 3.55009 4.75041 3.56129C4.7583 3.5725 4.76946 3.581 4.78236 3.58562C4.89583 3.63102 4.99885 3.69908 5.08512 3.78564C5.17139 3.8722 5.2391 3.97544 5.28413 4.08905C5.28856 4.10219 5.297 4.11359 5.30826 4.12168C5.31951 4.12976 5.33302 4.13411 5.34688 4.13411C5.36074 4.13411 5.37425 4.12976 5.38551 4.12168C5.39676 4.11359 5.4052 4.10219 5.40964 4.08905C5.45462 3.97539 5.52233 3.87209 5.6086 3.78548C5.69487 3.69887 5.79791 3.63077 5.9114 3.58534C5.9243 3.58072 5.93546 3.57222 5.94335 3.56102C5.95125 3.54981 5.95548 3.53644 5.95548 3.52273C5.95548 3.50902 5.95125 3.49565 5.94335 3.48444C5.93546 3.47323 5.9243 3.46473 5.9114 3.46011C5.79793 3.41471 5.69492 3.34666 5.60864 3.2601C5.52237 3.17354 5.45466 3.0703 5.40964 2.95668C5.40501 2.94378 5.39652 2.93261 5.38531 2.92472C5.3741 2.91683 5.36073 2.9126 5.34702 2.9126C5.33331 2.9126 5.31994 2.91683 5.30873 2.92472C5.29752 2.93261 5.28903 2.94378 5.2844 2.95668" fill="white"/>
<path fill-rule="evenodd" clip-rule="evenodd" d="M5.08268 3.52269C5.18537 3.59588 5.27526 3.68521 5.34706 3.78846C5.41961 3.68554 5.5091 3.59567 5.61172 3.52269C5.50927 3.44993 5.41988 3.36036 5.34734 3.25776C5.2748 3.36036 5.18513 3.44993 5.08268 3.52269ZM5.34734 4.33392C5.29346 4.33387 5.24087 4.31745 5.19654 4.28684C5.1522 4.25622 5.11822 4.21286 5.0991 4.16249C5.06421 4.07413 5.01159 3.99385 4.94448 3.92661C4.87738 3.85936 4.79722 3.80657 4.70893 3.77148C4.6587 3.7522 4.6155 3.71815 4.585 3.67382C4.5545 3.62949 4.53815 3.57697 4.53809 3.52316C4.53803 3.46936 4.55426 3.41679 4.58466 3.3724C4.61506 3.328 4.65819 3.29386 4.70838 3.27445C4.79682 3.23937 4.87712 3.18652 4.94432 3.11917C5.01153 3.05183 5.06421 2.97141 5.0991 2.8829C5.18147 2.67445 5.51376 2.67557 5.5953 2.88345C5.63025 2.97171 5.6829 3.05188 5.75 3.11902C5.8171 3.18617 5.89723 3.23888 5.98546 3.2739C6.08899 3.31564 6.15606 3.41304 6.15606 3.52269C6.15593 3.57636 6.13964 3.62875 6.10931 3.67302C6.07898 3.7173 6.03602 3.75142 5.98602 3.77093C5.89767 3.80639 5.81746 3.85947 5.75029 3.92693C5.68312 3.99439 5.63038 4.07482 5.5953 4.16332C5.57589 4.21338 5.54186 4.25643 5.49763 4.28686C5.4534 4.31729 5.40102 4.33369 5.34734 4.33392Z" fill="#333333"/>
<path fill-rule="evenodd" clip-rule="evenodd" d="M8.69664 3.0137C8.69664 3.68828 8.15119 4.23541 7.47855 4.23541C7.15508 4.23482 6.84507 4.10579 6.61671 3.87669C6.38834 3.64759 6.2603 3.33718 6.26074 3.0137C6.26074 2.33884 6.8062 1.79199 7.47855 1.79199C7.80208 1.79251 8.11215 1.92151 8.34058 2.15061C8.56901 2.37972 8.69709 2.69017 8.69664 3.0137Z" fill="#FFCC3F"/>
<path fill-rule="evenodd" clip-rule="evenodd" d="M7.47866 1.9917C7.20812 1.99244 6.94893 2.10049 6.75797 2.29212C6.56701 2.48376 6.45989 2.74334 6.46011 3.01387C6.45989 3.28441 6.56701 3.54399 6.75797 3.73563C6.94893 3.92726 7.20812 4.03531 7.47866 4.03605C7.7492 4.03531 8.00839 3.92726 8.19935 3.73563C8.39031 3.54399 8.49744 3.28441 8.49721 3.01387C8.49744 2.74334 8.39031 2.48376 8.19935 2.29212C8.00839 2.10049 7.7492 1.99244 7.47866 1.9917ZM7.47866 4.43512C6.69666 4.43512 6.06104 3.79783 6.06104 3.01387C6.06104 2.22992 6.69694 1.5918 7.47866 1.5918C8.26039 1.5918 8.89629 2.22992 8.89629 3.01387C8.89629 3.79755 8.26066 4.43512 7.47866 4.43512Z" fill="#333333"/>
<path fill-rule="evenodd" clip-rule="evenodd" d="M7.41596 2.44731C7.37112 2.56106 7.30347 2.66443 7.21717 2.75105C7.13088 2.83768 7.02778 2.90573 6.9142 2.95102C6.90129 2.95564 6.89013 2.96414 6.88224 2.97534C6.87435 2.98655 6.87012 2.99992 6.87012 3.01363C6.87012 3.02734 6.87435 3.04071 6.88224 3.05192C6.89013 3.06313 6.90129 3.07163 6.9142 3.07625C7.0278 3.12157 7.13093 3.18966 7.21722 3.27634C7.30351 3.36301 7.37115 3.46644 7.41596 3.58024C7.42058 3.59314 7.42908 3.6043 7.44029 3.61219C7.4515 3.62008 7.46487 3.62432 7.47858 3.62432C7.49229 3.62432 7.50566 3.62008 7.51687 3.61219C7.52807 3.6043 7.53657 3.59314 7.54119 3.58024C7.58604 3.46641 7.65372 3.36297 7.74006 3.27629C7.8264 3.18961 7.92958 3.12153 8.04323 3.07625C8.05614 3.07163 8.0673 3.06313 8.07519 3.05192C8.08308 3.04071 8.08732 3.02734 8.08732 3.01363C8.08732 2.99992 8.08308 2.98655 8.07519 2.97534C8.0673 2.96414 8.05614 2.95564 8.04323 2.95102C7.92966 2.90573 7.82655 2.83768 7.74026 2.75105C7.65397 2.66443 7.58632 2.56106 7.54147 2.44731C7.53691 2.43431 7.52842 2.42304 7.51718 2.41508C7.50593 2.40711 7.4925 2.40283 7.47872 2.40283C7.46494 2.40283 7.4515 2.40711 7.44026 2.41508C7.42902 2.42304 7.42053 2.43431 7.41596 2.44731Z" fill="white"/>
<path fill-rule="evenodd" clip-rule="evenodd" d="M7.21371 3.01379C7.31667 3.08615 7.40629 3.17632 7.47808 3.27901C7.55072 3.17632 7.64005 3.08643 7.74274 3.01379C7.64027 2.94095 7.55088 2.85128 7.47836 2.74858C7.40573 2.85127 7.31695 2.94116 7.21371 3.01379ZM7.47808 3.82502C7.42437 3.8249 7.37195 3.80851 7.32773 3.77801C7.28352 3.74751 7.24958 3.70432 7.2304 3.65415C7.19526 3.56582 7.14252 3.48557 7.0754 3.41826C7.00828 3.35095 6.92818 3.29798 6.83996 3.26259C6.78987 3.24304 6.74685 3.20884 6.71651 3.16445C6.68618 3.12006 6.66994 3.06756 6.66992 3.01379C6.66994 2.96003 6.68618 2.90752 6.71651 2.86313C6.74685 2.81875 6.78987 2.78454 6.83996 2.765C6.92818 2.7297 7.0083 2.67683 7.07547 2.60962C7.14263 2.5424 7.19544 2.46224 7.23068 2.374V2.37344C7.25011 2.32348 7.28413 2.28052 7.3283 2.25015C7.37247 2.21977 7.42476 2.20339 7.47836 2.20312C7.58857 2.20312 7.68597 2.27075 7.72688 2.37455C7.79729 2.55238 7.93922 2.69459 8.11649 2.765C8.22001 2.80674 8.28708 2.90414 8.28708 3.01379C8.28706 3.06756 8.27083 3.12006 8.24049 3.16445C8.21015 3.20884 8.16713 3.24304 8.11705 3.26259C8.02883 3.29789 7.9487 3.35075 7.88154 3.41797C7.81437 3.48518 7.76156 3.56534 7.72632 3.65359C7.70707 3.70376 7.67313 3.74695 7.62895 3.77754C7.58476 3.80812 7.53238 3.82467 7.47864 3.82502H7.47808Z" fill="#333333"/>
<path fill-rule="evenodd" clip-rule="evenodd" d="M7.88463 5.05008C7.88463 5.72494 7.33918 6.27178 6.66654 6.27178C6.50636 6.27153 6.3478 6.23972 6.19991 6.17819C6.05202 6.11665 5.9177 6.02659 5.80461 5.91315C5.69153 5.7997 5.6019 5.66509 5.54083 5.51701C5.47977 5.36892 5.44848 5.21026 5.44873 5.05008C5.44848 4.88989 5.47977 4.73123 5.54083 4.58315C5.6019 4.43506 5.69153 4.30045 5.80461 4.18701C5.9177 4.07356 6.05202 3.9835 6.19991 3.92196C6.3478 3.86043 6.50636 3.82862 6.66654 3.82837C6.99007 3.82889 7.30014 3.95788 7.52857 4.18699C7.757 4.4161 7.88507 4.72655 7.88463 5.05008Z" fill="#FFCC3F"/>
<path fill-rule="evenodd" clip-rule="evenodd" d="M6.66693 4.02833C6.39639 4.02906 6.1372 4.13711 5.94624 4.32875C5.75528 4.52038 5.64815 4.77996 5.64837 5.0505C5.6483 5.32094 5.75549 5.58037 5.94643 5.77189C6.13738 5.96341 6.39649 6.07137 6.66693 6.07211C6.93732 6.07137 7.19639 5.96344 7.38732 5.77199C7.57826 5.58053 7.68548 5.32117 7.68548 5.05077C7.68578 4.78019 7.57868 4.52054 7.38772 4.32884C7.19675 4.13715 6.93751 4.02906 6.66693 4.02833ZM6.66693 6.47174C5.88492 6.47174 5.24902 5.83445 5.24902 5.0505C5.24902 4.26682 5.8852 3.62842 6.66693 3.62842C7.44865 3.62842 8.08511 4.26682 8.08511 5.0505C8.08511 5.83417 7.44837 6.47174 6.66693 6.47174Z" fill="#333333"/>
<path fill-rule="evenodd" clip-rule="evenodd" d="M6.60395 4.48396C6.55893 4.59758 6.49122 4.70082 6.40494 4.78738C6.31867 4.87394 6.21565 4.942 6.10219 4.98739C6.08928 4.99202 6.07812 5.00051 6.07023 5.01172C6.06234 5.02293 6.05811 5.0363 6.05811 5.05001C6.05811 5.06372 6.06234 5.07709 6.07023 5.0883C6.07812 5.09951 6.08928 5.108 6.10219 5.11263C6.21587 5.15794 6.31906 5.22607 6.40541 5.31279C6.49175 5.39952 6.55942 5.50301 6.60423 5.61689C6.60885 5.6298 6.61735 5.64096 6.62856 5.64885C6.63976 5.65674 6.65314 5.66098 6.66685 5.66098C6.68055 5.66098 6.69392 5.65674 6.70513 5.64885C6.71634 5.64096 6.72484 5.6298 6.72946 5.61689C6.77427 5.50301 6.84194 5.39952 6.92828 5.31279C7.01463 5.22607 7.11782 5.15794 7.2315 5.11263C7.24441 5.108 7.25557 5.09951 7.26346 5.0883C7.27135 5.07709 7.27558 5.06372 7.27558 5.05001C7.27558 5.0363 7.27135 5.02293 7.26346 5.01172C7.25557 5.00051 7.24441 4.99202 7.2315 4.98739C7.11801 4.94197 7.01498 4.87386 6.9287 4.78726C6.84243 4.70065 6.77473 4.59735 6.72974 4.48368C6.72517 4.47068 6.71668 4.45942 6.70544 4.45146C6.6942 4.44349 6.68076 4.43921 6.66698 4.43921C6.65321 4.43921 6.63977 4.44349 6.62853 4.45146C6.61728 4.45942 6.60879 4.47068 6.60423 4.48368" fill="white"/>
<path fill-rule="evenodd" clip-rule="evenodd" d="M6.40225 5.05038C6.50466 5.12301 6.59427 5.21318 6.66663 5.31559C6.73906 5.21292 6.82836 5.12324 6.93073 5.05038C6.82838 4.9776 6.73909 4.88802 6.66663 4.78544C6.59427 4.88786 6.50466 4.97802 6.40225 5.05038ZM6.66663 5.8616C6.6129 5.86143 6.56046 5.84506 6.51618 5.81462C6.47189 5.78419 6.43781 5.74111 6.41839 5.69101C6.38356 5.60247 6.33094 5.52202 6.26379 5.45462C6.19663 5.38722 6.11636 5.33432 6.02795 5.29917C5.97786 5.27963 5.93484 5.24543 5.9045 5.20104C5.87417 5.15665 5.85793 5.10414 5.85791 5.05038C5.85791 4.94101 5.9247 4.84333 6.02795 4.80186C6.11631 4.76678 6.19654 4.71396 6.2637 4.64666C6.33085 4.57937 6.3835 4.49902 6.41839 4.41058V4.41003C6.4379 4.36003 6.47202 4.31707 6.5163 4.28674C6.56058 4.25641 6.61296 4.24012 6.66663 4.23999H6.66719C6.77683 4.23999 6.87396 4.30761 6.91487 4.41114C6.98528 4.58925 7.12721 4.73118 7.30476 4.80186C7.35499 4.82115 7.39819 4.8552 7.42869 4.89953C7.45919 4.94386 7.47554 4.99638 7.4756 5.05019C7.47566 5.10399 7.45943 5.15656 7.42903 5.20095C7.39863 5.24535 7.3555 5.27949 7.30531 5.2989C7.12721 5.36958 6.98528 5.51262 6.91487 5.69045C6.89557 5.74057 6.86161 5.78371 6.81743 5.81424C6.77325 5.84477 6.72089 5.86128 6.66719 5.8616H6.66663Z" fill="#333333"/>
<path fill-rule="evenodd" clip-rule="evenodd" d="M7.17134 11.2373C6.9889 11.1609 6.84411 11.0154 6.7686 10.8325C6.6931 10.6497 6.69301 10.4445 6.76837 10.2616L9.04731 4.74192C9.08461 4.65146 9.13937 4.56924 9.20847 4.49997C9.27757 4.43069 9.35964 4.37572 9.45 4.33819C9.54036 4.30066 9.63723 4.28131 9.73508 4.28125C9.83292 4.28119 9.92982 4.30042 10.0202 4.33783C10.2028 4.41406 10.3477 4.55957 10.4232 4.74246C10.4987 4.92535 10.4986 5.13071 10.4229 5.31353L8.14369 10.8332C8.10654 10.9237 8.05189 11.006 7.98286 11.0753C7.91383 11.1446 7.83179 11.1997 7.74145 11.2372C7.6511 11.2747 7.55423 11.2941 7.4564 11.2941C7.35857 11.2941 7.26169 11.2748 7.17134 11.2373Z" fill="white"/>
<path fill-rule="evenodd" clip-rule="evenodd" d="M9.73491 4.48066C9.66359 4.48052 9.59297 4.49482 9.52731 4.52268C9.39261 4.57834 9.28798 4.68354 9.23232 4.81879L6.9531 10.3379C6.89768 10.4719 6.89757 10.6223 6.95281 10.7563C7.00804 10.8904 7.11411 10.9971 7.24781 11.0531C7.31405 11.0804 7.38502 11.0945 7.45668 11.0944C7.52834 11.0943 7.59927 11.0801 7.66543 11.0525C7.73159 11.025 7.79168 10.9847 7.84227 10.934C7.89285 10.8832 7.93294 10.823 7.96024 10.7567L10.2386 5.23734C10.273 5.15434 10.2864 5.06416 10.2776 4.97477C10.2689 4.88537 10.2383 4.7995 10.1885 4.72472C10.1387 4.64995 10.0713 4.58858 9.9922 4.54601C9.9131 4.50345 9.82474 4.48101 9.73491 4.48066ZM7.45681 11.4948C7.33262 11.4945 7.20968 11.4698 7.09503 11.4221C6.86364 11.3254 6.68003 11.1409 6.58437 10.909C6.48871 10.6772 6.48881 10.4169 6.58464 10.1851L8.86274 4.66545C8.9102 4.55058 8.97983 4.44618 9.06764 4.35823C9.15545 4.27027 9.25973 4.20048 9.37453 4.15283C9.48896 4.10519 9.61171 4.08072 9.73567 4.08081C9.85962 4.08091 9.98233 4.10557 10.0967 4.15339C10.3279 4.25023 10.5114 4.4346 10.6071 4.66626C10.7028 4.89792 10.703 5.15805 10.6076 5.38984L8.32926 10.9095C8.28209 11.0247 8.21255 11.1293 8.12465 11.2174C8.03675 11.3055 7.93225 11.3753 7.8172 11.4227C7.70302 11.47 7.5804 11.4945 7.45681 11.4948Z" fill="#333333"/>
<path fill-rule="evenodd" clip-rule="evenodd" d="M8.25102 11.6856C8.06851 11.6092 7.92367 11.4637 7.84816 11.2808C7.77265 11.0979 7.77262 10.8926 7.84806 10.7096L10.1267 5.19026C10.164 5.09977 10.2188 5.01752 10.2879 4.94822C10.357 4.87892 10.4391 4.82393 10.5295 4.7864C10.6199 4.74887 10.7168 4.72953 10.8147 4.72949C10.9126 4.72945 11.0095 4.74872 11.0999 4.78618C11.2825 4.8624 11.4274 5.00791 11.5029 5.1908C11.5784 5.37369 11.5783 5.57906 11.5026 5.76187L9.22338 11.2813C9.18626 11.3718 9.13162 11.4541 9.0626 11.5235C8.99359 11.5928 8.91155 11.6479 8.8212 11.6854C8.73086 11.723 8.63398 11.7424 8.53613 11.7424C8.43829 11.7424 8.3414 11.7231 8.25102 11.6856Z" fill="white"/>
<path fill-rule="evenodd" clip-rule="evenodd" d="M10.8141 4.92863C10.7437 4.92863 10.6735 4.94255 10.6059 4.97093C10.4715 5.02659 10.3669 5.13179 10.3112 5.26648L8.03199 10.7859C7.97659 10.9199 7.97652 11.0703 8.03181 11.2044C8.08709 11.3384 8.19322 11.4451 8.32698 11.5011C8.39314 11.5286 8.46408 11.5428 8.53574 11.5428C8.6074 11.5428 8.67835 11.5286 8.74451 11.5011C8.81067 11.4736 8.87074 11.4333 8.92125 11.3824C8.97177 11.3316 9.01173 11.2713 9.03885 11.205L11.3175 5.68531C11.3516 5.60234 11.3648 5.51227 11.3559 5.42302C11.347 5.33376 11.3164 5.24804 11.2667 5.17338C11.217 5.09871 11.1498 5.03738 11.0709 4.99476C10.9919 4.95213 10.9038 4.92952 10.8141 4.92891M8.53514 11.9422C8.41129 11.9421 8.28865 11.9177 8.1742 11.8704C7.94274 11.7736 7.75903 11.5891 7.66323 11.3572C7.56742 11.1254 7.56733 10.865 7.66297 10.6331L9.94219 5.1137C9.98931 4.99896 10.0586 4.89466 10.1462 4.80678C10.2337 4.7189 10.3377 4.64918 10.4523 4.6016C10.5668 4.55402 10.6896 4.52953 10.8136 4.52954C10.9377 4.52955 11.0605 4.55405 11.175 4.60164C11.4064 4.69827 11.5902 4.88255 11.6861 5.11424C11.7821 5.34592 11.7824 5.60616 11.6871 5.8381L9.40731 11.3575C9.36038 11.4726 9.29104 11.5772 9.20333 11.6652C9.11561 11.7533 9.01127 11.823 8.89637 11.8704C8.78182 11.9177 8.65909 11.9421 8.53514 11.9422Z" fill="#333333"/>
<path fill-rule="evenodd" clip-rule="evenodd" d="M10.9604 6.81434C10.9341 6.81445 10.9081 6.80924 10.8839 6.79903L10.4258 6.60868C10.4003 6.59957 10.3769 6.58537 10.3571 6.56695C10.3373 6.54853 10.3214 6.52627 10.3104 6.50152C10.2994 6.47677 10.2936 6.45005 10.2933 6.42297C10.2929 6.3959 10.2981 6.36905 10.3085 6.34403C10.3188 6.31902 10.3342 6.29637 10.3535 6.27747C10.3729 6.25857 10.3959 6.2438 10.4212 6.23407C10.4465 6.22433 10.4734 6.21983 10.5005 6.22084C10.5276 6.22185 10.5541 6.22835 10.5786 6.23994L11.0367 6.42974C11.0795 6.44735 11.1148 6.47928 11.1367 6.52007C11.1586 6.56086 11.1656 6.60798 11.1566 6.65338C11.1476 6.69879 11.1232 6.73966 11.0874 6.76902C11.0516 6.79837 11.0067 6.81439 10.9604 6.81434ZM10.5808 7.73438C10.5546 7.73445 10.5287 7.72924 10.5046 7.71907L10.0462 7.52872C9.99884 7.50746 9.9616 7.46859 9.94239 7.42035C9.92318 7.3721 9.9235 7.31828 9.94329 7.27027C9.96308 7.22226 10.0008 7.18384 10.0484 7.16315C10.096 7.14246 10.1499 7.14112 10.1984 7.15942L10.6571 7.34977C10.6999 7.36739 10.7352 7.39931 10.7571 7.4401C10.779 7.48089 10.7861 7.52802 10.777 7.57342C10.768 7.61883 10.7436 7.6597 10.7078 7.68905C10.672 7.71841 10.6271 7.73443 10.5808 7.73438ZM10.2007 8.65441C10.1745 8.65449 10.1486 8.64928 10.1244 8.63911L9.66635 8.44875C9.61844 8.42781 9.58065 8.38893 9.56108 8.34044C9.54152 8.29195 9.54174 8.23773 9.56169 8.1894C9.58165 8.14107 9.61976 8.10249 9.66783 8.08194C9.71591 8.06138 9.77013 8.06049 9.81885 8.07946L10.2772 8.26981C10.3014 8.27981 10.3235 8.29449 10.342 8.31302C10.3606 8.33155 10.3753 8.35356 10.3853 8.37778C10.3953 8.402 10.4005 8.42797 10.4005 8.45419C10.4005 8.48041 10.3953 8.50637 10.3852 8.53057C10.3704 8.56734 10.3449 8.5988 10.312 8.62089C10.2791 8.64297 10.2403 8.65465 10.2007 8.65441ZM9.82108 9.57417C9.7948 9.57428 9.76877 9.56908 9.74455 9.55887L9.28648 9.36851C9.23751 9.34825 9.19859 9.30937 9.17829 9.26041C9.15799 9.21146 9.15796 9.15645 9.17822 9.10747C9.19848 9.0585 9.23737 9.01958 9.28632 8.99928C9.33528 8.97898 9.39029 8.97896 9.43926 8.99922L9.89733 9.18985C9.93997 9.20757 9.97515 9.23951 9.99689 9.28023C10.0186 9.32096 10.0256 9.36796 10.0166 9.41324C10.0076 9.45853 9.98326 9.49931 9.94761 9.52864C9.91196 9.55798 9.86725 9.57407 9.82108 9.57417ZM9.44149 10.4942C9.41521 10.4943 9.38918 10.4891 9.36496 10.4789L8.90633 10.2886C8.85744 10.2681 8.81863 10.2292 8.79839 10.1802C8.77815 10.1312 8.77814 10.0762 8.79835 10.0272C8.80835 10.003 8.82304 9.98097 8.84156 9.96242C8.86009 9.94386 8.8821 9.92915 8.90632 9.91912C8.93055 9.90909 8.95651 9.90394 8.98273 9.90396C9.00895 9.90398 9.03491 9.90918 9.05911 9.91926L9.51774 10.1096C9.56055 10.1272 9.59591 10.1591 9.6178 10.1999C9.63968 10.2407 9.64672 10.2878 9.63772 10.3333C9.62871 10.3787 9.60423 10.4195 9.56844 10.4489C9.53265 10.4782 9.48778 10.4943 9.44149 10.4942Z" fill="#333333"/>
</svg>
