<svg width="26" height="31" viewBox="0 0 26 31" fill="none" xmlns="http://www.w3.org/2000/svg">
<path d="M16.0947 0.373901H19.5702V2.13836H16.0947V0.373901Z" fill="#FFCC3F"/>
<path d="M19.5699 2.51302H16.0945C15.8806 2.51302 15.7202 2.35261 15.7202 2.13874V0.37428C15.7202 0.160406 15.8806 0 16.0945 0H19.5699C19.7838 0 19.9442 0.160406 19.9442 0.37428V2.13874C19.9442 2.29915 19.7838 2.51302 19.5699 2.51302ZM16.4688 1.71099H19.1957V0.748559H16.4688V1.71099Z" fill="#333333"/>
<path d="M16.0945 7.85987C15.8806 7.85987 15.7202 7.69946 15.7202 7.48559V0.37428C15.7202 0.160406 15.8806 0 16.0945 0C16.3084 0 16.4688 0.160406 16.4688 0.37428V7.48559C16.4688 7.69946 16.3084 7.85987 16.0945 7.85987Z" fill="#333333"/>
<path d="M5.61442 7.32483C2.72712 7.32483 0.374512 9.67744 0.374512 12.5647V21.2801H16.0942V7.32483H5.61442Z" fill="#FFCC3F"/>
<path d="M16.094 21.7082H0.374279C0.160406 21.7082 0 21.5478 0 21.334V12.5651C0 9.46395 2.51302 6.95093 5.61418 6.95093H16.094C16.3079 6.95093 16.4683 7.11133 16.4683 7.32521V21.2805C16.4683 21.5478 16.3079 21.7082 16.094 21.7082ZM0.748559 20.9062H15.6662V7.75296H5.61418C2.94076 7.75296 0.748559 9.94516 0.748559 12.6186V20.9062Z" fill="#333333"/>
<path d="M21.3338 21.3336H10.854V12.5647C10.854 9.67744 13.2066 7.32483 16.0939 7.32483C18.9812 7.32483 21.3338 9.67744 21.3338 12.5647V21.3336Z" fill="#632DB8"/>
<path d="M21.3336 21.7082H10.8538C10.6399 21.7082 10.4795 21.5478 10.4795 21.334V12.5651C10.4795 9.46395 12.9925 6.95093 16.0937 6.95093C19.1948 6.95093 21.7079 9.46395 21.7079 12.5651V21.2805C21.7079 21.5478 21.5475 21.7082 21.3336 21.7082ZM11.228 20.9062H20.9058V12.5651C20.9058 9.8917 18.7136 7.69949 16.0402 7.69949C13.3668 7.69949 11.1746 9.8917 11.1746 12.5651L11.228 20.9062Z" fill="#333333"/>
<path d="M10.8548 29.6747C9.67849 29.6747 8.76953 28.7123 8.76953 27.5894V21.3336H12.9401V27.6429C12.9401 28.7657 11.9776 29.6747 10.8548 29.6747Z" fill="white"/>
<path d="M10.8543 30.1025C9.46414 30.1025 8.34131 28.9796 8.34131 27.5894V21.3336C8.34131 21.1198 8.50171 20.9594 8.71559 20.9594H12.9396C13.1535 20.9594 13.3139 21.1198 13.3139 21.3336V27.6429C13.3139 28.9796 12.191 30.1025 10.8543 30.1025ZM9.14333 21.7079V27.5894C9.14333 28.5519 9.89189 29.3004 10.8543 29.3004C11.8168 29.3004 12.5653 28.5519 12.5653 27.5894V21.7079H9.14333Z" fill="#333333"/>
<path d="M25.5043 24.702H15.0245L10.854 21.2266H21.3338L25.5043 24.702Z" fill="#FFCC3F"/>
<path d="M25.5046 25.0764H15.0248C14.9178 25.0764 14.8644 25.023 14.7574 24.9695L10.5869 21.494C10.48 21.3871 10.4265 21.2267 10.48 21.0663C10.5334 20.9059 10.6938 20.799 10.8542 20.799H21.334C21.441 20.799 21.4945 20.8524 21.6014 20.9059L25.7719 24.3813C25.8789 24.4883 25.9323 24.6487 25.8789 24.8091C25.8254 24.9695 25.665 25.0764 25.5046 25.0764ZM15.1852 24.3279H24.4352L21.1736 21.6544H11.9236L15.1852 24.3279Z" fill="#333333"/>
<path d="M22.8309 10.4796L23.8468 18.8207L14.4899 19.9435L10.854 20.3178V13.7947L22.8309 10.4796Z" fill="white"/>
<path d="M10.8538 20.7455C10.7468 20.7455 10.6399 20.692 10.5864 20.6386C10.4795 20.5851 10.4795 20.4782 10.4795 20.3712V13.7946C10.4795 13.6342 10.5864 13.4738 10.7468 13.4203L22.7772 10.1587C22.8842 10.1053 22.9911 10.1587 23.098 10.2122C23.205 10.2657 23.2584 10.3726 23.2584 10.4796L24.2209 18.7672C24.2209 18.8741 24.2209 18.981 24.1139 19.0345C24.0605 19.1415 23.9535 19.1949 23.8466 19.1949L10.8538 20.7455ZM11.228 14.0619V19.89L23.3654 18.4998L22.5099 11.0142L11.228 14.0619Z" fill="#333333"/>
<path d="M14.4899 11.4953L10.9075 11.923C10.854 12.1369 10.854 12.3508 10.854 12.5646V13.7944L14.4899 16.0401L16.2543 17.1629L22.8844 10.5328L14.4899 11.4953Z" fill="white"/>
<path d="M16.2541 17.5377C16.2006 17.5377 16.0937 17.5377 16.0402 17.4842L10.6399 14.1157C10.533 14.0623 10.4795 13.9019 10.4795 13.7949V12.5651C10.4795 12.3513 10.533 12.0839 10.533 11.87C10.533 11.7096 10.6934 11.5492 10.8538 11.5492L14.4362 11.1215L22.8307 10.1591C22.9911 10.1591 23.1515 10.2125 23.205 10.3729C23.2584 10.5333 23.2584 10.6937 23.1515 10.8007L16.5214 17.4308C16.468 17.4842 16.361 17.5377 16.2541 17.5377ZM11.228 13.581L16.2006 16.6287L21.8148 11.0146L11.2815 12.2443V12.5651L11.228 13.581Z" fill="#333333"/>
</svg>
