<svg width="16" height="17" viewBox="0 0 16 17" fill="none" xmlns="http://www.w3.org/2000/svg">
<path fill-rule="evenodd" clip-rule="evenodd" d="M9.69007 3.93823L4.64785 9.97629C4.50132 10.1519 4.43041 10.3784 4.45066 10.6063C4.47092 10.8341 4.58069 11.0446 4.7559 11.1916L6.07535 12.2988C6.16189 12.3714 6.26193 12.4263 6.36972 12.4602C6.47751 12.4941 6.59093 12.5064 6.70348 12.4963C6.81603 12.4863 6.92549 12.4541 7.02558 12.4017C7.12567 12.3492 7.21442 12.2776 7.28674 12.1907L12.329 6.15268L9.69007 3.93823Z" fill="#632DB8"/>
<path fill-rule="evenodd" clip-rule="evenodd" d="M9.71566 4.22709L4.80538 10.1076C4.69375 10.2417 4.6397 10.4144 4.65505 10.5882C4.67041 10.7619 4.75392 10.9225 4.88732 11.0349L6.20677 12.1421C6.27274 12.1974 6.34897 12.2391 6.43109 12.2649C6.51321 12.2907 6.59961 12.3 6.68534 12.2924C6.77108 12.2847 6.85447 12.2603 6.93073 12.2204C7.007 12.1805 7.07466 12.1259 7.12982 12.0599L12.0409 6.17876L9.71566 4.22709ZM6.62566 12.7046C6.37649 12.7046 6.13677 12.6179 5.94343 12.4551L4.62399 11.3485C4.40773 11.1663 4.27233 10.906 4.24735 10.6243C4.22237 10.3426 4.30984 10.0625 4.49066 9.84515L9.66455 3.65015L12.617 6.12709L7.44455 12.3224C7.34488 12.4428 7.21973 12.5395 7.07811 12.6057C6.93649 12.6718 6.78196 12.7054 6.62566 12.7046Z" fill="#333333"/>
<path fill-rule="evenodd" clip-rule="evenodd" d="M4.36452 13.6756L3.70508 13.122L4.75563 11.1914L6.07508 12.2986L4.36452 13.6756Z" fill="white"/>
<path fill-rule="evenodd" clip-rule="evenodd" d="M3.96427 13.0724L4.36705 13.4107L5.75177 12.296L4.81538 11.5093L3.96427 13.0724ZM4.36149 13.9404L3.44482 13.1712L4.69482 10.874L6.39705 12.3018L4.36149 13.9404Z" fill="#333333"/>
<path fill-rule="evenodd" clip-rule="evenodd" d="M9.05837 8.05364L8.39893 7.50002L9.50281 6.17725L10.1628 6.73086L9.05837 8.05364Z" fill="#FFCC3F"/>
<path fill-rule="evenodd" clip-rule="evenodd" d="M8.68661 7.47475L9.03299 7.7653L9.87466 6.75697L9.52827 6.46614L8.68661 7.47475ZM9.08438 8.34253L8.11133 7.52586L9.47772 5.88892L10.4513 6.70558L9.08438 8.34253Z" fill="#333333"/>
<mask id="mask0_4973_1924" style="mask-type:luminance" maskUnits="userSpaceOnUse" x="0" y="13" width="5" height="4">
<path d="M0 13.4929H4.39194V16.3635H0V13.4929Z" fill="white"/>
</mask>
<g mask="url(#mask0_4973_1924)">
<path fill-rule="evenodd" clip-rule="evenodd" d="M1.93738 16.3637C1.70599 16.3637 1.45461 16.2934 1.21961 16.2273C0.788772 16.1073 0.495716 16.0417 0.36155 16.2023C0.325912 16.2409 0.276794 16.2644 0.224344 16.2679C0.171893 16.2713 0.120119 16.2545 0.079718 16.2209C0.0393168 16.1872 0.0133758 16.1394 0.0072547 16.0872C0.00113363 16.035 0.0153002 15.9824 0.0468275 15.9403C0.36155 15.5626 0.875994 15.7065 1.32988 15.8334C1.76183 15.9545 2.05405 16.0206 2.18766 15.8584C2.32377 15.6965 2.20572 15.4206 2.01044 15.0181C1.80544 14.5937 1.57238 14.1137 1.88766 13.7362C2.20238 13.3587 2.71627 13.5023 3.17016 13.6281C3.6021 13.7487 3.8946 13.8153 4.02988 13.6531C4.04691 13.632 4.06798 13.6145 4.09186 13.6015C4.11574 13.5886 4.14195 13.5806 4.16896 13.578C4.19597 13.5753 4.22324 13.578 4.24919 13.586C4.27513 13.594 4.29922 13.607 4.32006 13.6244C4.3409 13.6418 4.35807 13.6632 4.37056 13.6873C4.38306 13.7114 4.39063 13.7377 4.39284 13.7648C4.39504 13.7918 4.39184 13.8191 4.38342 13.8449C4.37499 13.8707 4.36152 13.8945 4.34377 13.9151C4.02933 14.2926 3.51433 14.149 3.06099 14.0226C2.63016 13.9026 2.33655 13.8365 2.20183 13.9984C2.06599 14.1606 2.18405 14.4373 2.37933 14.8395C2.58433 15.2634 2.81711 15.744 2.50238 16.1209C2.35072 16.3031 2.15294 16.3637 1.93738 16.3637Z" fill="#333333"/>
</g>
<path fill-rule="evenodd" clip-rule="evenodd" d="M14.0009 0.560975C12.9648 -0.0079143 11.6425 0.115974 10.7281 0.865419C9.76226 1.65709 9.45087 2.85681 9.73976 3.91653C9.89793 4.49714 10.2313 5.01484 10.6945 5.39903C11.1592 5.78498 11.7309 6.01955 12.3328 6.07125C13.2634 6.15181 14.2181 5.79681 14.8634 5.03209C16.0367 3.64042 15.6909 1.48764 14.0009 0.560975Z" fill="#FFCC3F"/>
<path fill-rule="evenodd" clip-rule="evenodd" d="M12.5955 0.408347C11.9732 0.408347 11.3535 0.617514 10.8582 1.02335C10.0038 1.72418 9.65103 2.81224 9.93741 3.86279C10.0841 4.40301 10.3943 4.88464 10.8255 5.24168C11.2581 5.60113 11.7906 5.81926 12.351 5.86668C13.2471 5.94335 14.1302 5.5839 14.7063 4.90029C14.9667 4.59292 15.1553 4.23139 15.2584 3.842C15.3615 3.4526 15.3765 3.04512 15.3024 2.64918C15.1519 1.84196 14.6413 1.1464 13.9024 0.740847C13.5017 0.521798 13.0521 0.407245 12.5955 0.408347ZM12.5932 6.28696C12.5007 6.28696 12.4079 6.28288 12.3149 6.27474C11.6714 6.22017 11.0601 5.96944 10.5635 5.5564C10.0677 5.14589 9.71104 4.59206 9.54242 3.97085C9.21297 2.76224 9.61769 1.5114 10.5985 0.706958C11.5802 -0.0977642 12.9874 -0.228598 14.0991 0.381958C14.9463 0.846402 15.5316 1.64585 15.7046 2.57446C15.7902 3.02992 15.7732 3.49874 15.6548 3.94678C15.5363 4.39482 15.3194 4.81081 15.0199 5.16446C14.7214 5.51672 14.3496 5.79963 13.9305 5.99345C13.5114 6.18727 13.055 6.28762 12.5932 6.28696Z" fill="#333333"/>
</svg>
