<svg width="100" height="100" viewBox="0 0 100 100" fill="none" xmlns="http://www.w3.org/2000/svg">
<path d="M70.8477 12C79.6842 12 86.8477 19.1635 86.8477 28V45.2969C86.8477 54.1334 79.6842 61.2969 70.8477 61.2969H32.1279L6 75.1006V28C6 19.1634 13.1634 12 22 12H70.8477Z" fill="#C5C5C5"/>
<circle cx="30.7051" cy="36.6487" r="4" fill="#767676"/>
<circle cx="46.7051" cy="36.6487" r="4" fill="#767676"/>
<circle cx="62.7051" cy="36.6487" r="4" fill="#767676"/>
<rect x="77.2363" y="72.235" width="4.92973" height="19.7189" transform="rotate(-41.5255 77.2363 72.235)" fill="#656565"/>
<path d="M65.6484 32.7048C78.4447 32.7048 88.8184 43.0785 88.8184 55.8748C88.8183 68.671 78.4447 79.0447 65.6484 79.0447C52.8524 79.0445 42.4796 68.6708 42.4795 55.8748C42.4795 43.0786 52.8523 32.705 65.6484 32.7048ZM65.6484 37.6345C55.5749 37.6347 47.4092 45.8012 47.4092 55.8748C47.4093 65.9482 55.575 74.1148 65.6484 74.115C75.7221 74.115 83.8886 65.9483 83.8887 55.8748C83.8887 45.8011 75.7221 37.6345 65.6484 37.6345Z" fill="#656565"/>
<circle cx="65.6492" cy="55.8746" r="18.24" fill="white" fill-opacity="0.6"/>
</svg>
