<svg width="14" height="14" viewBox="0 0 14 14" fill="none" xmlns="http://www.w3.org/2000/svg">
<g clip-path="url(#clip0_602_2861)">
<path d="M7.38893 4.5835C7.38893 4.7161 7.3343 4.84328 7.23706 4.93705C7.13982 5.03082 7.00793 5.0835 6.87041 5.0835C6.73289 5.0835 6.601 5.03082 6.50376 4.93705C6.40652 4.84328 6.35189 4.7161 6.35189 4.5835C6.35189 4.45089 6.40652 4.32371 6.50376 4.22994C6.601 4.13617 6.73289 4.0835 6.87041 4.0835C7.00793 4.0835 7.13982 4.13617 7.23706 4.22994C7.3343 4.32371 7.38893 4.45089 7.38893 4.5835ZM5.83337 6.4585C5.83337 6.35904 5.87435 6.26366 5.94728 6.19333C6.02021 6.12301 6.11912 6.0835 6.22226 6.0835H7.00004C7.10318 6.0835 7.2021 6.12301 7.27503 6.19333C7.34796 6.26366 7.38893 6.35904 7.38893 6.4585V8.5835H7.77782C7.88096 8.5835 7.97987 8.62301 8.0528 8.69333C8.12574 8.76366 8.16671 8.85904 8.16671 8.9585C8.16671 9.05795 8.12574 9.15334 8.0528 9.22366C7.97987 9.29399 7.88096 9.3335 7.77782 9.3335H6.22226C6.11912 9.3335 6.02021 9.29399 5.94728 9.22366C5.87435 9.15334 5.83337 9.05795 5.83337 8.9585C5.83337 8.85904 5.87435 8.76366 5.94728 8.69333C6.02021 8.62301 6.11912 8.5835 6.22226 8.5835H6.61115V6.8335H6.22226C6.11912 6.8335 6.02021 6.79399 5.94728 6.72366C5.87435 6.65334 5.83337 6.55795 5.83337 6.4585Z" fill="#333333"/>
<path d="M6.99943 0.583008C10.5432 0.583008 13.4161 3.45592 13.4161 6.99968C13.4161 10.5434 10.5432 13.4163 6.99943 13.4163C3.45568 13.4163 0.582764 10.5434 0.582764 6.99968C0.582764 3.45592 3.45568 0.583008 6.99943 0.583008ZM1.45776 6.99968C1.45776 8.46942 2.04162 9.87896 3.08088 10.9182C4.12014 11.9575 5.52969 12.5413 6.99943 12.5413C8.46917 12.5413 9.87872 11.9575 10.918 10.9182C11.9572 9.87896 12.5411 8.46942 12.5411 6.99968C12.5411 5.52993 11.9572 4.12039 10.918 3.08112C9.87872 2.04186 8.46917 1.45801 6.99943 1.45801C5.52969 1.45801 4.12014 2.04186 3.08088 3.08112C2.04162 4.12039 1.45776 5.52993 1.45776 6.99968Z" fill="#333333"/>
</g>
<defs>
<clipPath id="clip0_602_2861">
<rect width="14" height="14" fill="white"/>
</clipPath>
</defs>
</svg>
