<svg width="24" height="24" viewBox="0 0 24 24" fill="none" xmlns="http://www.w3.org/2000/svg">
<path d="M6.43623 17.0597H3.34138C3.15381 17.0597 3.06003 16.9627 2.96625 16.8656C2.87246 16.7686 2.77868 16.5746 2.87246 16.3806C3.43516 14.7313 4.84191 13.7612 6.43623 13.7612C8.40568 13.7612 10 12.0149 10 9.9776C10 7.94029 8.40568 6 6.43623 6C4.46678 6 2.87246 7.74626 2.87246 9.88058C2.87246 10.8507 3.2476 11.8209 3.8103 12.5C2.59111 13.1791 1.65327 14.2462 1.09057 15.7015C0.903004 16.3806 0.996787 17.2537 1.4657 17.9328C1.93462 18.6119 2.59111 19 3.34138 19H6.43623C6.99893 19 7.37406 18.6119 7.37406 18.0298C7.37406 17.4477 6.99893 17.0597 6.43623 17.0597ZM4.74813 9.88058C4.74813 8.81342 5.4984 8.03731 6.43623 8.03731C7.37406 8.03731 8.12433 8.91044 8.12433 9.88058C8.12433 10.9477 7.37406 11.7239 6.43623 11.7239C5.4984 11.7239 4.74813 10.8507 4.74813 9.88058Z" fill="#333333"/>
<path d="M21.776 15.3665C21.1227 13.5963 19.8162 12.2919 18.323 11.5466C19.1629 10.8012 19.6295 9.68323 19.6295 8.37888C19.6295 5.95652 17.763 4 15.5232 4C13.2833 4 11.4168 5.95652 11.4168 8.37888C11.4168 9.59006 11.8834 10.7081 12.7234 11.5466C11.2302 12.2919 9.92358 13.5963 9.2703 15.3665C8.80366 16.205 8.99031 17.1366 9.45695 17.882C9.92358 18.6273 10.7635 19 11.6035 19H19.3495C20.1895 19 21.0294 18.5342 21.496 17.882C22.056 17.1366 22.1493 16.205 21.776 15.3665ZM13.19 8.47205C13.19 7.07453 14.2166 5.95652 15.4299 5.95652C16.6431 5.95652 17.6697 7.07453 17.6697 8.47205C17.6697 9.86956 16.6431 10.9876 15.4299 10.9876C14.2166 10.9876 13.19 9.7764 13.19 8.47205ZM19.9095 16.8571C19.8162 16.9503 19.6295 17.2298 19.3495 17.2298H11.6035C11.2302 17.2298 11.0435 16.9503 11.0435 16.8571C10.9502 16.764 10.7635 16.3913 10.9502 16.0186C11.6968 14.0621 13.5633 12.7578 15.5232 12.7578C17.4831 12.7578 19.3495 14.0621 20.0961 16.0186C20.1895 16.3913 20.0028 16.764 19.9095 16.8571Z" fill="#333333"/>
</svg>
