<svg width="24" height="24" viewBox="0 0 24 24" fill="none" xmlns="http://www.w3.org/2000/svg">
<g clip-path="url(#clip0_602_16035)">
<path d="M23.7936 8.93729C23.4658 7.84738 22.4825 6.97543 21.3898 6.86645L16.8008 6.2125L14.7248 1.85285C14.1785 0.653947 13.1951 0 11.9932 0C10.7913 0 9.80791 0.653947 9.2616 1.74386L7.1856 6.10351L2.59654 6.86645C1.5039 7.08442 0.520536 7.84738 0.192746 8.93729C-0.244308 10.1362 0.0834825 11.3351 0.957588 12.207L4.34474 15.5857L3.57991 20.3814C3.36139 21.5802 3.9077 22.7791 4.89108 23.4331C5.43739 23.7601 5.9837 23.9781 6.63929 23.9781C7.1856 23.9781 7.62264 23.8691 8.0597 23.6511L12.2117 21.3623L16.3637 23.6511C17.3471 24.1961 18.549 24.0871 19.5324 23.4331C20.5157 22.7791 21.062 21.5802 20.8435 20.3814L20.0787 15.5857L23.4658 12.207C23.9029 11.3351 24.2306 10.0272 23.7936 8.93729Z" fill="#333333"/>
</g>
<defs>
<clipPath id="clip0_602_16035">
<rect width="24" height="24" fill="white"/>
</clipPath>
</defs>
</svg>
